<svg width="101" height="32" viewBox="0 0 101 32" fill="none" xmlns="http://www.w3.org/2000/svg">
<path d="M44.2248 8.82507L42.1824 13.7694H46.2392L44.2248 8.82507ZM44.6474 7.66992L48.8028 17.6712H47.7606L46.4645 14.544H41.971L40.6891 17.6712H39.6328L43.8162 7.66992H44.6474Z" fill="white"/>
<path d="M52.0697 13.0226V16.8119H55.8025C56.8167 16.8119 57.6195 15.9103 57.6195 14.9241C57.6195 13.9384 56.887 13.0226 55.9012 13.0226H52.0697ZM52.0697 12.2196H55.5066C56.4926 12.2196 57.2111 11.3463 57.2111 10.3744C57.2111 9.36027 56.5349 8.52911 55.5912 8.52911H52.0697V12.2196ZM51.0835 17.6711V7.66992H55.9012C57.3097 7.66992 58.183 8.96575 58.183 10.2196C58.183 11.2196 57.6478 12.1354 56.7462 12.5437C57.8873 12.8818 58.6057 13.8819 58.6057 15.0934C58.6057 16.5866 57.3379 17.6711 55.8025 17.6711H51.0835Z" fill="white"/>
<path d="M48.4932 23.8338L47.7185 24.3128C47.0705 22.9888 45.8309 22.538 44.7464 22.538C42.3518 22.538 41.0416 24.6791 41.0416 26.6934C41.0416 28.9049 42.6615 30.905 44.7886 30.905C45.9155 30.905 47.2396 30.3418 47.8735 29.0459L48.6905 29.4684C48.0423 30.9614 46.2675 31.7925 44.7322 31.7925C41.9854 31.7925 40.0557 29.1725 40.0557 26.6371C40.0557 24.2282 41.7883 21.6504 44.8026 21.6504C46.5774 21.6504 47.8875 22.552 48.4932 23.8338Z" fill="white"/>
<path d="M54.5911 22.862L52.5486 27.8064H56.6054L54.5911 22.862ZM55.0137 21.707L59.1691 31.7082H58.1268L56.8307 28.5811H52.3372L51.0554 31.7082H49.999L54.1825 21.707H55.0137Z" fill="white"/>
<path d="M65.6334 27.1442C66.8166 27.1442 67.5772 26.0597 67.5772 24.8484C67.5772 23.5945 66.6476 22.5804 65.5489 22.5804H62.4358V27.1442H65.6334ZM61.4497 21.707H65.5912C67.3097 21.707 68.5635 23.2987 68.5635 24.8484C68.5635 26.4821 67.3941 28.0177 65.6756 28.0177H62.4358V31.7082H61.4497V21.707Z" fill="white"/>
<path d="M71.0557 21.707H72.042V31.7083H71.0557V21.707Z" fill="white"/>
<path d="M78.9291 22.5804V31.7082H77.9431V22.5804H74.3794V21.707H82.4928V22.5804H78.9291Z" fill="white"/>
<path d="M87.3801 22.862L85.3375 27.8064H89.3943L87.3801 22.862ZM87.8027 21.707L91.9581 31.7082H90.9157L89.6197 28.5811H85.1263L83.8444 31.7082H82.7881L86.9715 21.707H87.8027Z" fill="white"/>
<path d="M94.2388 21.707H95.2248V30.8349H101V31.7083H94.2388V21.707Z" fill="white"/>
<path d="M18.2727 30.6453H30.6458V17.7356H18.2727V30.6453ZM31.7924 31.7918H17.126V16.5889H31.7924V31.7918Z" fill="#D6ED17"/>
<path d="M1.1467 30.6454H13.5198V1.14682H11.3144L1.1467 8.26638V30.6455V30.6454ZM14.6665 31.7921H0V7.66961L10.9529 0H14.6665V31.7921Z" fill="#D6ED17"/>
<path d="M18.2727 12.9845H30.6458V8.26651L20.4781 1.1467H18.2727V12.9845ZM31.7925 14.1312H17.126V0H20.8397L31.7925 7.66961V14.1312Z" fill="#D6ED17"/>
</svg>
