<svg width="102" height="33" viewBox="0 0 102 33" fill="none" xmlns="http://www.w3.org/2000/svg">
<path d="M44.5276 9.7655L42.4851 14.7098H46.5419L44.5276 9.7655ZM44.9501 8.61035L49.1055 18.6116H48.0633L46.7672 15.4844H42.2737L40.9919 18.6116H39.9355L44.119 8.61035H44.9501Z" fill="white"/>
<path d="M52.3724 13.963V17.7523H56.1053C57.1195 17.7523 57.9222 16.8507 57.9222 15.8646C57.9222 14.8788 57.1897 13.963 56.204 13.963H52.3724ZM52.3724 13.16H55.8093C56.7953 13.16 57.5139 12.2867 57.5139 11.3148C57.5139 10.3007 56.8376 9.46954 55.8939 9.46954H52.3724V13.16ZM51.3862 18.6115V8.61035H56.204C57.6124 8.61035 58.4857 9.90618 58.4857 11.16C58.4857 12.16 57.9505 13.0758 57.0489 13.4841C58.19 13.8222 58.9084 14.8223 58.9084 16.0338C58.9084 17.527 57.6406 18.6115 56.1053 18.6115H51.3862Z" fill="white"/>
<path d="M48.7959 24.7743L48.0212 25.2533C47.3732 23.9293 46.1336 23.4784 45.0491 23.4784C42.6545 23.4784 41.3443 25.6195 41.3443 27.6338C41.3443 29.8453 42.9643 31.8454 45.0914 31.8454C46.2182 31.8454 47.5424 31.2822 48.1762 29.9864L48.9932 30.4088C48.3451 31.9019 46.5703 32.7329 45.0349 32.7329C42.2881 32.7329 40.3584 30.113 40.3584 27.5775C40.3584 25.1686 42.091 22.5908 45.1053 22.5908C46.8802 22.5908 48.1902 23.4924 48.7959 24.7743Z" fill="white"/>
<path d="M54.8938 23.8025L52.8513 28.7468H56.9081L54.8938 23.8025ZM55.3165 22.6475L59.4719 32.6486H58.4295L57.1334 29.5215H52.64L51.3581 32.6486H50.3018L54.4852 22.6475H55.3165Z" fill="white"/>
<path d="M65.9361 28.0846C67.1193 28.0846 67.8799 27.0001 67.8799 25.7888C67.8799 24.5349 66.9503 23.5209 65.8517 23.5209H62.7385V28.0846H65.9361ZM61.7524 22.6475H65.8939C67.6124 22.6475 68.8662 24.2391 68.8662 25.7888C68.8662 27.4225 67.6969 28.9581 65.9784 28.9581H62.7385V32.6486H61.7524V22.6475Z" fill="white"/>
<path d="M71.3584 22.6475H72.3447V32.6487H71.3584V22.6475Z" fill="white"/>
<path d="M79.2318 23.5209V32.6486H78.2459V23.5209H74.6821V22.6475H82.7955V23.5209H79.2318Z" fill="white"/>
<path d="M87.6829 23.8025L85.6402 28.7468H89.6971L87.6829 23.8025ZM88.1054 22.6475L92.2608 32.6486H91.2184L89.9225 29.5215H85.429L84.1471 32.6486H83.0908L87.2743 22.6475H88.1054Z" fill="white"/>
<path d="M94.5415 22.6475H95.5276V31.7753H101.303V32.6487H94.5415V22.6475Z" fill="white"/>
<path d="M18.5754 31.5857H30.9485V18.676H18.5754V31.5857ZM32.0951 32.7322H17.4287V17.5293H32.0951V32.7322Z" fill="#D6ED17"/>
<path d="M1.44943 31.5858H13.8226V2.08725H11.6171L1.44943 9.20681V31.586V31.5858ZM14.9693 32.7325H0.302734V8.61004L11.2556 0.94043H14.9693V32.7325Z" fill="#D6ED17"/>
<path d="M18.5754 13.9249H30.9485V9.20694L20.7808 2.08713H18.5754V13.9249ZM32.0952 15.0716H17.4287V0.94043H21.1425L32.0952 8.61004V15.0716Z" fill="#D6ED17"/>
</svg>
