<svg width="652" height="1088" viewBox="0 0 652 1088" fill="none" xmlns="http://www.w3.org/2000/svg">
<g opacity="0.2">
<mask id="path-1-inside-1_56_9" fill="white">
<path d="M145.729 431.746L146.779 429.714C152.138 419.341 157.842 409.26 163.666 399.293L164.501 397.867L165.549 395.823C167.051 392.897 168.582 389.99 170.227 387.186L171.079 385.738L171.153 385.786C179.718 370.944 188.399 356.207 197.194 341.578C191.998 338.613 186.762 335.743 181.477 333.036C172.28 346.313 163.54 360.075 154.844 373.87L153.994 375.217L153.941 375.187C151.577 379.044 149.169 382.868 146.926 386.924C139.938 398.047 133.122 409.262 126.552 420.752L126.501 420.834C123.826 425.043 121.173 429.271 118.773 433.776C26.4738 592.535 -48.5227 767.062 -103.668 950.986L-69.9354 983.623C-47.6983 891.919 -16.2882 796.975 17.1761 710.228C52.4345 618.835 92.6635 530.427 137.883 446.229L138.699 444.71L139.698 442.658C141.313 439.393 143.03 436.204 144.879 433.141L145.729 431.746ZM222.766 495.11C213.26 488.834 203.599 482.934 193.906 477.131C183.121 497.75 172.803 518.745 162.702 539.899C157.382 551.039 152.123 562.224 146.983 573.495C139.201 590.556 131.685 607.802 124.229 625.059C119.762 635.989 115.104 646.823 110.619 657.785L110.515 658.032L110.401 658.251L110.346 658.399L110.274 658.537C110.211 658.657 110.183 658.784 110.168 658.926L110.129 659.306L109.985 659.643C106.029 669.024 102.329 678.569 98.6585 688.128C92.5318 704.076 86.4427 720.048 80.5965 736.162C76.8387 746.52 73.057 756.867 69.5695 767.395C64.6725 781.435 59.9843 795.57 55.4911 809.828C50.341 825.114 45.6682 840.62 40.9491 856.098C28.2031 897.89 16.9742 939.994 6.4603 982.809C1.48299 1003.07 -3.18472 1023.46 -7.60786 1043.92L37.802 1087.86C39.8339 1072.3 42.1498 1056.79 44.9344 1041.46C46.5883 1030.2 48.4715 1018.95 50.7994 1007.86C55.657 981.595 61.1149 956.237 67.192 930.659C71.2217 913.686 75.5952 896.375 80.1227 879.671C84.0002 865.37 87.8743 851.068 92.0922 836.942C96.1356 822.585 100.33 808.272 104.992 794.212C109.47 780.013 114.138 765.889 118.831 751.779C127.257 726.462 136.276 701.462 145.575 676.636C149.437 666.33 153.501 656.144 157.545 645.992C161.337 635.559 165.534 625.328 169.978 615.341C173.222 606.889 176.592 598.444 180.302 590.29C184.321 580.186 188.558 570.148 192.969 560.235C197.337 550.418 201.802 540.668 206.103 530.768C211.654 518.855 217.117 506.911 222.766 495.11ZM248.564 355.133C253.218 347.532 257.876 339.935 262.643 332.443C252.103 325.533 241.615 318.501 230.961 311.809C227.431 309.443 223.868 307.2 220.209 305.054C215.538 301.827 210.824 298.855 206.107 295.901L206.09 295.89L204.947 295.211C201.855 293.349 198.795 291.342 195.552 289.713C180.057 280.275 164.523 271.114 148.861 262.307C133.161 253.477 117.353 244.958 101.469 236.667C81.2345 226.109 60.831 216.048 40.2461 206.612C29.9511 201.892 19.6476 197.199 9.26367 192.801L8.26306 192.378C7.24707 191.946 6.23624 191.504 5.22025 191.067C5.16382 191.044 5.10907 191.02 5.05432 190.994C-9.76813 184.497 -24.6881 178.344 -39.7603 172.721C-40.1981 172.541 -40.6137 172.373 -41.0311 172.204C-51.3312 168.006 -61.6946 164.054 -72.1333 160.346C-82.873 156.243 -93.6862 152.528 -104.508 148.858C-117.29 144.525 -130.103 140.331 -142.984 136.479C-149.865 134.42 -156.736 132.308 -163.623 130.291C-163.726 130.261 -163.827 130.237 -163.93 130.207L-190.152 175.214C-159.014 182.495 -127.948 190.288 -97.066 199.129L-93.9496 200.02L-93.9821 200.059C-69.53 207.106 -45.196 214.832 -21.0842 223.553L-21.062 223.561L-21.0312 223.523L-20.0665 223.871C-2.88884 230.078 14.1777 236.768 31.092 244.032C45.2782 250.125 59.4917 256.124 73.5565 262.599C87.7478 268.736 101.809 275.398 115.78 282.344C125.661 287.256 135.482 292.356 145.344 297.373C156.363 303.264 167.369 309.14 178.425 315.051C178.925 315.364 179.371 315.657 179.823 315.936C180.456 316.2 181.102 316.445 181.703 316.819C183.62 317.625 185.428 318.714 187.26 319.754L189.239 320.877L189.201 320.935C193.243 323.017 197.284 325.103 201.249 327.409C202.407 328.081 203.555 328.775 204.697 329.493L205.939 330.172C209.317 332.037 212.688 333.923 215.959 335.973C226.89 342.111 237.727 348.632 248.564 355.133ZM-217.76 222.614L-254 284.839C-223.144 289.55 -192.451 295.925 -162.002 303.78L-159.647 304.388L-159.66 304.416C-65.2574 329.08 27.0109 367.738 115.704 415.25C122.466 403.551 129.342 391.945 136.351 380.479C74.073 342.496 9.98547 309.168 -55.5063 280.967L-57.6187 280.058L-57.5896 280.007C-81.9819 269.526 -106.59 259.849 -131.344 250.821L-131.372 250.813L-131.387 250.834L-132.466 250.443C-160.69 240.197 -189.139 230.946 -217.76 222.614ZM385.261 424.68C375.913 416.756 366.453 409.103 356.876 401.697C351.208 397.314 345.584 392.828 339.75 388.729C333.832 384.267 328.041 379.609 322.152 375.172L305.26 362.795C301.298 369.82 297.493 376.983 293.531 384.011C294.51 384.628 295.455 385.248 296.335 386.073L296.35 386.084C310.651 395.209 324.714 404.924 338.573 414.958C340.468 416.146 342.4 417.368 344.202 418.786C354.738 426.139 365.157 433.869 375.409 441.771C376.921 442.727 378.447 443.831 379.864 445.015C385.196 448.803 390.479 452.838 395.814 456.804C422.142 477.174 448.04 498.395 473.472 520.455C480.822 526.832 488.146 533.252 495.283 539.906C501.571 545.167 508.094 551.185 514.207 556.771C515.658 558.097 517.082 559.47 518.514 560.828C523.247 565.314 528.002 569.77 532.592 574.385C541.379 582.145 549.782 590.662 558.16 599.135C563.53 604.122 568.836 609.289 573.879 614.759C575.062 615.885 576.282 617.065 577.508 618.263C580.395 621.2 583.199 624.23 586.014 627.242L586.063 626.963L588.217 629.33C589.253 630.471 590.283 631.627 591.238 632.731C592.209 633.64 593.215 634.665 594.292 635.673C601.633 643.418 609.038 650.97 616.11 658.958C627.611 671.048 638.806 683.64 649.891 696.381L652 693.727C640.831 679.973 629.532 666.383 617.985 653.063C616.083 650.671 613.977 648.615 612.113 646.284C608.94 642.58 605.851 638.696 602.501 635.09C597.821 629.433 592.965 624.105 588.128 618.76L587.406 617.961L587.41 617.937L587.393 617.92C586.188 616.588 585.006 615.219 583.813 613.872C579.194 608.66 574.465 603.609 569.739 598.551C564.841 593.304 560.064 587.879 555.192 582.633C548.797 576.082 542.402 569.49 535.952 562.895C533.479 560.093 530.925 557.487 528.447 554.932C527.029 553.746 525.799 552.212 524.456 550.811C518.986 545.434 513.501 540.035 508.034 534.601C507.198 533.77 506.333 532.983 505.488 532.169C504.716 531.423 503.952 530.671 503.182 529.926L502.181 528.961C486.432 513.765 470.296 498.463 454.23 483.92C453.465 483.278 452.716 482.545 451.89 481.853C444.751 475.202 437.427 468.967 430.068 462.704C417.225 450.457 398.886 435.384 385.261 424.68ZM639.405 834.885L642.692 831.05C526.44 687.372 395.877 561.356 254.428 459.154C251.05 456.428 247.636 453.856 244.11 451.493C235.298 445.213 226.469 439.019 217.599 432.926C217.517 432.87 217.435 432.812 217.353 432.756L216.27 432.017C213.261 429.967 210.229 427.971 207.278 425.851C196.677 418.75 186.047 411.645 175.378 404.634C169.015 415.57 162.772 426.622 156.838 437.934C168.065 444.407 179.303 450.866 190.386 457.678C193.872 459.717 197.37 461.778 200.911 463.849L200.962 463.881C208.236 468.449 215.528 473.034 222.78 477.722C224.887 479.084 226.993 480.459 229.107 481.851L230.496 482.676C233.658 484.575 236.773 486.599 239.887 488.623C316.175 538.211 389.913 594.14 460.401 655.8C522.342 709.97 583.907 770.605 639.405 834.885ZM457.126 1.2179L455.954 0.0405273C367.748 84.2551 286.58 180.039 213.843 285C218.364 287.687 222.792 290.618 227.218 293.542C295.356 187.385 373.411 87.8882 457.126 1.2179ZM512.177 48.3688L509.834 46.014C499.108 56.2537 488.621 66.8781 478.162 77.541C468.544 87.3489 459.07 97.3802 449.738 107.648C449.458 107.944 449.172 108.14 448.91 108.402L448.83 108.481L448.745 108.548C448.486 108.748 448.178 109.221 447.888 109.489L447.768 109.599L447.643 109.633L447.667 109.659C439.306 119.091 430.751 128.252 422.563 137.955C410.797 151.254 399.271 164.856 388.073 178.916C380.095 188.352 372.361 198.067 364.849 208.088C358.505 216.059 352.416 224.3 346.318 232.551C339.978 240.809 333.757 249.193 327.786 257.888C320.841 267.481 314.063 277.226 307.369 287.06C301.673 295.428 295.938 303.758 290.476 312.404C287.256 317.27 284.045 322.111 280.833 326.951L279.915 328.328L278.704 330.281C276.699 333.47 274.621 336.583 272.652 339.803L272.495 340.059C267.911 347.265 263.476 354.592 259.041 361.914L258.94 362.081C256.449 366.045 253.867 369.902 251.534 373.99L251.522 374.014L251.583 374.053L250.355 376.104C241.488 390.92 232.897 405.994 224.4 421.148C233.056 427.017 241.653 433.02 250.208 439.118C254.494 430.747 258.675 422.291 263.113 414.075C267.181 406.119 271.416 398.266 275.512 390.297L276.015 389.32H276.17C278.03 385.676 279.901 382.039 281.871 378.489L282.713 376.972L283.816 374.964C287.423 368.34 291.108 361.78 294.73 355.096C297.058 351.27 299.071 347.231 301.266 343.357C309.992 327.952 319.01 312.814 328.018 297.672C336.394 283.595 345.066 269.799 353.822 256.122C396.045 187.34 459.156 103.033 512.177 48.3688ZM340.663 156.071C350.914 163.601 360.982 171.559 370.534 180.435C382.013 166.016 393.874 152.092 405.758 138.204C394.846 130.536 383.573 123.699 372.162 117.288C361.594 130.125 350.945 142.868 340.663 156.071ZM-13.1171 831.209C-20.217 852.593 -26.9886 874.149 -33.4693 895.84C-19.81 906.688 -5.63747 916.515 8.95923 925.225C13.798 907.075 19.0199 889.092 24.2623 871.124C10.9382 859.163 -1.37169 845.516 -13.1171 831.209ZM-84.8827 342.824C-111.599 333.553 -138.521 325.192 -165.659 318.106C-192.056 382.047 -204.478 452.009 -204.194 523.904C-203.692 650.841 -158.756 765.493 -83.3143 848.859C-74.1995 822.441 -64.6878 796.238 -54.7691 770.28C-94.928 697.435 -114.264 612.203 -114.416 523.904C-114.524 461.432 -104.937 400.071 -84.8827 342.824ZM83.9062 913.718C80.4118 927.638 76.8867 941.552 73.7224 955.599C77.003 956.75 80.2305 958.16 83.6068 959.221C167.335 995.64 260.344 992.203 343.513 955.405C426.514 918.683 499.848 848.96 545.566 753.793C524.141 732.527 502.217 712.071 480.057 692.036C435.667 831.789 334.003 930.689 214.833 947.86L214.743 947.875H214.65C169.69 948.264 125.102 936.213 83.9062 913.718ZM-50.8181 267.614C-44.4348 256.472 -37.5333 245.807 -30.2914 235.528C-54.7435 226.816 -79.4607 219.322 -104.248 212.28C-110.866 220.762 -117.259 229.523 -123.336 238.622C-99.0056 247.639 -74.7964 257.202 -50.8181 267.614ZM16.8477 180.813C35.953 157.736 55.5099 136.801 79.2983 121.622C109.497 102.358 142.283 94.8257 175.906 93.5065C202.535 92.4623 229.021 94.8772 254.561 104.964C274.414 112.806 292.512 124.965 310.989 136.734C320.889 124.857 331.029 113.305 341.153 101.735C329.931 96.7765 318.575 92.2561 307.042 88.5714C247.499 69.5422 184.169 64.1323 123.176 74.0777C61.9718 84.0596 2.42712 109.704 -48.5449 153.905C-26.6055 162.321 -4.80791 171.308 16.8477 180.813ZM589.616 600.794C592.939 575.367 594.92 549.681 594.838 523.897C594.369 374.665 532.278 243.568 434.89 160.741C422.768 176.958 410.953 193.536 399.396 210.389C466.967 289.591 502.305 397.598 504.61 513.002C533.682 541.113 562.048 570.382 589.616 600.794ZM561.434 716.57C570.388 692.945 577.12 668.057 582.501 642.806C556.788 616.119 530.449 590.385 503.509 565.681C501.675 592.46 498.15 619.086 492.562 645.038C515.907 668.283 538.96 692.004 561.434 716.57Z"/>
</mask>
<path d="M145.729 431.746L146.779 429.714C152.138 419.341 157.842 409.26 163.666 399.293L164.501 397.867L165.549 395.823C167.051 392.897 168.582 389.99 170.227 387.186L171.079 385.738L171.153 385.786C179.718 370.944 188.399 356.207 197.194 341.578C191.998 338.613 186.762 335.743 181.477 333.036C172.28 346.313 163.54 360.075 154.844 373.87L153.994 375.217L153.941 375.187C151.577 379.044 149.169 382.868 146.926 386.924C139.938 398.047 133.122 409.262 126.552 420.752L126.501 420.834C123.826 425.043 121.173 429.271 118.773 433.776C26.4738 592.535 -48.5227 767.062 -103.668 950.986L-69.9354 983.623C-47.6983 891.919 -16.2882 796.975 17.1761 710.228C52.4345 618.835 92.6635 530.427 137.883 446.229L138.699 444.71L139.698 442.658C141.313 439.393 143.03 436.204 144.879 433.141L145.729 431.746ZM222.766 495.11C213.26 488.834 203.599 482.934 193.906 477.131C183.121 497.75 172.803 518.745 162.702 539.899C157.382 551.039 152.123 562.224 146.983 573.495C139.201 590.556 131.685 607.802 124.229 625.059C119.762 635.989 115.104 646.823 110.619 657.785L110.515 658.032L110.401 658.251L110.346 658.399L110.274 658.537C110.211 658.657 110.183 658.784 110.168 658.926L110.129 659.306L109.985 659.643C106.029 669.024 102.329 678.569 98.6585 688.128C92.5318 704.076 86.4427 720.048 80.5965 736.162C76.8387 746.52 73.057 756.867 69.5695 767.395C64.6725 781.435 59.9843 795.57 55.4911 809.828C50.341 825.114 45.6682 840.62 40.9491 856.098C28.2031 897.89 16.9742 939.994 6.4603 982.809C1.48299 1003.07 -3.18472 1023.46 -7.60786 1043.92L37.802 1087.86C39.8339 1072.3 42.1498 1056.79 44.9344 1041.46C46.5883 1030.2 48.4715 1018.95 50.7994 1007.86C55.657 981.595 61.1149 956.237 67.192 930.659C71.2217 913.686 75.5952 896.375 80.1227 879.671C84.0002 865.37 87.8743 851.068 92.0922 836.942C96.1356 822.585 100.33 808.272 104.992 794.212C109.47 780.013 114.138 765.889 118.831 751.779C127.257 726.462 136.276 701.462 145.575 676.636C149.437 666.33 153.501 656.144 157.545 645.992C161.337 635.559 165.534 625.328 169.978 615.341C173.222 606.889 176.592 598.444 180.302 590.29C184.321 580.186 188.558 570.148 192.969 560.235C197.337 550.418 201.802 540.668 206.103 530.768C211.654 518.855 217.117 506.911 222.766 495.11ZM248.564 355.133C253.218 347.532 257.876 339.935 262.643 332.443C252.103 325.533 241.615 318.501 230.961 311.809C227.431 309.443 223.868 307.2 220.209 305.054C215.538 301.827 210.824 298.855 206.107 295.901L206.09 295.89L204.947 295.211C201.855 293.349 198.795 291.342 195.552 289.713C180.057 280.275 164.523 271.114 148.861 262.307C133.161 253.477 117.353 244.958 101.469 236.667C81.2345 226.109 60.831 216.048 40.2461 206.612C29.9511 201.892 19.6476 197.199 9.26367 192.801L8.26306 192.378C7.24707 191.946 6.23624 191.504 5.22025 191.067C5.16382 191.044 5.10907 191.02 5.05432 190.994C-9.76813 184.497 -24.6881 178.344 -39.7603 172.721C-40.1981 172.541 -40.6137 172.373 -41.0311 172.204C-51.3312 168.006 -61.6946 164.054 -72.1333 160.346C-82.873 156.243 -93.6862 152.528 -104.508 148.858C-117.29 144.525 -130.103 140.331 -142.984 136.479C-149.865 134.42 -156.736 132.308 -163.623 130.291C-163.726 130.261 -163.827 130.237 -163.93 130.207L-190.152 175.214C-159.014 182.495 -127.948 190.288 -97.066 199.129L-93.9496 200.02L-93.9821 200.059C-69.53 207.106 -45.196 214.832 -21.0842 223.553L-21.062 223.561L-21.0312 223.523L-20.0665 223.871C-2.88884 230.078 14.1777 236.768 31.092 244.032C45.2782 250.125 59.4917 256.124 73.5565 262.599C87.7478 268.736 101.809 275.398 115.78 282.344C125.661 287.256 135.482 292.356 145.344 297.373C156.363 303.264 167.369 309.14 178.425 315.051C178.925 315.364 179.371 315.657 179.823 315.936C180.456 316.2 181.102 316.445 181.703 316.819C183.62 317.625 185.428 318.714 187.26 319.754L189.239 320.877L189.201 320.935C193.243 323.017 197.284 325.103 201.249 327.409C202.407 328.081 203.555 328.775 204.697 329.493L205.939 330.172C209.317 332.037 212.688 333.923 215.959 335.973C226.89 342.111 237.727 348.632 248.564 355.133ZM-217.76 222.614L-254 284.839C-223.144 289.55 -192.451 295.925 -162.002 303.78L-159.647 304.388L-159.66 304.416C-65.2574 329.08 27.0109 367.738 115.704 415.25C122.466 403.551 129.342 391.945 136.351 380.479C74.073 342.496 9.98547 309.168 -55.5063 280.967L-57.6187 280.058L-57.5896 280.007C-81.9819 269.526 -106.59 259.849 -131.344 250.821L-131.372 250.813L-131.387 250.834L-132.466 250.443C-160.69 240.197 -189.139 230.946 -217.76 222.614ZM385.261 424.68C375.913 416.756 366.453 409.103 356.876 401.697C351.208 397.314 345.584 392.828 339.75 388.729C333.832 384.267 328.041 379.609 322.152 375.172L305.26 362.795C301.298 369.82 297.493 376.983 293.531 384.011C294.51 384.628 295.455 385.248 296.335 386.073L296.35 386.084C310.651 395.209 324.714 404.924 338.573 414.958C340.468 416.146 342.4 417.368 344.202 418.786C354.738 426.139 365.157 433.869 375.409 441.771C376.921 442.727 378.447 443.831 379.864 445.015C385.196 448.803 390.479 452.838 395.814 456.804C422.142 477.174 448.04 498.395 473.472 520.455C480.822 526.832 488.146 533.252 495.283 539.906C501.571 545.167 508.094 551.185 514.207 556.771C515.658 558.097 517.082 559.47 518.514 560.828C523.247 565.314 528.002 569.77 532.592 574.385C541.379 582.145 549.782 590.662 558.16 599.135C563.53 604.122 568.836 609.289 573.879 614.759C575.062 615.885 576.282 617.065 577.508 618.263C580.395 621.2 583.199 624.23 586.014 627.242L586.063 626.963L588.217 629.33C589.253 630.471 590.283 631.627 591.238 632.731C592.209 633.64 593.215 634.665 594.292 635.673C601.633 643.418 609.038 650.97 616.11 658.958C627.611 671.048 638.806 683.64 649.891 696.381L652 693.727C640.831 679.973 629.532 666.383 617.985 653.063C616.083 650.671 613.977 648.615 612.113 646.284C608.94 642.58 605.851 638.696 602.501 635.09C597.821 629.433 592.965 624.105 588.128 618.76L587.406 617.961L587.41 617.937L587.393 617.92C586.188 616.588 585.006 615.219 583.813 613.872C579.194 608.66 574.465 603.609 569.739 598.551C564.841 593.304 560.064 587.879 555.192 582.633C548.797 576.082 542.402 569.49 535.952 562.895C533.479 560.093 530.925 557.487 528.447 554.932C527.029 553.746 525.799 552.212 524.456 550.811C518.986 545.434 513.501 540.035 508.034 534.601C507.198 533.77 506.333 532.983 505.488 532.169C504.716 531.423 503.952 530.671 503.182 529.926L502.181 528.961C486.432 513.765 470.296 498.463 454.23 483.92C453.465 483.278 452.716 482.545 451.89 481.853C444.751 475.202 437.427 468.967 430.068 462.704C417.225 450.457 398.886 435.384 385.261 424.68ZM639.405 834.885L642.692 831.05C526.44 687.372 395.877 561.356 254.428 459.154C251.05 456.428 247.636 453.856 244.11 451.493C235.298 445.213 226.469 439.019 217.599 432.926C217.517 432.87 217.435 432.812 217.353 432.756L216.27 432.017C213.261 429.967 210.229 427.971 207.278 425.851C196.677 418.75 186.047 411.645 175.378 404.634C169.015 415.57 162.772 426.622 156.838 437.934C168.065 444.407 179.303 450.866 190.386 457.678C193.872 459.717 197.37 461.778 200.911 463.849L200.962 463.881C208.236 468.449 215.528 473.034 222.78 477.722C224.887 479.084 226.993 480.459 229.107 481.851L230.496 482.676C233.658 484.575 236.773 486.599 239.887 488.623C316.175 538.211 389.913 594.14 460.401 655.8C522.342 709.97 583.907 770.605 639.405 834.885ZM457.126 1.2179L455.954 0.0405273C367.748 84.2551 286.58 180.039 213.843 285C218.364 287.687 222.792 290.618 227.218 293.542C295.356 187.385 373.411 87.8882 457.126 1.2179ZM512.177 48.3688L509.834 46.014C499.108 56.2537 488.621 66.8781 478.162 77.541C468.544 87.3489 459.07 97.3802 449.738 107.648C449.458 107.944 449.172 108.14 448.91 108.402L448.83 108.481L448.745 108.548C448.486 108.748 448.178 109.221 447.888 109.489L447.768 109.599L447.643 109.633L447.667 109.659C439.306 119.091 430.751 128.252 422.563 137.955C410.797 151.254 399.271 164.856 388.073 178.916C380.095 188.352 372.361 198.067 364.849 208.088C358.505 216.059 352.416 224.3 346.318 232.551C339.978 240.809 333.757 249.193 327.786 257.888C320.841 267.481 314.063 277.226 307.369 287.06C301.673 295.428 295.938 303.758 290.476 312.404C287.256 317.27 284.045 322.111 280.833 326.951L279.915 328.328L278.704 330.281C276.699 333.47 274.621 336.583 272.652 339.803L272.495 340.059C267.911 347.265 263.476 354.592 259.041 361.914L258.94 362.081C256.449 366.045 253.867 369.902 251.534 373.99L251.522 374.014L251.583 374.053L250.355 376.104C241.488 390.92 232.897 405.994 224.4 421.148C233.056 427.017 241.653 433.02 250.208 439.118C254.494 430.747 258.675 422.291 263.113 414.075C267.181 406.119 271.416 398.266 275.512 390.297L276.015 389.32H276.17C278.03 385.676 279.901 382.039 281.871 378.489L282.713 376.972L283.816 374.964C287.423 368.34 291.108 361.78 294.73 355.096C297.058 351.27 299.071 347.231 301.266 343.357C309.992 327.952 319.01 312.814 328.018 297.672C336.394 283.595 345.066 269.799 353.822 256.122C396.045 187.34 459.156 103.033 512.177 48.3688ZM340.663 156.071C350.914 163.601 360.982 171.559 370.534 180.435C382.013 166.016 393.874 152.092 405.758 138.204C394.846 130.536 383.573 123.699 372.162 117.288C361.594 130.125 350.945 142.868 340.663 156.071ZM-13.1171 831.209C-20.217 852.593 -26.9886 874.149 -33.4693 895.84C-19.81 906.688 -5.63747 916.515 8.95923 925.225C13.798 907.075 19.0199 889.092 24.2623 871.124C10.9382 859.163 -1.37169 845.516 -13.1171 831.209ZM-84.8827 342.824C-111.599 333.553 -138.521 325.192 -165.659 318.106C-192.056 382.047 -204.478 452.009 -204.194 523.904C-203.692 650.841 -158.756 765.493 -83.3143 848.859C-74.1995 822.441 -64.6878 796.238 -54.7691 770.28C-94.928 697.435 -114.264 612.203 -114.416 523.904C-114.524 461.432 -104.937 400.071 -84.8827 342.824ZM83.9062 913.718C80.4118 927.638 76.8867 941.552 73.7224 955.599C77.003 956.75 80.2305 958.16 83.6068 959.221C167.335 995.64 260.344 992.203 343.513 955.405C426.514 918.683 499.848 848.96 545.566 753.793C524.141 732.527 502.217 712.071 480.057 692.036C435.667 831.789 334.003 930.689 214.833 947.86L214.743 947.875H214.65C169.69 948.264 125.102 936.213 83.9062 913.718ZM-50.8181 267.614C-44.4348 256.472 -37.5333 245.807 -30.2914 235.528C-54.7435 226.816 -79.4607 219.322 -104.248 212.28C-110.866 220.762 -117.259 229.523 -123.336 238.622C-99.0056 247.639 -74.7964 257.202 -50.8181 267.614ZM16.8477 180.813C35.953 157.736 55.5099 136.801 79.2983 121.622C109.497 102.358 142.283 94.8257 175.906 93.5065C202.535 92.4623 229.021 94.8772 254.561 104.964C274.414 112.806 292.512 124.965 310.989 136.734C320.889 124.857 331.029 113.305 341.153 101.735C329.931 96.7765 318.575 92.2561 307.042 88.5714C247.499 69.5422 184.169 64.1323 123.176 74.0777C61.9718 84.0596 2.42712 109.704 -48.5449 153.905C-26.6055 162.321 -4.80791 171.308 16.8477 180.813ZM589.616 600.794C592.939 575.367 594.92 549.681 594.838 523.897C594.369 374.665 532.278 243.568 434.89 160.741C422.768 176.958 410.953 193.536 399.396 210.389C466.967 289.591 502.305 397.598 504.61 513.002C533.682 541.113 562.048 570.382 589.616 600.794ZM561.434 716.57C570.388 692.945 577.12 668.057 582.501 642.806C556.788 616.119 530.449 590.385 503.509 565.681C501.675 592.46 498.15 619.086 492.562 645.038C515.907 668.283 538.96 692.004 561.434 716.57Z" stroke="#A05428" stroke-width="2" mask="url(#path-1-inside-1_56_9)"/>
</g>
</svg>
