<svg width="351" height="143" viewBox="0 0 351 143" fill="none" xmlns="http://www.w3.org/2000/svg">
<path d="M87.8188 0.359375C90.1 0.515625 91.7094 1.35937 92.6469 2.89062C93.5844 4.39062 94.0844 6.17188 94.1469 8.23438C94.2094 10.2969 94.1 12.2031 93.8188 13.9531C92.6625 20.9219 91.0688 27.7656 89.0375 34.4844C88.9125 34.9219 88.7875 35.375 88.6625 35.8438C87.475 40 86.2719 44.1562 85.0531 48.3125C82.6469 56.375 80.35 64.4531 78.1625 72.5469C78.7563 72.6094 79.3344 72.6719 79.8969 72.7344C80.3656 72.8594 80.6469 73.1094 80.7406 73.4844C80.8656 73.8281 80.8188 74.1562 80.6 74.4688C80.3813 74.7812 80.0375 74.9062 79.5688 74.8438C78.9125 74.7188 78.2719 74.6094 77.6469 74.5156C76.5219 78.7031 75.475 82.9219 74.5063 87.1719C72.725 94.9844 71.3344 102.891 70.3344 110.891C69.3344 118.922 69.5531 126.906 70.9906 134.844C71.3031 136.219 71.6938 137.547 72.1625 138.828C72.3813 139.484 72.3656 140.094 72.1156 140.656C71.8656 141.219 71.4281 141.625 70.8031 141.875C70.1469 142.094 69.5219 142.047 68.9281 141.734C68.3344 141.453 67.9281 140.969 67.7094 140.281C67.3031 138.75 66.975 137.203 66.725 135.641C66.0063 130.391 65.8656 125.109 66.3031 119.797C66.7406 114.516 67.4281 109.281 68.3656 104.094C70.2406 94 72.5219 84 75.2094 74.0938C64.2406 72.3438 53.1781 71.5781 42.0219 71.7969C35.8344 80.5781 29.9281 88.9375 24.3031 96.875C18.7094 104.812 14.0844 111.359 10.4281 116.516C6.80313 121.703 4.99063 124.297 4.99063 124.297C4.33438 125.078 3.60001 125.391 2.78751 125.234C2.00626 125.109 1.41251 124.688 1.00626 123.969C0.600006 123.281 0.662506 122.484 1.19376 121.578C1.47501 121.141 4.99063 116.141 11.7406 106.578C18.4906 97.0156 26.6313 85.4688 36.1625 71.9375C34.0063 72.0312 31.85 72.1562 29.6938 72.3125C22.6938 72.8125 15.8188 74.0781 9.06876 76.1094C7.94376 76.3594 7.10001 76.1406 6.53751 75.4531C6.00626 74.7656 5.83438 74 6.02188 73.1562C6.24063 72.2812 6.92813 71.7344 8.08438 71.5156C17.8969 70.5156 27.725 70 37.5688 69.9688C41.35 64.5625 45.1469 59.1562 48.9594 53.75C58.9281 39.625 67.4906 27.4844 74.6469 17.3281C81.8344 7.14063 85.6 1.79688 85.9438 1.29688C86.4438 0.671875 87.0688 0.359375 87.8188 0.359375ZM85.85 35.0469C85.9125 34.8281 85.9906 34.5312 86.0844 34.1562C86.6156 32.0938 87.3344 28.9844 88.2406 24.8281C89.1469 20.6719 89.7563 16.6719 90.0688 12.8281C90.4125 8.98438 90.0063 6.5 88.85 5.375C87.9125 6.65625 83.0063 13.5937 74.1313 26.1875C65.2563 38.7812 54.975 53.3906 43.2875 70.0156C54.1313 70.1719 64.9438 70.9062 75.725 72.2188C77.0688 67.25 78.4281 62.2969 79.8031 57.3594C81.8969 49.9531 83.9125 42.5156 85.85 35.0469ZM100.503 68.3281C100.722 68.4844 100.988 68.5781 101.3 68.6094C101.644 68.6406 102.003 68.6562 102.378 68.6562C102.784 68.625 103.128 68.6406 103.409 68.7031C103.722 68.7344 103.894 68.875 103.925 69.125C103.8 69.5 103.441 69.7656 102.847 69.9219C102.284 70.0469 101.675 70.0938 101.019 70.0625C100.363 70.0312 99.8469 69.9375 99.4719 69.7812C98.4719 69.2812 97.7688 68.5938 97.3625 67.7188C96.9563 66.8125 96.7688 65.8281 96.8 64.7656C93.6438 67.4844 90.9094 70.6094 88.5969 74.1406C86.3156 77.6719 84.3625 81.3438 82.7375 85.1562C82.6438 85.4062 82.4875 85.5938 82.2688 85.7188C82.0188 85.8438 81.7531 85.8438 81.4719 85.7188C81.2219 85.5938 81.0656 85.3906 81.0031 85.1094C80.9094 84.8594 80.8625 84.5938 80.8625 84.3125C80.8625 84.0312 80.8313 83.7812 80.7688 83.5625C80.3938 77.4062 81.7531 71.6719 84.8469 66.3594C85.2844 65.7344 85.8156 65.4531 86.4406 65.5156C87.0656 65.5781 87.5813 65.8594 87.9875 66.3594C88.3938 66.8594 88.4406 67.4531 88.1281 68.1406C87.3156 69.7656 86.6594 71.4219 86.1594 73.1094C89.2531 67.4219 93.3938 62.6562 98.5813 58.8125C99.1438 58.4375 99.6906 58.3594 100.222 58.5781C100.784 58.7969 101.175 59.1719 101.394 59.7031C101.644 60.2344 101.566 60.7812 101.159 61.3438C100.503 62.3438 99.9719 63.5469 99.5656 64.9531C99.1594 66.3594 99.4719 67.4844 100.503 68.3281ZM169.953 65.9844C170.109 66.1406 170.188 66.3281 170.188 66.5469C170.219 66.7344 170.156 66.9062 170 67.0625C168.75 68.3125 167.484 69.5156 166.203 70.6719C165.922 70.9219 165.641 71.1719 165.359 71.4219C163.547 73.0469 161.609 74.5781 159.547 76.0156C157.516 77.4531 155.312 78.4375 152.938 78.9688C151.438 79.1875 150.047 78.875 148.766 78.0312C147.516 77.1562 146.641 76.0156 146.141 74.6094C145.422 72.1094 145.422 69.625 146.141 67.1562C144.016 68.625 141.906 70.25 139.812 72.0312C137.719 73.8125 135.906 75.7031 134.375 77.7031C133.438 80.3906 132.453 83.0312 131.422 85.625C131.328 85.9688 131.141 86.1719 130.859 86.2344C130.578 86.3281 130.312 86.2969 130.062 86.1406C129.812 86.0156 129.672 85.7812 129.641 85.4375C129.484 82.6875 130.125 80.1406 131.562 77.7969C132.938 72.6094 134.484 67.4688 136.203 62.375C137.297 59.375 138.453 56.3125 139.672 53.1875C133.547 62.75 126.047 71.0781 117.172 78.1719C116.953 78.3281 116.719 78.5 116.469 78.6875C115.125 79.7188 113.578 80.8125 111.828 81.9688C110.078 83.125 108.281 84.0469 106.438 84.7344C104.594 85.4219 102.844 85.5781 101.188 85.2031C99.1875 84.2656 98.2656 82.6875 98.4219 80.4688C98.5469 78.2188 99.1719 75.9062 100.297 73.5312C101.422 71.1562 102.453 69.3125 103.391 68C104.141 66.8438 105.109 65.6094 106.297 64.2969C107.516 62.9844 108.844 61.9844 110.281 61.2969C111.75 60.6094 113.25 60.6562 114.781 61.4375C115.406 61.9688 115.672 62.5469 115.578 63.1719C115.516 63.7969 115.203 64.2812 114.641 64.625C114.109 64.9688 113.484 64.9688 112.766 64.625C111.641 64.75 110.469 65.4531 109.25 66.7344C108.062 68.0156 107.109 69.1406 106.391 70.1094C105.203 71.7344 104.141 73.4531 103.203 75.2656C102.266 77.0781 101.609 78.9688 101.234 80.9375C101.234 81 101.219 81.0781 101.188 81.1719C101.094 81.6719 101.062 82.1562 101.094 82.625C101.094 83.0938 101.312 83.4688 101.75 83.75C102.562 84.0312 103.406 84.0781 104.281 83.8906C105.125 83.7344 105.953 83.5 106.766 83.1875C106.766 83.1875 106.781 83.1875 106.812 83.1875C111.094 81.25 115.531 78.2031 120.125 74.0469C124.75 69.8906 129 65.3594 132.875 60.4531C136.781 55.5469 139.844 51 142.062 46.8125C142.188 46.5312 142.328 46.25 142.484 45.9688C142.484 45.9375 142.484 45.9219 142.484 45.9219C142.516 45.8906 142.531 45.8594 142.531 45.8281C142.531 45.7969 142.547 45.75 142.578 45.6875C143.266 43.9062 143.969 42.125 144.688 40.3438C145.062 39.625 145.562 39.25 146.188 39.2188C146.844 39.1562 147.391 39.3594 147.828 39.8281C148.297 40.2969 148.406 40.9219 148.156 41.7031C146.688 45.6094 145.125 49.5312 143.469 53.4688C142.094 56.8438 140.75 60.2031 139.438 63.5469C138.5 66.0156 137.594 68.5312 136.719 71.0938C138.625 69.125 140.641 67.2812 142.766 65.5625C144.828 63.8438 146.922 62.2188 149.047 60.6875C149.484 60.375 149.938 60.2656 150.406 60.3594C150.906 60.4219 151.312 60.6562 151.625 61.0625C152.125 61.8438 152.125 62.5938 151.625 63.3125C150.531 64.4688 149.625 65.7812 148.906 67.25C147.969 69 147.531 70.8906 147.594 72.9219C147.656 74.9531 148.641 76.4844 150.547 77.5156C152.453 78.0469 154.406 77.7812 156.406 76.7188C158.406 75.6562 160.156 74.5156 161.656 73.2969C163 72.2344 164.281 71.0938 165.5 69.875C166.719 68.6875 167.859 67.4375 168.922 66.125C169.078 65.9688 169.25 65.875 169.438 65.8438C169.625 65.8125 169.797 65.8594 169.953 65.9844ZM166.466 61.0625C165.684 61.0312 165.122 60.6875 164.778 60.0312C164.434 59.375 164.481 58.7188 164.919 58.0625C165.294 57.4688 165.731 57.0625 166.231 56.8438C166.763 56.5938 167.356 56.6719 168.013 57.0781C168.419 57.3906 168.653 57.7969 168.716 58.2969C168.809 58.7969 168.7 59.2656 168.388 59.7031C168.169 60.0781 167.888 60.4062 167.544 60.6875C167.231 60.9375 166.872 61.0625 166.466 61.0625ZM212.825 65.5156C213.106 65.5469 213.278 65.6719 213.341 65.8906C213.434 66.1094 213.419 66.3125 213.294 66.5C213.2 66.6875 213.013 66.7812 212.731 66.7812C211.263 66.5312 209.778 66.375 208.278 66.3125C203.872 66.0625 199.466 66 195.059 66.125C194.153 66.1562 193.247 66.1875 192.341 66.2188C191.184 69.375 190.028 72.5469 188.872 75.7344C188.903 76.0469 188.934 76.3594 188.966 76.6719C189.153 79.4219 188.716 82.2031 187.653 85.0156C186.622 87.8594 185.106 90.25 183.106 92.1875C182.731 92.5 182.325 92.5469 181.888 92.3281C181.481 92.1406 181.263 91.7969 181.231 91.2969C181.231 91.2969 181.231 91.2812 181.231 91.25C181.231 91.2188 181.231 91.1719 181.231 91.1094C181.231 91.0469 181.231 90.9844 181.231 90.9219C181.231 90.8594 181.231 90.8125 181.231 90.7812C181.231 90.75 181.231 90.7344 181.231 90.7344C181.794 88.4219 182.434 86.1562 183.153 83.9375C184.309 80.0938 185.544 76.2812 186.856 72.5C185.763 70.4375 183.903 69.0625 181.278 68.375C181.216 68.3438 181.153 68.3281 181.091 68.3281C181.059 68.2969 181.028 68.2812 180.997 68.2812C176.466 72.6562 172.528 75.875 169.184 77.9375C168.966 78.0625 168.716 78.2031 168.434 78.3594C167.247 79.1094 165.919 79.7344 164.45 80.2344C162.981 80.7344 161.778 80.4219 160.841 79.2969C159.934 77.3906 159.841 75.0469 160.559 72.2656C161.247 69.4531 162.231 67.2188 163.513 65.5625C164.075 64.9688 164.669 64.75 165.294 64.9062C165.919 65.0625 166.372 65.4375 166.653 66.0312C166.966 66.5938 166.888 67.2188 166.419 67.9062C165.419 69.3125 164.559 70.9688 163.841 72.875C163.153 74.75 162.872 76.5469 162.997 78.2656C162.997 78.2969 163.013 78.3438 163.044 78.4062C163.075 78.4375 163.122 78.4531 163.184 78.4531C165.466 78.3906 167.903 77.4688 170.497 75.6875C173.091 73.875 175.356 72.1094 177.294 70.3906C177.638 70.1094 177.95 69.8438 178.231 69.5938C178.763 69.0938 179.309 68.5781 179.872 68.0469C179.059 67.9531 178.231 67.8906 177.388 67.8594C177.169 67.8594 177.013 67.7812 176.919 67.625C176.825 67.4375 176.794 67.25 176.825 67.0625C176.888 66.875 177.028 66.75 177.247 66.6875C178.716 66.3438 180.2 66.0781 181.7 65.8906C181.794 65.8906 181.872 65.8906 181.934 65.8906C182.028 65.8906 182.106 65.875 182.169 65.8438C186.575 61.6875 190.45 57.1094 193.794 52.1094C194.638 49.5469 195.434 46.9844 196.184 44.4219C196.216 44.2656 196.247 44.125 196.278 44C196.872 42 197.309 39.9844 197.591 37.9531C197.716 37.1406 198.091 36.625 198.716 36.4062C199.341 36.1875 199.934 36.25 200.497 36.5938C201.059 36.9062 201.341 37.4844 201.341 38.3281C200.653 42.2344 199.622 46.0469 198.247 49.7656C197.966 50.5469 197.7 51.3281 197.45 52.1094C195.95 56.4531 194.388 60.7969 192.763 65.1406C199.45 64.9219 206.138 65.0469 212.825 65.5156ZM192.856 54.9688C190.138 58.625 187.059 62.2031 183.622 65.7031C185.528 65.5156 187.434 65.375 189.341 65.2812C190.528 61.8438 191.7 58.4062 192.856 54.9688ZM187.888 80.6562C188.075 79.6875 188.169 78.7188 188.169 77.75C186.981 81.0938 185.872 84.4531 184.841 87.8281C185.653 86.7969 186.294 85.625 186.763 84.3125C187.263 83.0312 187.638 81.8125 187.888 80.6562ZM187.231 71.4219C187.794 69.7344 188.372 68.0469 188.966 66.3594C186.747 66.4844 184.528 66.7031 182.309 67.0156C182.153 67.1719 181.997 67.3281 181.841 67.4844C184.122 68.2656 185.919 69.5781 187.231 71.4219ZM237.603 66.125C237.916 66.5 237.869 66.9219 237.463 67.3906C237.088 67.8594 236.634 68.3125 236.103 68.75C235.728 69.0625 235.463 69.3125 235.306 69.5C234.119 70.5625 232.15 71.9688 229.4 73.7188C226.65 75.4688 223.634 77.0938 220.353 78.5938C217.072 80.0938 214.072 81 211.353 81.3125C208.634 81.625 206.728 80.8906 205.634 79.1094C204.603 76.4844 204.384 73.75 204.978 70.9062C205.541 68.0312 206.666 65.4844 208.353 63.2656C209.353 62.0781 210.556 61.4219 211.963 61.2969C213.369 61.1719 214.244 62.0156 214.588 63.8281C214.806 64.7344 214.541 65.7344 213.791 66.8281C213.041 67.8906 212.103 68.875 210.978 69.7812C209.884 70.6875 208.931 71.3125 208.119 71.6562C207.744 73.625 207.634 75.2969 207.791 76.6719C208.041 78.6719 209.228 79.6406 211.353 79.5781C213.509 79.5156 216.009 78.9062 218.853 77.75C221.728 76.5625 224.4 75.2656 226.869 73.8594C229.338 72.4531 231.041 71.3906 231.978 70.6719C233.759 69.4219 235.338 67.9531 236.713 66.2656C236.838 66.1094 236.978 66.0312 237.134 66.0312C237.322 66 237.478 66.0312 237.603 66.125ZM211.681 64.8125C210.275 65.7812 209.259 67.375 208.634 69.5938C209.416 68.875 210.134 68.0781 210.791 67.2031C211.447 66.2969 211.744 65.5 211.681 64.8125ZM261.819 66.7812C261.975 66.625 262.131 66.5781 262.288 66.6406C262.475 66.7031 262.6 66.8125 262.663 66.9688C262.725 67.125 262.694 67.2969 262.569 67.4844C260.006 69.9531 256.803 72.6562 252.959 75.5938C249.116 78.5312 245.084 81.0312 240.866 83.0938C236.678 85.1562 232.788 86.1094 229.194 85.9531C226.725 85.4531 225.397 84.1562 225.209 82.0625C224.991 79.9375 225.475 77.5312 226.663 74.8438C227.85 72.1562 229.288 69.6875 230.975 67.4375C232.663 65.1562 234.147 63.5938 235.428 62.75C236.272 62.125 237.241 61.6875 238.334 61.4375C239.459 61.1875 240.522 61.375 241.522 62C242.147 62.4688 242.413 63.0312 242.319 63.6875C242.225 64.3125 241.897 64.8125 241.334 65.1875C240.803 65.5312 240.194 65.5312 239.506 65.1875C237.975 65.5625 236.475 66.5625 235.006 68.1875C233.569 69.8125 232.288 71.625 231.163 73.625C230.038 75.625 229.209 77.3438 228.678 78.7812C228.584 79.0938 228.491 79.4219 228.397 79.7656C228.022 80.7969 227.819 81.8125 227.788 82.8125C227.756 83.7812 228.303 84.3594 229.428 84.5469C232.772 84.7656 235.991 84.1875 239.084 82.8125C242.178 81.4062 245.116 79.8125 247.897 78.0312C248.178 77.8438 248.444 77.6719 248.694 77.5156C252.288 75.2031 255.663 72.625 258.819 69.7812C259.881 68.8438 260.881 67.8438 261.819 66.7812ZM291.753 52.625C292.503 53.1562 292.8 53.7969 292.644 54.5469C292.519 55.2969 292.128 55.875 291.472 56.2812C290.847 56.6562 290.144 56.5625 289.362 56C288.581 54.8438 287.487 54.0938 286.081 53.75C284.706 53.375 283.284 53.1562 281.816 53.0938C281.253 53.0625 280.706 53.0156 280.175 52.9531C275.081 52.7656 269.972 52.8906 264.847 53.3281C263.128 58.3594 261.3 63.375 259.362 68.375C259.081 69.1562 258.784 69.9531 258.472 70.7656C258.097 75.0156 257.331 78.8594 256.175 82.2969C255.956 82.9531 255.722 83.6094 255.472 84.2656C254.941 85.8594 254.316 87.4062 253.597 88.9062C252.847 90.4375 251.847 91.7812 250.597 92.9375C250.066 93.2188 249.597 93.2031 249.191 92.8906C248.784 92.5781 248.644 92.1406 248.769 91.5781C251.112 83.0781 253.8 74.6406 256.831 66.2656C257.019 65.7344 257.206 65.2031 257.394 64.6719C257.081 62.6406 256.425 60.8594 255.425 59.3281C254.425 57.7656 252.925 56.6875 250.925 56.0938C250.581 55.9375 250.112 55.8594 249.519 55.8594C249.081 55.8594 248.691 55.8281 248.347 55.7656C248.003 55.6719 247.831 55.4531 247.831 55.1094C247.862 54.9844 247.925 54.875 248.019 54.7812C248.112 54.6562 248.222 54.5781 248.347 54.5469C251.909 53.7031 255.472 53.0156 259.034 52.4844C259.816 52.3906 260.675 52.2812 261.612 52.1562C261.612 52.125 261.628 52.0781 261.659 52.0156C261.691 51.9531 261.706 51.8906 261.706 51.8281C261.956 51.0781 262.191 50.3281 262.409 49.5781C263.628 46.0469 264.534 42.4844 265.128 38.8906C265.222 38.0781 265.581 37.5469 266.206 37.2969C266.862 37.0156 267.472 37.0156 268.034 37.2969C268.628 37.5469 268.909 38.0938 268.878 38.9375C267.941 43.2188 266.784 47.4688 265.409 51.6875C268.472 51.25 271.691 50.9062 275.066 50.6562C278.472 50.375 281.659 50.3594 284.628 50.6094C287.597 50.8594 289.972 51.5312 291.753 52.625ZM252.566 87.6875C253.784 85.8438 254.769 83.7188 255.519 81.3125C256.237 78.875 256.769 76.5625 257.112 74.375C255.456 78.7812 253.941 83.2188 252.566 87.6875ZM257.956 62.9844C259.05 59.8906 260.097 56.7969 261.097 53.7031C257.909 54.0781 254.722 54.5625 251.534 55.1562C253.316 55.8125 254.737 56.8281 255.8 58.2031C256.831 59.5469 257.55 61.1406 257.956 62.9844ZM270.594 68.7031C270.594 68.7344 270.578 68.75 270.547 68.75C270.578 68.75 270.594 68.7344 270.594 68.7031ZM303.5 66.2656C304.469 65.9844 304.875 66.0938 304.719 66.5938C304.562 67.0625 304.062 67.7656 303.219 68.7031C302.375 69.6094 301.406 70.5625 300.312 71.5625C299.219 72.5312 298.234 73.3906 297.359 74.1406C296.516 74.8594 296 75.2812 295.812 75.4062C295.094 75.9375 294.359 76.5 293.609 77.0938C291.734 78.5938 289.781 79.9688 287.75 81.2188C285.719 82.4375 283.516 83.1875 281.141 83.4688C279.359 83.25 278.156 82.5156 277.531 81.2656C276.906 80.0156 276.641 78.5625 276.734 76.9062C276.828 75.25 277.062 73.6875 277.438 72.2188C275.906 74.0938 274.188 75.7812 272.281 77.2812C270.406 78.4062 268.922 78.625 267.828 77.9375C266.734 77.25 266.047 76.1094 265.766 74.5156C265.484 72.9219 265.625 71.3281 266.188 69.7344C266.688 67.8281 267.312 66.5781 268.062 65.9844C268.844 65.3906 269.547 65.2188 270.172 65.4688C270.828 65.7188 271.219 66.1875 271.344 66.875C271.5 67.5312 271.188 68.1875 270.406 68.8438C270.438 68.8438 270.469 68.8438 270.5 68.8438C270.531 68.8125 270.547 68.7812 270.547 68.75C270.516 68.7812 270.484 68.8281 270.453 68.8906C269.859 69.8906 269.344 71.0469 268.906 72.3594C268.5 73.6406 268.531 74.8281 269 75.9219C269.719 76.2344 270.547 76 271.484 75.2188C272.422 74.4062 273.344 73.3906 274.25 72.1719C275.156 70.9219 275.938 69.7969 276.594 68.7969C276.969 68.2344 277.266 67.7969 277.484 67.4844C277.734 67.1406 277.984 66.75 278.234 66.3125C278.766 65.2812 279.453 64.4688 280.297 63.875C280.859 63.5312 281.391 63.4844 281.891 63.7344C282.422 63.9531 282.781 64.3438 282.969 64.9062C283.156 65.4375 283.047 65.9531 282.641 66.4531C282.516 66.6094 282.406 66.75 282.312 66.875C282.281 66.875 282.266 66.875 282.266 66.875L282.312 66.9219C282.281 66.9531 282.234 67 282.172 67.0625C282.141 67.0938 282.125 67.125 282.125 67.1562C281.688 67.7188 281.312 68.2969 281 68.8906C279.625 71.4844 278.797 74.2344 278.516 77.1406C278.453 80.5156 279.516 82.1094 281.703 81.9219C283.922 81.7344 286.578 80.5781 289.672 78.4531C292.797 76.3281 295.688 74.0469 298.344 71.6094C301 69.1719 302.719 67.3906 303.5 66.2656ZM314.216 68.3281C314.434 68.4844 314.7 68.5781 315.013 68.6094C315.356 68.6406 315.716 68.6562 316.091 68.6562C316.497 68.625 316.841 68.6406 317.122 68.7031C317.434 68.7344 317.606 68.875 317.638 69.125C317.513 69.5 317.153 69.7656 316.559 69.9219C315.997 70.0469 315.388 70.0938 314.731 70.0625C314.075 70.0312 313.559 69.9375 313.184 69.7812C312.184 69.2812 311.481 68.5938 311.075 67.7188C310.669 66.8125 310.481 65.8281 310.513 64.7656C307.356 67.4844 304.622 70.6094 302.309 74.1406C300.028 77.6719 298.075 81.3438 296.45 85.1562C296.356 85.4062 296.2 85.5938 295.981 85.7188C295.731 85.8438 295.466 85.8438 295.184 85.7188C294.934 85.5938 294.778 85.3906 294.716 85.1094C294.622 84.8594 294.575 84.5938 294.575 84.3125C294.575 84.0312 294.544 83.7812 294.481 83.5625C294.106 77.4062 295.466 71.6719 298.559 66.3594C298.997 65.7344 299.528 65.4531 300.153 65.5156C300.778 65.5781 301.294 65.8594 301.7 66.3594C302.106 66.8594 302.153 67.4531 301.841 68.1406C301.028 69.7656 300.372 71.4219 299.872 73.1094C302.966 67.4219 307.106 62.6562 312.294 58.8125C312.856 58.4375 313.403 58.3594 313.934 58.5781C314.497 58.7969 314.888 59.1719 315.106 59.7031C315.356 60.2344 315.278 60.7812 314.872 61.3438C314.216 62.3438 313.684 63.5469 313.278 64.9531C312.872 66.3594 313.184 67.4844 314.216 68.3281ZM349.634 66.125C349.947 66.5 349.9 66.9219 349.494 67.3906C349.119 67.8594 348.666 68.3125 348.134 68.75C347.759 69.0625 347.494 69.3125 347.337 69.5C346.15 70.5625 344.181 71.9688 341.431 73.7188C338.681 75.4688 335.666 77.0938 332.384 78.5938C329.103 80.0938 326.103 81 323.384 81.3125C320.666 81.625 318.759 80.8906 317.666 79.1094C316.634 76.4844 316.416 73.75 317.009 70.9062C317.572 68.0312 318.697 65.4844 320.384 63.2656C321.384 62.0781 322.587 61.4219 323.994 61.2969C325.4 61.1719 326.275 62.0156 326.619 63.8281C326.837 64.7344 326.572 65.7344 325.822 66.8281C325.072 67.8906 324.134 68.875 323.009 69.7812C321.916 70.6875 320.962 71.3125 320.15 71.6562C319.775 73.625 319.666 75.2969 319.822 76.6719C320.072 78.6719 321.259 79.6406 323.384 79.5781C325.541 79.5156 328.041 78.9062 330.884 77.75C333.759 76.5625 336.431 75.2656 338.9 73.8594C341.369 72.4531 343.072 71.3906 344.009 70.6719C345.791 69.4219 347.369 67.9531 348.744 66.2656C348.869 66.1094 349.009 66.0312 349.166 66.0312C349.353 66 349.509 66.0312 349.634 66.125ZM323.712 64.8125C322.306 65.7812 321.291 67.375 320.666 69.5938C321.447 68.875 322.166 68.0781 322.822 67.2031C323.478 66.2969 323.775 65.5 323.712 64.8125Z" fill="#A05428"/>
</svg>
