<svg width="32" height="32" viewBox="0 0 32 32" fill="none" xmlns="http://www.w3.org/2000/svg">
<rect x="0.25" y="0.25" width="31.5" height="31.5" rx="15.75" fill="#FDFBF6"/>
<rect x="0.25" y="0.25" width="31.5" height="31.5" rx="15.75" stroke="url(#paint0_linear_148_480)" stroke-width="0.5"/>
<path opacity="0.5" d="M15.0784 24.3333H16.9218C19.7939 24.3333 21.23 24.3333 22.2092 23.4902C23.1884 22.647 23.3915 21.2356 23.7977 18.4127L24.03 16.7982C24.3462 14.6007 24.5043 13.5019 24.0539 12.5625C23.6036 11.623 22.6449 11.052 20.7277 9.90985L20.7277 9.90985L19.5736 9.2224C17.8325 8.18525 16.962 7.66667 16.0001 7.66667C15.0382 7.66667 14.1676 8.18525 12.4265 9.2224L11.2725 9.90985L11.2725 9.90985C9.35524 11.052 8.3966 11.623 7.94622 12.5625C7.49584 13.5019 7.65394 14.6007 7.97014 16.7982L8.20245 18.4127C8.60863 21.2355 8.81172 22.647 9.79094 23.4902C10.7702 24.3333 12.2062 24.3333 15.0784 24.3333Z" fill="#6D3018"/>
<path d="M13.8722 18.8313C13.5949 18.6257 13.2035 18.6839 12.9979 18.9612C12.7924 19.2385 12.8506 19.6299 13.1279 19.8355C13.9382 20.4361 14.9292 20.7917 16 20.7917C17.0708 20.7917 18.0619 20.4361 18.8722 19.8355C19.1495 19.6299 19.2077 19.2385 19.0021 18.9612C18.7966 18.6839 18.4052 18.6257 18.1279 18.8313C17.5209 19.2812 16.7883 19.5417 16 19.5417C15.2118 19.5417 14.4792 19.2812 13.8722 18.8313Z" fill="#FDFBF6"/>
<defs>
<linearGradient id="paint0_linear_148_480" x1="36.5" y1="-5" x2="-2.5" y2="36.5" gradientUnits="userSpaceOnUse">
<stop stop-color="#CC9A4F"/>
<stop offset="1" stop-color="#664D28"/>
</linearGradient>
</defs>
</svg>
