<svg width="278" height="130" viewBox="0 0 278 130" fill="none" xmlns="http://www.w3.org/2000/svg">
<path d="M91.4531 81.4531C91.6719 80.1719 92.2344 79.4219 93.1406 79.2031C94.0781 78.9844 94.9062 79.1875 95.625 79.8125C96.3438 80.4688 96.4844 81.4062 96.0469 82.625C92.7031 88.2188 88.2188 93.8125 82.5938 99.4062C77 105 70.7344 110.094 63.7969 114.688C56.8906 119.281 49.7969 122.859 42.5156 125.422C35.2344 128.016 28.2344 129.078 21.5156 128.609C18.2656 128.328 15.125 127.578 12.0938 126.359C8.3125 124.828 5.625 122.391 4.03125 119.047C2.4375 115.703 1.5625 112.109 1.40625 108.266C1.03125 101.453 1.70312 94.75 3.42188 88.1562C5.14062 81.5938 7.54688 75.3125 10.6406 69.3125C16.7656 57.4375 24.0469 46.2969 32.4844 35.8906C40.9531 25.4844 50.625 16.3594 61.5 8.51562C64.625 6.32812 68.0312 4.375 71.7188 2.65625C75.4375 0.9375 79.25 0.328125 83.1562 0.828125C84.625 1.10938 85.9531 1.73437 87.1406 2.70312C88.3594 3.64062 89.25 4.8125 89.8125 6.21875C90.375 7.96875 90.5625 9.75 90.375 11.5625C90.2188 13.375 89.9062 15.1406 89.4375 16.8594C85.9688 30.0469 79.8281 41.9062 71.0156 52.4375C70.5781 52.9375 70.0469 53.2188 69.4219 53.2812C68.7969 53.3125 68.2188 53.125 67.6875 52.7188C67.1562 52.25 66.875 51.6875 66.8438 51.0312C66.8125 50.375 67.0469 49.7812 67.5469 49.25C72.5469 44.0938 76.7656 38.2969 80.2031 31.8594C83.6719 25.4219 86.0469 18.6406 87.3281 11.5156C87.4844 10.0781 87.3438 8.67187 86.9062 7.29688C85.9375 5.39062 84.5469 4.26562 82.7344 3.92188C80.9531 3.57813 79.0625 3.70312 77.0625 4.29688C75.0625 4.85938 73.2812 5.5625 71.7188 6.40625C65.5938 9.84375 59.6719 14.2188 53.9531 19.5312C48.2344 24.8437 42.875 30.5625 37.875 36.6875C32.875 42.7812 28.3906 48.7188 24.4219 54.5C20.5781 60.2188 17.0469 66.2188 13.8281 72.5C10.6094 78.7812 8.1875 85.2812 6.5625 92C4.96875 98.75 4.65625 105.641 5.625 112.672C5.96875 114.641 6.60938 116.484 7.54688 118.203C8.51562 119.953 9.85938 121.359 11.5781 122.422C13.3906 123.359 15.2656 124.078 17.2031 124.578C22.8906 125.891 28.6406 125.922 34.4531 124.672C40.2969 123.422 45.9375 121.422 51.375 118.672C56.8438 115.922 61.875 112.922 66.4688 109.672C69.1875 107.703 72.4062 105.141 76.125 101.984C79.875 98.8281 83.2344 95.4375 86.2031 91.8125C89.2031 88.1875 90.9531 84.7344 91.4531 81.4531ZM175.762 57.2656C175.856 57.3594 175.903 57.4844 175.903 57.6406C175.903 57.7656 175.856 57.8906 175.762 58.0156C174.356 59.2656 172.856 60.3594 171.262 61.2969C168.012 63.1719 164.528 64.375 160.809 64.9062C159.747 65.0625 158.762 65.0469 157.856 64.8594C156.95 64.6719 156.153 64.1406 155.466 63.2656C154.841 62.5156 154.294 61.75 153.825 60.9688C153.762 60.8438 153.7 60.7188 153.637 60.5938C153.325 60.0312 152.95 59.5 152.512 59C152.075 58.4688 151.544 58.1875 150.919 58.1562C149.887 58.8438 149.012 59.7344 148.294 60.8281C148.137 61.0469 147.981 61.2656 147.825 61.4844C147.325 62.1406 146.825 62.8125 146.325 63.5C145.231 65.1875 143.95 66.7344 142.481 68.1406C141.325 68.7656 140.419 68.5781 139.762 67.5781C139.137 66.5781 138.684 65.1406 138.403 63.2656C138.153 61.3906 138.028 59.4375 138.028 57.4062C136.278 59.6875 134.559 62 132.872 64.3438C131.372 66.4062 129.856 68.4688 128.325 70.5312C128.075 70.875 127.825 71.2031 127.575 71.5156C126.731 72.7031 125.825 73.8438 124.856 74.9375C124.825 74.9688 124.794 75 124.762 75.0312C124.669 75.0938 124.575 75.1562 124.481 75.2188C124.419 75.3125 124.309 75.375 124.153 75.4062C123.934 75.4688 123.716 75.4375 123.497 75.3125C123.278 75.1875 123.153 75.0156 123.122 74.7969C123.091 74.2656 123.153 73.7656 123.309 73.2969C123.341 73.2031 123.356 73.1094 123.356 73.0156C123.95 71.1094 124.669 69.2344 125.512 67.3906C126.512 65.3281 127.294 63.1875 127.856 60.9688C128.044 60.0625 128.012 59.2812 127.762 58.625C127.137 57.5938 125.45 56.8125 122.7 56.2812C119.981 55.7188 116.95 55.3594 113.606 55.2031C110.294 55.0156 107.45 54.9531 105.075 55.0156C106.294 56.9531 106.637 59.4062 106.106 62.375C105.575 65.3438 104.669 67.6094 103.387 69.1719C101.981 71.0469 100.122 72.25 97.8094 72.7812C96.0594 72.7812 94.8094 72.1875 94.0594 71C93.2781 69.7812 92.8719 68.3438 92.8406 66.6875C92.8094 65.0312 92.9969 63.5625 93.4031 62.2812C93.9344 60.3125 94.825 58.5156 96.075 56.8906C97.325 55.2344 98.8719 53.9531 100.716 53.0469C101.622 52.7031 102.325 52.8281 102.825 53.4219C102.825 53.4219 102.809 53.4375 102.778 53.4688C102.809 53.4688 102.825 53.4688 102.825 53.4688C102.856 53.4688 102.887 53.4688 102.919 53.4688C103.419 53.4688 103.981 53.4688 104.606 53.4688C107.075 53.375 110.028 53.375 113.466 53.4688C116.934 53.5312 120.169 53.875 123.169 54.5C126.169 55.0938 128.247 56.1562 129.403 57.6875C129.966 58.6562 130.169 59.7812 130.012 61.0625C129.887 62.3438 129.591 63.625 129.122 64.9062C129.559 64.1562 129.997 63.4062 130.434 62.6562C133.059 58.0625 135.841 53.5625 138.778 49.1562C139.309 48.5312 139.903 48.2344 140.559 48.2656C141.247 48.2969 141.809 48.5625 142.247 49.0625C142.716 49.5312 142.903 50.1719 142.809 50.9844C142.403 52.7656 142.122 54.7656 141.966 56.9844C141.841 59.2031 141.919 61.3281 142.2 63.3594C142.481 63.0469 142.762 62.7031 143.044 62.3281C144.106 60.9531 145.247 59.625 146.466 58.3438C147.716 57.0625 148.919 56.2344 150.075 55.8594C151.231 55.4531 152.247 55.8906 153.122 57.1719C153.653 58.2656 154.216 59.3438 154.809 60.4062C154.841 60.4375 154.872 60.4844 154.903 60.5469C155.466 61.7031 156.2 62.6875 157.106 63.5C157.856 64 158.778 64.2188 159.872 64.1562C160.966 64.0938 161.981 63.9531 162.919 63.7344C163.075 63.7031 163.231 63.6719 163.387 63.6406C167.856 62.5781 171.747 60.4531 175.059 57.2656C175.153 57.1719 175.262 57.125 175.387 57.125C175.544 57.125 175.669 57.1719 175.762 57.2656ZM97.575 70.625C99.8875 70.0938 101.606 68.7812 102.731 66.6875C103.887 64.5938 104.497 62.4062 104.559 60.125C104.591 59.3125 104.528 58.4688 104.372 57.5938C104.247 56.7188 103.887 56.0156 103.294 55.4844C103.137 55.8594 102.825 56.1719 102.356 56.4219C100.637 57.3281 99.2469 58.6094 98.1844 60.2656C97.1219 61.8906 96.45 63.6562 96.1687 65.5625C96.075 66.0625 96.0281 66.7031 96.0281 67.4844C96.0281 68.2344 96.1375 68.9219 96.3562 69.5469C96.575 70.1406 96.9812 70.5 97.575 70.625ZM102.825 53.4219C102.856 53.3906 102.872 53.3906 102.872 53.4219C102.903 53.4219 102.919 53.4375 102.919 53.4688C102.887 53.4375 102.856 53.4219 102.825 53.4219ZM171.291 66.6875V66.7812C171.291 66.75 171.275 66.7344 171.244 66.7344C171.275 66.7031 171.291 66.6875 171.291 66.6875ZM205.041 57.2656C205.228 57.0781 205.416 57.0156 205.603 57.0781C205.791 57.1406 205.916 57.2656 205.978 57.4531C206.072 57.6406 206.025 57.8281 205.837 58.0156C203.494 60.2656 200.916 62.1875 198.103 63.7812C195.291 65.375 192.353 66.7188 189.291 67.8125C182.947 70.0625 176.4 70.8125 169.65 70.0625L169.697 70.0156C169.697 70.0156 169.681 70.0156 169.65 70.0156C169.65 70.0156 169.65 70 169.65 69.9688C168.65 74.75 167.447 79.4375 166.041 84.0312C164.603 88.6562 162.572 93.0312 159.947 97.1562C159.822 97.375 159.634 97.5156 159.384 97.5781C159.103 97.6406 158.853 97.6094 158.634 97.4844C158.353 97.3281 158.197 96.8594 158.166 96.0781C158.134 95.2969 158.181 94.4219 158.306 93.4531C158.4 92.4844 158.494 91.6406 158.587 90.9219C158.65 90.5469 158.697 90.2656 158.728 90.0781C160.072 82.4219 162.712 75.2344 166.65 68.5156C167.306 64.9219 168.025 61.3438 168.806 57.7812C169.056 57 169.509 56.5469 170.166 56.4219C170.822 56.2969 171.4 56.4375 171.9 56.8438C172.431 57.25 172.619 57.875 172.462 58.7188C172.244 59.4688 172.025 60.2188 171.806 60.9688C173.587 58.7188 175.556 56.875 177.712 55.4375C179.9 53.9688 182.056 53.7344 184.181 54.7344C186.837 56.7969 187.9 58.7656 187.369 60.6406C186.869 62.5156 185.541 64.1562 183.384 65.5625C181.228 66.9375 179.041 67.9531 176.822 68.6094C181.197 68.7969 185.556 68.125 189.9 66.5938C194.244 65.0625 198.15 63.0156 201.619 60.4531C202.869 59.4844 204.009 58.4219 205.041 57.2656ZM160.462 91.9531C162.494 87.3594 163.978 82.5781 164.916 77.6094C165.041 76.9531 165.166 76.2969 165.291 75.6406C162.853 80.8594 161.244 86.2969 160.462 91.9531ZM171.244 66.7344C171.181 66.7969 171.166 66.8594 171.197 66.9219L171.291 66.7812C171.572 67 171.884 67.2188 172.228 67.4375C173.197 67.5312 174.197 67.4062 175.228 67.0625C175.541 66.9688 175.869 66.8906 176.212 66.8281C177.744 66.4219 179.431 65.6875 181.275 64.625C183.15 63.5625 184.416 62.3281 185.072 60.9219C185.728 59.5156 185.025 58.0625 182.962 56.5625C181.9 56.1562 180.775 56.2656 179.587 56.8906C178.431 57.5156 177.337 58.3438 176.306 59.375C175.275 60.375 174.431 61.25 173.775 62C172.681 63.375 171.634 64.7969 170.634 66.2656C170.728 66.2969 170.822 66.3438 170.916 66.4062C171.009 66.5312 171.119 66.6406 171.244 66.7344ZM233.147 57.3594C233.272 57.1406 233.444 57.0469 233.663 57.0781C233.881 57.1094 234.053 57.2188 234.178 57.4062C234.303 57.5625 234.303 57.75 234.178 57.9688C233.272 59.25 232.225 60.3906 231.038 61.3906C229.85 62.3594 228.616 63.2812 227.334 64.1562C227.116 64.3125 226.913 64.4531 226.725 64.5781C223.631 66.7031 220.647 68.3438 217.772 69.5C214.897 70.625 212.397 70.8438 210.272 70.1562C208.178 69.4375 206.709 67.3438 205.866 63.875C203.803 66.9375 201.584 69.8906 199.209 72.7344C197.959 73.9844 196.678 74.3438 195.366 73.8125C194.022 73.25 193.491 72.0625 193.772 70.25C195.053 64.5625 197.725 59.625 201.788 55.4375C203.1 54.0938 204.709 53.0156 206.616 52.2031C207.366 51.9219 207.975 52.0156 208.444 52.4844C208.944 52.9531 209.178 53.5312 209.147 54.2188C209.116 54.875 208.725 55.3594 207.975 55.6719C205.631 56.8594 203.663 58.5469 202.069 60.7344C200.506 62.8906 199.288 65.2344 198.413 67.7656C200.975 64.4531 203.366 61.0156 205.584 57.4531C205.928 56.9219 206.381 56.6406 206.944 56.6094C207.538 56.5781 208.038 56.75 208.444 57.125C208.881 57.5 209.084 58 209.053 58.625C208.428 60.5312 208.256 62.5 208.538 64.5312C208.85 66.5312 210.038 67.9375 212.1 68.75C215.194 68.7188 218.319 67.8438 221.475 66.125C224.631 64.4062 227.444 62.5938 229.913 60.6875C231.194 59.75 232.272 58.6406 233.147 57.3594ZM268.191 57.3125C268.347 57.125 268.519 57.0625 268.706 57.125C268.894 57.1562 269.034 57.25 269.128 57.4062C269.222 57.5625 269.206 57.7344 269.081 57.9219C268.769 58.2969 268.441 58.625 268.097 58.9062C266.191 60.375 263.738 62.0312 260.738 63.875C257.769 65.7188 254.738 67.0312 251.644 67.8125C248.581 68.5625 245.956 68.0469 243.769 66.2656C242.956 65.4219 242.409 64.0781 242.128 62.2344C241.878 60.3594 241.878 58.5469 242.128 56.7969C239.159 59.0469 236.3 61.625 233.55 64.5312C230.831 67.4062 228.691 70.3438 227.128 73.3438C226.722 73.8125 226.238 74.0312 225.675 74C225.113 73.9688 224.644 73.75 224.269 73.3438C223.894 72.9062 223.769 72.375 223.894 71.75C224.456 69.2188 225.159 66.7031 226.003 64.2031C226.316 63.2031 226.613 62.2031 226.894 61.2031C226.894 61.2031 226.894 61.1875 226.894 61.1562C227.238 60.0625 227.534 58.9531 227.784 57.8281C228.003 57.0469 228.441 56.5938 229.097 56.4688C229.753 56.3125 230.347 56.4375 230.878 56.8438C231.409 57.2188 231.597 57.8125 231.441 58.625C230.909 60.875 230.284 63.125 229.566 65.375C229.378 65.9062 229.206 66.4219 229.05 66.9219C231.175 64.9531 233.253 62.9219 235.284 60.8281C238.034 57.9531 240.894 55.2344 243.863 52.6719C244.238 52.3594 244.581 52.3125 244.894 52.5312C245.238 52.75 245.519 53.1094 245.738 53.6094C246.081 54.4531 246.159 55.3438 245.972 56.2812C245.816 57.2188 245.566 58.1562 245.222 59.0938C244.847 60.1562 244.566 61.2188 244.378 62.2812C244.222 63.3125 244.409 64.3125 244.941 65.2812C246.316 66.5625 247.925 67.1406 249.769 67.0156C251.644 66.8906 253.519 66.4219 255.394 65.6094C257.3 64.7969 258.956 63.9844 260.363 63.1719C260.581 63.0469 260.816 62.9062 261.066 62.75C263.753 61.2812 266.128 59.4688 268.191 57.3125ZM271.781 83.2812C271.938 83.2812 272.062 83.3281 272.156 83.4219C272.281 83.5469 272.328 83.6875 272.297 83.8438C272.297 84 272.234 84.125 272.109 84.2188C271.984 84.3438 271.844 84.4062 271.688 84.4062C270.875 84.4062 270.062 84.4688 269.25 84.5938C265.156 95.3125 260.078 105.625 254.016 115.531C253.266 116.406 252.609 116.719 252.047 116.469C251.484 116.25 251.031 115.781 250.688 115.062C250.312 114.375 250.078 113.719 249.984 113.094C249.266 109.156 249.703 105.219 251.297 101.281C252.859 97.3438 254.969 93.7812 257.625 90.5938C259.844 88 262.5 86 265.594 84.5938C269.219 75.9375 271.766 67.6406 273.234 59.7031C270.922 63.0781 268.484 66.4062 265.922 69.6875C265.766 69.9062 265.594 70.1094 265.406 70.2969C264.906 71.0469 264.281 71.6094 263.531 71.9844C261.438 72.0469 260.25 71.1094 259.969 69.1719C259.688 67.2031 259.922 65.0312 260.672 62.6562C261.391 60.2812 262.219 58.5 263.156 57.3125C263.875 56.25 264.656 55.75 265.5 55.8125C266.344 55.875 266.891 56.25 267.141 56.9375C267.422 57.625 267.094 58.4062 266.156 59.2812C265.469 59.8125 264.812 60.7344 264.188 62.0469C263.562 63.3594 263.125 64.7188 262.875 66.125C262.594 67.5 262.656 68.5625 263.062 69.3125C264 68.2812 265.078 67 266.297 65.4688C267.516 63.9375 268.609 62.4844 269.578 61.1094C270.016 60.4531 270.516 59.7656 271.078 59.0469C271.703 58.2344 272.281 57.4062 272.812 56.5625C273.375 55.6875 273.734 54.8281 273.891 53.9844C273.953 53.5156 274.172 53.1562 274.547 52.9062C276.297 51.75 277.219 52.2188 277.312 54.3125C277.406 56.4062 277.047 59.2031 276.234 62.7031C275.453 66.1719 274.578 69.4375 273.609 72.5C272.672 75.5312 272.047 77.4062 271.734 78.125C271.078 79.9062 270.406 81.6719 269.719 83.4219C270.406 83.3281 271.094 83.2812 271.781 83.2812ZM251.953 111.922C256.547 104.234 260.906 95.5938 265.031 86C260.938 88.25 257.766 91.4375 255.516 95.5625C253.766 98.625 252.562 101.828 251.906 105.172C251.875 105.297 251.844 105.453 251.812 105.641C251.656 106.578 251.547 107.641 251.484 108.828C251.422 110.047 251.578 111.078 251.953 111.922Z" fill="#A05428"/>
</svg>
