<svg xmlns="http://www.w3.org/2000/svg" version="1.1" xmlns:xlink="http://www.w3.org/1999/xlink" xmlns:svgjs="http://svgjs.dev/svgjs" width="256" height="256"><svg width="256" height="256" viewBox="0 0 256 256" fill="none" xmlns="http://www.w3.org/2000/svg">
<g clip-path="url(#clip0_436_429)">
<path d="M112.948 101.595L113.244 101.116C114.759 98.6753 116.37 96.3029 118.016 93.9574L118.252 93.6217L118.548 93.1408C118.973 92.4522 119.405 91.7681 119.87 91.1083L120.111 90.7675L120.131 90.7786C122.552 87.2859 125.005 83.8178 127.49 80.3751C126.021 79.6774 124.542 79.0019 123.049 78.3648C120.45 81.4895 117.98 84.728 115.523 87.9745L115.283 88.2915L115.268 88.2844C114.6 89.192 113.92 90.092 113.286 91.0466C111.311 93.6641 109.385 96.3034 107.529 99.0075L107.515 99.0267C106.759 100.017 106.009 101.012 105.331 102.072C79.2509 139.434 58.0598 180.506 42.4779 223.789L52.0094 231.47C58.2928 209.889 67.168 187.545 76.6237 167.131C86.5864 145.623 97.9535 124.817 110.731 105.003L110.961 104.646L111.244 104.163C111.7 103.394 112.185 102.644 112.708 101.923L112.948 101.595ZM134.715 116.506C132.029 115.029 129.3 113.641 126.561 112.275C123.513 117.128 120.598 122.068 117.743 127.047C116.24 129.668 114.754 132.301 113.302 134.953C111.103 138.968 108.979 143.027 106.873 147.088C105.61 149.66 104.294 152.209 103.027 154.789L102.998 154.847L102.965 154.899L102.95 154.934L102.929 154.966C102.912 154.994 102.904 155.024 102.9 155.058L102.888 155.147L102.848 155.226C101.73 157.434 100.685 159.68 99.6474 161.93C97.9163 165.683 96.1957 169.442 94.5438 173.234C93.482 175.671 92.4135 178.106 91.428 180.584C90.0443 183.888 88.7196 187.215 87.45 190.57C85.9948 194.167 84.6744 197.816 83.341 201.459C79.7395 211.294 76.5667 221.202 73.5958 231.278C72.1895 236.047 70.8705 240.844 69.6207 245.66L82.4518 256C83.0259 252.337 83.6803 248.689 84.4671 245.08C84.9344 242.43 85.4666 239.783 86.1243 237.174C87.4969 230.992 89.0391 225.025 90.7562 219.005C91.8949 215.011 93.1307 210.937 94.41 207.006C95.5056 203.641 96.6002 200.275 97.7921 196.951C98.9346 193.572 100.12 190.204 101.437 186.895C102.702 183.553 104.021 180.229 105.347 176.909C107.728 170.951 110.277 165.068 112.904 159.225C113.996 156.8 115.144 154.403 116.286 152.014C117.358 149.559 118.544 147.151 119.799 144.801C120.716 142.812 121.668 140.824 122.717 138.905C123.852 136.527 125.049 134.165 126.296 131.832C127.53 129.522 128.792 127.228 130.007 124.898C131.575 122.094 133.119 119.284 134.715 116.506ZM142.005 83.565C143.32 81.7762 144.636 79.9883 145.983 78.2253C143.005 76.5992 140.041 74.9444 137.031 73.3694C136.033 72.8127 135.027 72.2848 133.993 71.7797C132.673 71.0203 131.341 70.321 130.008 69.6258L130.003 69.6233L129.68 69.4635C128.807 69.0252 127.942 68.5529 127.026 68.1697C122.648 65.9485 118.258 63.7926 113.833 61.7201C109.396 59.642 104.93 57.6373 100.441 55.6861C94.7241 53.2015 88.9589 50.8337 83.1424 48.6131C80.2334 47.5023 77.3221 46.398 74.388 45.363L74.1052 45.2634C73.8182 45.1618 73.5325 45.0576 73.2455 44.955C73.2295 44.9494 73.214 44.9439 73.1986 44.9378C69.0103 43.4088 64.7945 41.9608 60.5357 40.6376C60.412 40.5951 60.2946 40.5557 60.1766 40.5157C57.2662 39.5277 54.3379 38.5979 51.3884 37.7252C48.3538 36.7595 45.2984 35.8853 42.2406 35.0217C38.6289 34.0019 35.0085 33.015 31.3688 32.1084C29.4245 31.624 27.4831 31.127 25.5369 30.6522C25.5079 30.6452 25.4794 30.6396 25.4504 30.6325L18.041 41.2241C26.8394 42.9376 35.6175 44.7715 44.3434 46.852L45.2239 47.0619L45.2148 47.071C52.124 48.7294 58.9998 50.5476 65.8128 52.5998L65.8191 52.6019L65.8278 52.5928L66.1004 52.6747C70.9541 54.1354 75.7765 55.7099 80.5558 57.4193C84.5642 58.8533 88.5804 60.2649 92.5546 61.7888C96.5645 63.2329 100.538 64.8008 104.485 66.4354C107.277 67.5912 110.052 68.7916 112.839 69.9722C115.952 71.3586 119.062 72.7414 122.186 74.1323C122.328 74.2062 122.454 74.2749 122.581 74.3407C122.76 74.4029 122.943 74.4605 123.112 74.5485C123.654 74.7381 124.165 74.9944 124.683 75.2391L125.242 75.5036L125.231 75.5172C126.373 76.0072 127.515 76.4981 128.636 77.0406C128.963 77.1989 129.287 77.3622 129.61 77.5311L129.961 77.6908C130.915 78.1297 131.868 78.5736 132.792 79.056C135.881 80.5005 138.943 82.0351 142.005 83.565ZM10.2401 52.3789L0 67.0224C8.71866 68.1312 17.3914 69.6314 25.995 71.4799L26.6605 71.623L26.6567 71.6296C53.3312 77.434 79.4026 86.5315 104.464 97.7126C106.374 94.9595 108.317 92.2282 110.298 89.5298C92.7005 80.591 74.5919 72.748 56.0865 66.1113L55.4896 65.8974L55.4979 65.8853C48.6056 63.4189 41.6524 61.1417 34.6576 59.0171L34.6499 59.015L34.6456 59.0201L34.3406 58.9281C26.3657 56.5168 18.3271 54.3397 10.2401 52.3789ZM180.63 99.9317C177.989 98.067 175.316 96.266 172.61 94.5232C171.008 93.4917 169.419 92.436 167.77 91.4713C166.098 90.4212 164.462 89.325 162.798 88.2809L158.025 85.3681C156.905 87.0214 155.83 88.7071 154.711 90.361C154.987 90.5061 155.255 90.6522 155.503 90.8464L155.507 90.8489C159.548 92.9962 163.522 95.2826 167.438 97.6438C167.973 97.9234 168.519 98.2111 169.028 98.5448C172.006 100.275 174.949 102.094 177.846 103.954C178.273 104.179 178.705 104.439 179.105 104.717C180.612 105.609 182.105 106.558 183.612 107.492C191.051 112.285 198.369 117.279 205.555 122.471C207.632 123.972 209.701 125.482 211.718 127.048C213.495 128.286 215.338 129.703 217.065 131.017C217.475 131.329 217.878 131.652 218.282 131.972C219.619 133.028 220.963 134.076 222.26 135.162C224.743 136.989 227.117 138.993 229.484 140.987C231.002 142.16 232.501 143.376 233.926 144.664C234.26 144.929 234.605 145.206 234.952 145.488C235.767 146.18 236.559 146.892 237.355 147.601L237.369 147.536L237.977 148.093C238.27 148.361 238.561 148.633 238.831 148.893C239.105 149.107 239.39 149.348 239.694 149.585C241.768 151.408 243.861 153.185 245.859 155.065C249.109 157.91 252.272 160.874 255.404 163.872L256 163.247C252.844 160.011 249.651 156.813 246.389 153.678C245.851 153.115 245.256 152.631 244.73 152.083C243.833 151.211 242.96 150.297 242.013 149.448C240.691 148.117 239.319 146.863 237.952 145.605L237.748 145.417L237.749 145.412L237.744 145.407C237.404 145.094 237.07 144.772 236.733 144.455C235.428 143.228 234.092 142.04 232.756 140.849C231.372 139.615 230.022 138.338 228.646 137.103C226.839 135.562 225.032 134.01 223.209 132.458C222.51 131.799 221.789 131.186 221.089 130.584C220.688 130.305 220.34 129.944 219.961 129.615C218.416 128.349 216.866 127.079 215.321 125.8C215.085 125.604 214.84 125.419 214.601 125.227C214.383 125.052 214.167 124.875 213.95 124.7L213.667 124.473C209.217 120.896 204.658 117.295 200.118 113.873C199.902 113.722 199.69 113.549 199.457 113.387C197.439 111.821 195.37 110.354 193.291 108.88C189.662 105.998 184.48 102.451 180.63 99.9317ZM252.441 196.467L253.37 195.564C220.522 161.752 183.63 132.096 143.662 108.045C142.707 107.403 141.743 106.798 140.746 106.242C138.257 104.764 135.762 103.306 133.255 101.872C133.232 101.859 133.209 101.845 133.186 101.832L132.88 101.658C132.03 101.176 131.173 100.706 130.339 100.207C127.344 98.5362 124.34 96.8642 121.325 95.2143C119.527 97.7879 117.763 100.389 116.087 103.051C119.259 104.574 122.434 106.094 125.566 107.697C126.551 108.177 127.539 108.662 128.54 109.15L128.554 109.157C130.61 110.232 132.67 111.311 134.719 112.414C135.315 112.735 135.91 113.058 136.507 113.386L136.899 113.58C137.793 114.027 138.673 114.503 139.553 114.98C161.109 126.649 181.945 139.811 201.862 154.322C219.364 167.07 236.76 181.339 252.441 196.467ZM200.936 0.277075L200.605 0C175.682 19.8185 152.747 42.3597 132.194 67.0603C133.471 67.6929 134.723 68.3825 135.973 69.0707C155.226 44.0884 177.282 20.6735 200.936 0.277075ZM216.492 11.3732L215.829 10.8191C212.799 13.2288 209.836 15.7291 206.88 18.2384C204.163 20.5466 201.486 22.9073 198.849 25.3236C198.77 25.3934 198.689 25.4394 198.615 25.5011L198.592 25.5198L198.568 25.5354C198.495 25.5825 198.408 25.6937 198.326 25.7569L198.292 25.7827L198.257 25.7908L198.264 25.7968C195.901 28.0165 193.484 30.1724 191.17 32.4557C187.846 35.5855 184.589 38.7865 181.425 42.0952C179.17 44.3159 176.985 46.6023 174.862 48.9604C173.07 50.8363 171.349 52.7758 169.626 54.7173C167.835 56.6609 166.077 58.6338 164.39 60.68C162.428 62.9376 160.512 65.231 158.621 67.5452C157.011 69.5146 155.391 71.4748 153.848 73.5094C152.938 74.6546 152.03 75.7938 151.123 76.9329L150.863 77.257L150.521 77.7166C149.955 78.467 149.367 79.1996 148.811 79.9575L148.767 80.0177C147.472 81.7135 146.218 83.4376 144.965 85.1608L144.937 85.2002C144.233 86.133 143.503 87.0406 142.844 88.0028L142.841 88.0084L142.858 88.0175L142.511 88.5003C140.006 91.987 137.578 95.5344 135.177 99.1005C137.623 100.482 140.052 101.895 142.469 103.329C143.681 101.36 144.862 99.3695 146.116 97.436C147.265 95.5637 148.462 93.7157 149.619 91.8404L149.761 91.6103H149.805C150.331 90.7528 150.859 89.8968 151.416 89.0616L151.654 88.7046L151.966 88.2318C152.985 86.673 154.026 85.1294 155.05 83.5564C155.707 82.656 156.276 81.7054 156.896 80.7938C159.362 77.1685 161.91 73.606 164.456 70.0424C166.822 66.7297 169.273 63.4831 171.747 60.2644C183.677 44.0778 201.51 24.2375 216.492 11.3732ZM168.029 36.7191C170.925 38.4912 173.77 40.364 176.469 42.4527C179.712 39.0596 183.064 35.7827 186.422 32.5144C183.338 30.7099 180.153 29.101 176.929 27.5923C173.943 30.6133 170.934 33.6121 168.029 36.7191ZM68.064 195.602C66.0579 200.634 64.1445 205.707 62.3133 210.811C66.1729 213.364 70.1775 215.677 74.3019 217.727C75.6692 213.455 77.1447 209.223 78.626 204.995C74.8611 202.18 71.3828 198.969 68.064 195.602ZM47.7859 80.6684C40.2368 78.4867 32.6297 76.5188 24.9618 74.8513C17.503 89.8988 13.9929 106.363 14.0731 123.282C14.2152 153.155 26.9123 180.136 48.2291 199.755C50.8046 193.538 53.4922 187.372 56.2948 181.263C44.9475 164.12 39.4838 144.062 39.4408 123.282C39.4104 108.581 42.1193 94.1404 47.7859 80.6684ZM95.479 215.019C94.4916 218.295 93.4956 221.569 92.6015 224.875C93.5284 225.146 94.4404 225.477 95.3944 225.727C119.053 234.298 145.333 233.489 168.834 224.829C192.287 216.187 213.008 199.779 225.926 177.383C219.872 172.378 213.677 167.564 207.416 162.85C194.873 195.738 166.147 219.012 132.474 223.053L132.448 223.057H132.422C119.718 223.148 107.119 220.312 95.479 215.019ZM57.4112 62.9689C59.2149 60.3468 61.165 57.837 63.2113 55.4181C56.3021 53.3679 49.318 51.6043 42.314 49.9469C40.4442 51.9431 38.6376 54.0049 36.9204 56.1462C43.7953 58.2683 50.6359 60.5187 57.4112 62.9689ZM76.5309 42.5417C81.9293 37.1109 87.4553 32.1842 94.177 28.6121C102.71 24.0788 111.974 22.3061 121.475 21.9956C128.999 21.7499 136.483 22.3182 143.699 24.6921C149.309 26.5376 154.423 29.3988 159.644 32.1686C162.441 29.3735 165.306 26.6549 168.167 23.9321C164.996 22.7652 161.787 21.7014 158.528 20.8343C141.704 16.356 123.809 15.0829 106.575 17.4234C89.2812 19.7725 72.4562 25.8075 58.0535 36.2094C64.2528 38.1899 70.4119 40.3049 76.5309 42.5417ZM238.373 141.377C239.312 135.393 239.871 129.349 239.848 123.281C239.716 88.1616 222.171 57.3101 194.653 37.8183C191.228 41.6346 187.89 45.5359 184.624 49.502C203.717 68.1408 213.702 93.5585 214.353 120.717C222.568 127.332 230.583 134.22 238.373 141.377ZM230.409 168.623C232.94 163.063 234.842 157.206 236.362 151.264C229.097 144.984 221.655 138.928 214.042 133.114C213.524 139.416 212.528 145.682 210.949 151.789C217.546 157.26 224.059 162.842 230.409 168.623Z" fill="#A05428"></path>
</g>
<defs>
<clipPath id="SvgjsClipPath1001">
<rect width="256" height="256" fill="white"></rect>
</clipPath>
</defs>
</svg><style>@media (prefers-color-scheme: light) { :root { filter: none; } }
@media (prefers-color-scheme: dark) { :root { filter: none; } }
</style></svg>