<svg width="131" height="84" viewBox="0 0 131 84" fill="none" xmlns="http://www.w3.org/2000/svg">
<path d="M39.6406 46.4531C39.8906 46.2031 40.1406 46.1094 40.3906 46.1719C40.6406 46.2344 40.8125 46.3906 40.9062 46.6406C41 46.8594 40.9219 47.0938 40.6719 47.3438C39.9844 48 39.2969 48.6562 38.6094 49.3125C36.3594 51.5625 33.9688 53.6406 31.4375 55.5469C28.9062 57.4531 26.1406 58.7031 23.1406 59.2969C19.8906 59.1406 17.8438 57.8594 17 55.4531C16.1875 53.0469 16.1562 50.3594 16.9062 47.3906C14.6562 48.9219 12.4375 50.6094 10.25 52.4531C8.09375 54.2969 6.26562 56.2812 4.76562 58.4062C3.89062 60.9062 3.01562 63.3906 2.14062 65.8594C2.04688 66.2031 1.85938 66.4219 1.57812 66.5156C1.29688 66.6406 1.03125 66.6406 0.78125 66.5156C0.5 66.3906 0.359375 66.1562 0.359375 65.8125C0.171875 63.0625 0.828125 60.4688 2.32812 58.0312C5.48438 46.4688 9.15625 35.0312 13.3438 23.7188C12.8438 23.5312 12.4688 23.2031 12.2188 22.7344C12 22.2656 12.0781 21.7188 12.4531 21.0938C14.0469 18.5625 15.6719 16.0781 17.3281 13.6406C17.7656 13.0156 18.2812 12.7187 18.875 12.75C19.5 12.75 20 12.9844 20.375 13.4531C20.7812 13.8906 20.8594 14.4531 20.6094 15.1406C15.7344 27.2031 11.2031 39.4688 7.01562 51.9375C9.04688 49.7812 11.2031 47.7812 13.4844 45.9375C15.5781 44.2188 17.6875 42.5781 19.8125 41.0156C20.375 40.6094 20.9219 40.5 21.4531 40.6875C22.0156 40.875 22.4062 41.2344 22.625 41.7656C22.8438 42.2656 22.7656 42.8125 22.3906 43.4062C21.0469 44.9375 19.9688 46.6562 19.1562 48.5625C18.3438 50.4688 18.1094 52.3906 18.4531 54.3281C19.0781 56.4844 20.3125 57.7031 22.1562 57.9844C24.0312 58.2656 25.9219 57.8281 27.8281 56.6719C30.8594 54.9219 33.625 52.7969 36.125 50.2969C37.375 49.0781 38.5469 47.7969 39.6406 46.4531ZM129.059 53.4375C129.278 53.125 129.544 52.9844 129.856 53.0156C130.169 53.0469 130.403 53.2031 130.559 53.4844C130.747 53.7344 130.747 54.0312 130.559 54.375C128.341 57.625 125.513 61.1719 122.075 65.0156C118.669 68.8906 114.997 72.4062 111.059 75.5625C107.122 78.75 103.294 80.9688 99.575 82.2188C97.3563 82.9062 95.2781 82.9375 93.3406 82.3125C91.4344 81.6875 90.1219 80.1719 89.4031 77.7656C88.5906 74.4844 88.5906 70.2969 89.4031 65.2031C90.2156 60.1406 91.5438 54.6719 93.3875 48.7969C90.9188 52.8906 88.2313 56.6406 85.325 60.0469C82.45 63.4531 79.4344 66 76.2781 67.6875C74.9656 68.375 73.5125 68.7031 71.9188 68.6719C70.325 68.6406 69.0281 67.9688 68.0281 66.6562C66.5281 64.3438 66.0906 60.875 66.7156 56.25C67.3719 51.5938 68.6688 46.4219 70.6063 40.7344C67.95 43.8594 65.1688 46.8906 62.2625 49.8281C59.3563 52.7344 56.2 55.3594 52.7938 57.7031C51.0125 58.8906 49.325 59.5312 47.7313 59.625C46.1688 59.7188 44.575 58.9375 42.95 57.2812C41.825 56 41.1063 54.5156 40.7938 52.8281C38.825 55.7344 36.7313 58.5625 34.5125 61.3125C33.4813 62.5 32.3094 63.0469 30.9969 62.9531C29.6844 62.8281 28.8875 61.9219 28.6063 60.2344C29.0125 57.3281 29.9656 54.4688 31.4656 51.6562C32.9344 48.8438 34.7 46.4062 36.7625 44.3438C38.075 43 39.6688 41.9219 41.5438 41.1094C42.3563 40.8594 42.9969 40.9688 43.4656 41.4375C43.9344 41.875 44.1531 42.4219 44.1219 43.0781C44.0906 43.7344 43.6844 44.2344 42.9031 44.5781C40.6219 45.7031 38.6844 47.375 37.0906 49.5938C35.4969 51.8125 34.2469 54.1875 33.3406 56.7188C35.9031 53.375 38.3094 49.9375 40.5594 46.4062C40.9031 45.8438 41.3563 45.5469 41.9188 45.5156C42.4813 45.4844 42.9813 45.6562 43.4188 46.0312C43.8563 46.4062 44.0438 46.9062 43.9813 47.5312C43.3875 49.4375 43.2156 51.3281 43.4656 53.2031C43.7156 55.0781 44.8094 56.5156 46.7469 57.5156C48.5906 57.9219 51.0594 57 54.1531 54.75C57.2781 52.5 60.45 49.7344 63.6688 46.4531C66.9188 43.1406 69.6063 40.1562 71.7313 37.5C74.325 30.4375 77.0906 23.8281 80.0281 17.6719C82.9656 11.5156 85.325 6.95312 87.1063 3.98438C87.575 3.23438 88.2 2.9375 88.9813 3.09375C89.7938 3.25 90.2938 3.75 90.4813 4.59375C90.5125 5.125 90.4344 5.70313 90.2469 6.32812C90.0594 6.92188 89.8406 7.5 89.5906 8.0625C89.4031 8.5 89.2469 8.92187 89.1219 9.32812C86.6219 15.6406 83.8875 21.8438 80.9188 27.9375C80.6375 28.4688 80.3719 29 80.1219 29.5312C79.3094 31.25 78.3406 32.8906 77.2156 34.4531C75.8406 38.0156 74.5594 41.625 73.3719 45.2812C71.8719 49.75 70.825 54.3125 70.2313 58.9688C70.2313 59.2812 70.2156 59.6406 70.1844 60.0469C70.0281 61.3594 70.0438 62.6719 70.2313 63.9844C70.4188 65.3281 71.1375 66.0938 72.3875 66.2812C75.325 66.125 78.325 64.5156 81.3875 61.4531C84.4813 58.3906 87.2938 54.9375 89.825 51.0938C92.3875 47.25 94.3563 44.0781 95.7313 41.5781C95.7625 41.5469 95.7781 41.5156 95.7781 41.4844C95.8094 41.4531 95.825 41.4219 95.825 41.3906C101.2 26.8281 106.231 15.6562 110.919 7.875C112.325 5.4375 113.903 3.0625 115.653 0.75C116.028 0.3125 116.497 0.09375 117.059 0.09375C117.622 0.0625 118.091 0.265625 118.466 0.703125C118.747 1.07812 118.888 1.48438 118.888 1.92188C118.669 3.10937 118.278 4.26562 117.716 5.39062C117.497 5.85938 117.294 6.32812 117.106 6.79688C113.981 13.8281 110.638 20.75 107.075 27.5625C106.763 28.125 106.45 28.7031 106.138 29.2969C105.106 31.3594 103.872 33.3125 102.434 35.1562C98.7781 44.3125 95.8719 53.7031 93.7156 63.3281C93.4344 64.6094 93.1219 66.3594 92.7781 68.5781C92.4656 70.7969 92.3406 72.9375 92.4031 75C92.4969 77.0938 92.9969 78.6094 93.9031 79.5469C95.8406 80.5469 97.8875 80.625 100.044 79.7812C102.231 78.9688 104.216 78 105.997 76.875C106.059 76.8125 106.122 76.7656 106.184 76.7344C110.184 74.0781 113.888 71.0469 117.294 67.6406C120.731 64.2656 123.903 60.6562 126.809 56.8125C127.622 55.7188 128.372 54.5938 129.059 53.4375Z" fill="#CC9A4F"/>
</svg>
