<svg xmlns="http://www.w3.org/2000/svg" width="357" height="128" viewBox="0 0 357 128" fill="none">
<path d="M37.7812 4.0625C38.5 6.21875 38.8906 8.42188 38.9531 10.6719C39.0469 12.9219 39.0156 15.1719 38.8594 17.4219C38.8281 17.7969 38.8125 18.1563 38.8125 18.5C37.0625 34.7812 34.0469 50.8281 29.7656 66.6406C25.4844 82.4531 20.3906 97.9688 14.4844 113.188C12.7344 117.531 10.8125 121.812 8.71875 126.031C8.40625 126.625 7.95312 127.016 7.35938 127.203C6.76562 127.422 6.17188 127.391 5.57812 127.109C4.98438 126.797 4.59375 126.344 4.40625 125.75C4.21875 125.156 4.26562 124.562 4.54688 123.969C8.64062 115.75 12.25 107.297 15.375 98.6094C20.0625 85.6094 24.2188 72.4062 27.8438 59C31.5 45.5938 34.125 32.0156 35.7188 18.2656C36.0625 14.8906 36.0781 11.5312 35.7656 8.1875C35.7344 7.96875 35.7031 7.75 35.6719 7.53125C35.5469 6.75 35.3594 5.98438 35.1094 5.23438C34.8594 4.48438 34.4219 3.92188 33.7969 3.54688C32.2344 3.29688 30.7188 3.42187 29.25 3.92188C27.8125 4.42188 26.4375 5.14062 25.125 6.07812C21.5 8.82813 18.3594 12.0781 15.7031 15.8281C13.0469 19.5469 10.7031 23.4375 8.67188 27.5C6.26562 32.0312 4.5 36.8125 3.375 41.8438C2.25 46.875 2.28125 51.9375 3.46875 57.0312C4.34375 60.8125 5.9375 64.2656 8.25 67.3906C10.5938 70.5156 13.6094 72.7812 17.2969 74.1875C18.3281 74.6562 18.8438 75.3281 18.8438 76.2031C18.8438 77.0781 18.5 77.7812 17.8125 78.3125C17.125 78.875 16.2656 78.9062 15.2344 78.4062C9.85938 75.0312 5.96875 70.4688 3.5625 64.7188C1.1875 58.9375 0.21875 52.9688 0.65625 46.8125C0.96875 43.25 1.6875 39.7969 2.8125 36.4531C3.96875 33.0781 5.3125 29.7969 6.84375 26.6094C8.40625 23.4219 10.3281 20 12.6094 16.3438C14.9219 12.6875 17.5625 9.40625 20.5312 6.5C23.5 3.59375 26.7969 1.6875 30.4219 0.78125C32.0469 0.46875 33.5156 0.53125 34.8281 0.96875C36.1406 1.375 37.125 2.40625 37.7812 4.0625ZM87.9188 57.2656C88.1063 57.1094 88.2781 57.0781 88.4344 57.1719C88.6219 57.2344 88.7469 57.3594 88.8094 57.5469C88.8719 57.7031 88.825 57.8594 88.6688 58.0156C84.3875 61.8281 79.4031 64.1406 73.7156 64.9531C72.9969 65.0469 72.2625 65.0781 71.5125 65.0469C70.7625 65.0156 70.075 64.7812 69.45 64.3438C68.2938 63.4062 67.3719 62.2969 66.6844 61.0156C66.5594 60.8281 66.4188 60.6094 66.2625 60.3594C65.95 59.8281 65.5906 59.3125 65.1844 58.8125C64.8094 58.3125 64.3875 58.0156 63.9188 57.9219C62.8563 58.5781 61.95 59.4844 61.2 60.6406C61.0125 60.9219 60.825 61.1875 60.6375 61.4375C60.1375 62.0938 59.6531 62.7656 59.1844 63.4531C58.3719 64.6719 57.4969 65.875 56.5594 67.0625C55.7469 68.1875 54.9188 68.7344 54.075 68.7031C53.2313 68.6406 52.575 67.9062 52.1063 66.5C51.3875 63.1875 51.1063 59.8438 51.2625 56.4688C48.8563 59.625 46.5125 62.8281 44.2313 66.0781C43.2 67.4844 42.1844 68.8906 41.1844 70.2969C41.0281 70.5469 40.8563 70.7812 40.6688 71C39.8563 72.1562 39.0125 73.2969 38.1375 74.4219C38.075 74.5156 38.0125 74.5938 37.95 74.6562C37.7625 74.9375 37.4969 75.1719 37.1531 75.3594C36.8406 75.4844 36.5594 75.4531 36.3094 75.2656C36.0594 75.0781 35.95 74.8125 35.9813 74.4688C36.1063 73.5938 36.2313 72.7031 36.3563 71.7969C36.4813 70.8594 36.6219 69.9219 36.7781 68.9844C37.0594 67.4844 37.3875 65.9844 37.7625 64.4844C37.8875 64.1094 37.9969 63.7188 38.0906 63.3125C38.1531 63 38.2313 62.6719 38.325 62.3281C38.7625 60.6719 39.1844 59.1406 39.5906 57.7344C39.8719 56.9219 40.3406 56.4688 40.9969 56.375C41.6531 56.2812 42.2313 56.4531 42.7313 56.8906C43.2313 57.3281 43.3719 57.9688 43.1531 58.8125C42.3719 61.125 41.5281 63.5 40.6219 65.9375C40.4969 66.3125 40.3719 66.6719 40.2469 67.0156C39.9344 68.0156 39.5438 69.0156 39.075 70.0156C39.0438 70.1094 39.0125 70.2031 38.9813 70.2969C39.2 69.9219 39.4188 69.5625 39.6375 69.2188C42.4813 64.625 45.325 59.9375 48.1688 55.1562C48.325 54.875 48.4813 54.5938 48.6375 54.3125C48.825 54 49.0281 53.6719 49.2469 53.3281C50.0906 51.8906 50.9344 50.5312 51.7781 49.25C52.2781 48.625 52.8406 48.3281 53.4656 48.3594C54.0906 48.3594 54.6219 48.6094 55.0594 49.1094C55.4969 49.5781 55.6688 50.1875 55.575 50.9375C55.0125 52.375 54.6688 54.3438 54.5438 56.8438C54.4188 59.3125 54.5594 61.5469 54.9656 63.5469C55.6219 62.8594 56.2469 62.1719 56.8406 61.4844C57.9656 60.1406 59.2 58.8594 60.5438 57.6406C61.6063 56.6406 62.6531 56.0938 63.6844 56C64.7156 55.875 65.5906 56.5469 66.3094 58.0156C66.5281 58.4219 66.7781 58.8594 67.0594 59.3281C67.5906 60.4219 68.2313 61.4688 68.9813 62.4688C69.7313 63.4375 70.6219 63.9688 71.6531 64.0625C73.7781 64.0938 75.8563 63.7812 77.8875 63.125C79.95 62.4688 81.8875 61.6094 83.7 60.5469C85.2625 59.6094 86.6688 58.5156 87.9188 57.2656ZM84.5719 66.6875V66.7812C84.5719 66.75 84.5563 66.7344 84.525 66.7344C84.5563 66.7031 84.5719 66.6875 84.5719 66.6875ZM118.322 57.2656C118.509 57.0781 118.697 57.0156 118.884 57.0781C119.072 57.1406 119.197 57.2656 119.259 57.4531C119.353 57.6406 119.306 57.8281 119.119 58.0156C116.775 60.2656 114.197 62.1875 111.384 63.7812C108.572 65.375 105.634 66.7188 102.572 67.8125C96.2281 70.0625 89.6813 70.8125 82.9313 70.0625L82.9781 70.0156C82.9781 70.0156 82.9625 70.0156 82.9313 70.0156C82.9313 70.0156 82.9313 70 82.9313 69.9688C81.9313 74.75 80.7281 79.4375 79.3219 84.0312C77.8844 88.6562 75.8531 93.0312 73.2281 97.1562C73.1031 97.375 72.9156 97.5156 72.6656 97.5781C72.3844 97.6406 72.1344 97.6094 71.9156 97.4844C71.6344 97.3281 71.4781 96.8594 71.4469 96.0781C71.4156 95.2969 71.4625 94.4219 71.5875 93.4531C71.6813 92.4844 71.775 91.6406 71.8688 90.9219C71.9313 90.5469 71.9781 90.2656 72.0094 90.0781C73.3531 82.4219 75.9938 75.2344 79.9313 68.5156C80.5875 64.9219 81.3063 61.3438 82.0875 57.7812C82.3375 57 82.7906 56.5469 83.4469 56.4219C84.1031 56.2969 84.6813 56.4375 85.1813 56.8438C85.7125 57.25 85.9 57.875 85.7438 58.7188C85.525 59.4688 85.3063 60.2188 85.0875 60.9688C86.8688 58.7188 88.8375 56.875 90.9938 55.4375C93.1813 53.9688 95.3375 53.7344 97.4625 54.7344C100.119 56.7969 101.181 58.7656 100.65 60.6406C100.15 62.5156 98.8219 64.1562 96.6656 65.5625C94.5094 66.9375 92.3219 67.9531 90.1031 68.6094C94.4781 68.7969 98.8375 68.125 103.181 66.5938C107.525 65.0625 111.431 63.0156 114.9 60.4531C116.15 59.4844 117.291 58.4219 118.322 57.2656ZM73.7438 91.9531C75.775 87.3594 77.2594 82.5781 78.1969 77.6094C78.3219 76.9531 78.4469 76.2969 78.5719 75.6406C76.1344 80.8594 74.525 86.2969 73.7438 91.9531ZM84.525 66.7344C84.4625 66.7969 84.4469 66.8594 84.4781 66.9219L84.5719 66.7812C84.8531 67 85.1656 67.2188 85.5094 67.4375C86.4781 67.5312 87.4781 67.4062 88.5094 67.0625C88.8219 66.9688 89.15 66.8906 89.4938 66.8281C91.025 66.4219 92.7125 65.6875 94.5563 64.625C96.4313 63.5625 97.6969 62.3281 98.3531 60.9219C99.0094 59.5156 98.3063 58.0625 96.2438 56.5625C95.1813 56.1562 94.0563 56.2656 92.8688 56.8906C91.7125 57.5156 90.6188 58.3438 89.5875 59.375C88.5563 60.375 87.7125 61.25 87.0563 62C85.9625 63.375 84.9156 64.7969 83.9156 66.2656C84.0094 66.2969 84.1031 66.3438 84.1969 66.4062C84.2906 66.5312 84.4 66.6406 84.525 66.7344ZM129.272 59.3281C129.491 59.4844 129.756 59.5781 130.069 59.6094C130.412 59.6406 130.772 59.6562 131.147 59.6562C131.553 59.625 131.897 59.6406 132.178 59.7031C132.491 59.7344 132.662 59.875 132.694 60.125C132.569 60.5 132.209 60.7656 131.616 60.9219C131.053 61.0469 130.444 61.0938 129.787 61.0625C129.131 61.0312 128.616 60.9375 128.241 60.7812C127.241 60.2812 126.537 59.5938 126.131 58.7188C125.725 57.8125 125.537 56.8281 125.569 55.7656C122.412 58.4844 119.678 61.6094 117.366 65.1406C115.084 68.6719 113.131 72.3438 111.506 76.1562C111.412 76.4062 111.256 76.5938 111.037 76.7188C110.787 76.8438 110.522 76.8438 110.241 76.7188C109.991 76.5938 109.834 76.3906 109.772 76.1094C109.678 75.8594 109.631 75.5938 109.631 75.3125C109.631 75.0312 109.6 74.7812 109.537 74.5625C109.162 68.4062 110.522 62.6719 113.616 57.3594C114.053 56.7344 114.584 56.4531 115.209 56.5156C115.834 56.5781 116.35 56.8594 116.756 57.3594C117.162 57.8594 117.209 58.4531 116.897 59.1406C116.084 60.7656 115.428 62.4219 114.928 64.1094C118.022 58.4219 122.162 53.6562 127.35 49.8125C127.912 49.4375 128.459 49.3594 128.991 49.5781C129.553 49.7969 129.944 50.1719 130.162 50.7031C130.412 51.2344 130.334 51.7812 129.928 52.3438C129.272 53.3438 128.741 54.5469 128.334 55.9531C127.928 57.3594 128.241 58.4844 129.272 59.3281ZM166.425 57.4531C166.519 57.8281 166.3 58.125 165.769 58.3438C165.269 58.5625 164.722 58.7344 164.128 58.8594C163.659 58.9844 163.316 59.0938 163.097 59.1875C159.972 60 156.8 60.4219 153.581 60.4531C153.425 60.4531 153.269 60.4531 153.113 60.4531C151.894 60.4219 150.456 60.3438 148.8 60.2188C147.144 60.0938 145.566 59.7969 144.066 59.3281C144.128 61.7031 143.706 64.0156 142.8 66.2656C141.925 68.5156 140.691 70.2188 139.097 71.375C137.222 72.7188 135.503 73.0938 133.941 72.5C132.378 71.9062 131.378 70.4844 130.941 68.2344C130.472 64.1094 131.488 60.3438 133.988 56.9375C135.269 55.2812 136.847 53.9844 138.722 53.0469C139.597 52.7031 140.3 52.8281 140.831 53.4219C141.113 53.1406 141.472 53.1094 141.909 53.3281C142.972 54.5469 143.644 56.0625 143.925 57.875C145.488 58.5 147.238 58.9062 149.175 59.0938C151.113 59.25 152.581 59.3281 153.581 59.3281C157.8 59.3594 161.863 58.6406 165.769 57.1719C165.894 57.1094 166.019 57.1094 166.144 57.1719C166.269 57.2344 166.363 57.3281 166.425 57.4531ZM142.003 56.6094C141.909 56.1406 141.769 55.6875 141.581 55.25C141.581 55.75 141.722 56.2031 142.003 56.6094ZM135.581 70.625C137.988 70.0625 139.769 68.5781 140.925 66.1719C142.113 63.7656 142.597 61.2344 142.378 58.5781C141.409 58.0469 140.738 57.3281 140.363 56.4219C138.613 57.3281 137.206 58.6094 136.144 60.2656C135.113 61.8906 134.441 63.6562 134.128 65.5625C134.128 65.6875 134.113 65.8125 134.081 65.9375C133.988 66.8438 133.988 67.7812 134.081 68.75C134.206 69.7188 134.706 70.3438 135.581 70.625ZM198.75 57.2656C198.969 57.5781 198.875 57.9219 198.469 58.2969C198.062 58.6719 197.531 59.0469 196.875 59.4219C196.219 59.7656 195.609 60.0781 195.047 60.3594C194.578 60.5781 194.25 60.7344 194.062 60.8281C189.219 63.1406 184.125 64.6562 178.781 65.375C175.594 65.5625 173.844 64.875 173.531 63.3125C171.312 65.7812 169.281 68.3906 167.438 71.1406C165.875 73.3906 164.5 75.75 163.312 78.2188C162.969 78.75 162.516 79.0312 161.953 79.0625C161.391 79.125 160.875 78.9844 160.406 78.6406C159.969 78.2969 159.766 77.7969 159.797 77.1406C159.984 73.8594 160.078 70.5781 160.078 67.2969C160.109 63.9531 160.203 60.6094 160.359 57.2656C160.453 56.4531 160.812 55.9375 161.438 55.7188C162.062 55.4688 162.672 55.5 163.266 55.8125C163.859 56.0938 164.141 56.6406 164.109 57.4531C163.953 60.7656 163.859 64.0781 163.828 67.3906C163.828 68.6406 163.812 69.9062 163.781 71.1875C167.031 67.1562 170.484 63.3125 174.141 59.6562C174.984 57.8438 176.188 56.125 177.75 54.5C179.344 52.8438 180.844 51.7188 182.25 51.125C182.75 50.8438 183.312 50.7188 183.938 50.75C184.594 50.75 185.125 50.9375 185.531 51.3125C185.938 51.6875 186.062 52.2656 185.906 53.0469C185.719 53.5156 185.406 53.8438 184.969 54.0312C182.438 55.1875 180.172 56.7188 178.172 58.625C176.953 59.75 175.781 60.9062 174.656 62.0938C174.594 62.4688 174.609 62.7969 174.703 63.0781C175.234 64.0469 176.344 64.5 178.031 64.4375C179.75 64.375 181.578 64.0938 183.516 63.5938C185.453 63.0938 187.016 62.6406 188.203 62.2344C188.453 62.1406 188.672 62.0781 188.859 62.0469C191.328 61.1719 193.688 60.0781 195.938 58.7656C196.281 58.6094 196.641 58.3438 197.016 57.9688C197.328 57.6875 197.641 57.4531 197.953 57.2656C198.266 57.0781 198.531 57.0781 198.75 57.2656ZM223.434 57.125C223.747 57.5 223.7 57.9219 223.294 58.3906C222.919 58.8594 222.466 59.3125 221.934 59.75C221.559 60.0625 221.294 60.3125 221.137 60.5C219.95 61.5625 217.981 62.9688 215.231 64.7188C212.481 66.4688 209.466 68.0938 206.184 69.5938C202.903 71.0938 199.903 72 197.184 72.3125C194.466 72.625 192.559 71.8906 191.466 70.1094C190.434 67.4844 190.216 64.75 190.809 61.9062C191.372 59.0312 192.497 56.4844 194.184 54.2656C195.184 53.0781 196.387 52.4219 197.794 52.2969C199.2 52.1719 200.075 53.0156 200.419 54.8281C200.637 55.7344 200.372 56.7344 199.622 57.8281C198.872 58.8906 197.934 59.875 196.809 60.7812C195.716 61.6875 194.762 62.3125 193.95 62.6562C193.575 64.625 193.466 66.2969 193.622 67.6719C193.872 69.6719 195.059 70.6406 197.184 70.5781C199.341 70.5156 201.841 69.9062 204.684 68.75C207.559 67.5625 210.231 66.2656 212.7 64.8594C215.169 63.4531 216.872 62.3906 217.809 61.6719C219.591 60.4219 221.169 58.9531 222.544 57.2656C222.669 57.1094 222.809 57.0312 222.966 57.0312C223.153 57 223.309 57.0312 223.434 57.125ZM197.512 55.8125C196.106 56.7812 195.091 58.375 194.466 60.5938C195.247 59.875 195.966 59.0781 196.622 58.2031C197.278 57.2969 197.575 56.5 197.512 55.8125ZM265.556 57.2656C265.744 57.1094 265.916 57.0781 266.072 57.1719C266.259 57.2344 266.384 57.3594 266.447 57.5469C266.509 57.7031 266.462 57.8594 266.306 58.0156C262.025 61.8281 257.041 64.1406 251.353 64.9531C250.634 65.0469 249.9 65.0781 249.15 65.0469C248.4 65.0156 247.712 64.7812 247.087 64.3438C245.931 63.4062 245.009 62.2969 244.322 61.0156C244.197 60.8281 244.056 60.6094 243.9 60.3594C243.587 59.8281 243.228 59.3125 242.822 58.8125C242.447 58.3125 242.025 58.0156 241.556 57.9219C240.494 58.5781 239.587 59.4844 238.837 60.6406C238.65 60.9219 238.462 61.1875 238.275 61.4375C237.775 62.0938 237.291 62.7656 236.822 63.4531C236.009 64.6719 235.134 65.875 234.197 67.0625C233.384 68.1875 232.556 68.7344 231.712 68.7031C230.869 68.6406 230.212 67.9062 229.744 66.5C229.025 63.1875 228.744 59.8438 228.9 56.4688C226.494 59.625 224.15 62.8281 221.869 66.0781C220.837 67.4844 219.822 68.8906 218.822 70.2969C218.666 70.5469 218.494 70.7812 218.306 71C217.494 72.1562 216.65 73.2969 215.775 74.4219C215.712 74.5156 215.65 74.5938 215.587 74.6562C215.4 74.9375 215.134 75.1719 214.791 75.3594C214.478 75.4844 214.197 75.4531 213.947 75.2656C213.697 75.0781 213.587 74.8125 213.619 74.4688C213.744 73.5938 213.869 72.7031 213.994 71.7969C214.119 70.8594 214.259 69.9219 214.416 68.9844C214.697 67.4844 215.025 65.9844 215.4 64.4844C215.525 64.1094 215.634 63.7188 215.728 63.3125C215.791 63 215.869 62.6719 215.962 62.3281C216.4 60.6719 216.822 59.1406 217.228 57.7344C217.509 56.9219 217.978 56.4688 218.634 56.375C219.291 56.2812 219.869 56.4531 220.369 56.8906C220.869 57.3281 221.009 57.9688 220.791 58.8125C220.009 61.125 219.166 63.5 218.259 65.9375C218.134 66.3125 218.009 66.6719 217.884 67.0156C217.572 68.0156 217.181 69.0156 216.712 70.0156C216.681 70.1094 216.65 70.2031 216.619 70.2969C216.837 69.9219 217.056 69.5625 217.275 69.2188C220.119 64.625 222.962 59.9375 225.806 55.1562C225.962 54.875 226.119 54.5938 226.275 54.3125C226.462 54 226.666 53.6719 226.884 53.3281C227.728 51.8906 228.572 50.5312 229.416 49.25C229.916 48.625 230.478 48.3281 231.103 48.3594C231.728 48.3594 232.259 48.6094 232.697 49.1094C233.134 49.5781 233.306 50.1875 233.212 50.9375C232.65 52.375 232.306 54.3438 232.181 56.8438C232.056 59.3125 232.197 61.5469 232.603 63.5469C233.259 62.8594 233.884 62.1719 234.478 61.4844C235.603 60.1406 236.837 58.8594 238.181 57.6406C239.244 56.6406 240.291 56.0938 241.322 56C242.353 55.875 243.228 56.5469 243.947 58.0156C244.166 58.4219 244.416 58.8594 244.697 59.3281C245.228 60.4219 245.869 61.4688 246.619 62.4688C247.369 63.4375 248.259 63.9688 249.291 64.0625C251.416 64.0938 253.494 63.7812 255.525 63.125C257.587 62.4688 259.525 61.6094 261.337 60.5469C262.9 59.6094 264.306 58.5156 265.556 57.2656ZM290.991 57.125C291.303 57.5 291.256 57.9219 290.85 58.3906C290.475 58.8594 290.022 59.3125 289.491 59.75C289.116 60.0625 288.85 60.3125 288.694 60.5C287.506 61.5625 285.538 62.9688 282.788 64.7188C280.038 66.4688 277.022 68.0938 273.741 69.5938C270.459 71.0938 267.459 72 264.741 72.3125C262.022 72.625 260.116 71.8906 259.022 70.1094C257.991 67.4844 257.772 64.75 258.366 61.9062C258.928 59.0312 260.053 56.4844 261.741 54.2656C262.741 53.0781 263.944 52.4219 265.35 52.2969C266.756 52.1719 267.631 53.0156 267.975 54.8281C268.194 55.7344 267.928 56.7344 267.178 57.8281C266.428 58.8906 265.491 59.875 264.366 60.7812C263.272 61.6875 262.319 62.3125 261.506 62.6562C261.131 64.625 261.022 66.2969 261.178 67.6719C261.428 69.6719 262.616 70.6406 264.741 70.5781C266.897 70.5156 269.397 69.9062 272.241 68.75C275.116 67.5625 277.788 66.2656 280.256 64.8594C282.725 63.4531 284.428 62.3906 285.366 61.6719C287.147 60.4219 288.725 58.9531 290.1 57.2656C290.225 57.1094 290.366 57.0312 290.522 57.0312C290.709 57 290.866 57.0312 290.991 57.125ZM265.069 55.8125C263.663 56.7812 262.647 58.375 262.022 60.5938C262.803 59.875 263.522 59.0781 264.178 58.2031C264.834 57.2969 265.131 56.5 265.069 55.8125ZM325.097 57.3125C325.253 57.125 325.425 57.0625 325.612 57.125C325.8 57.1562 325.941 57.25 326.034 57.4062C326.128 57.5625 326.112 57.7344 325.987 57.9219C325.675 58.2969 325.347 58.625 325.003 58.9062C323.097 60.375 320.644 62.0312 317.644 63.875C314.675 65.7188 311.644 67.0312 308.55 67.8125C305.487 68.5625 302.862 68.0469 300.675 66.2656C299.862 65.4219 299.316 64.0781 299.034 62.2344C298.784 60.3594 298.784 58.5469 299.034 56.7969C296.066 59.0469 293.206 61.625 290.456 64.5312C287.737 67.4062 285.597 70.3438 284.034 73.3438C283.628 73.8125 283.144 74.0312 282.581 74C282.019 73.9688 281.55 73.75 281.175 73.3438C280.8 72.9062 280.675 72.375 280.8 71.75C281.362 69.2188 282.066 66.7031 282.909 64.2031C283.222 63.2031 283.519 62.2031 283.8 61.2031C283.8 61.2031 283.8 61.1875 283.8 61.1562C284.144 60.0625 284.441 58.9531 284.691 57.8281C284.909 57.0469 285.347 56.5938 286.003 56.4688C286.659 56.3125 287.253 56.4375 287.784 56.8438C288.316 57.2188 288.503 57.8125 288.347 58.625C287.816 60.875 287.191 63.125 286.472 65.375C286.284 65.9062 286.112 66.4219 285.956 66.9219C288.081 64.9531 290.159 62.9219 292.191 60.8281C294.941 57.9531 297.8 55.2344 300.769 52.6719C301.144 52.3594 301.487 52.3125 301.8 52.5312C302.144 52.75 302.425 53.1094 302.644 53.6094C302.987 54.4531 303.066 55.3438 302.878 56.2812C302.722 57.2188 302.472 58.1562 302.128 59.0938C301.753 60.1562 301.472 61.2188 301.284 62.2812C301.128 63.3125 301.316 64.3125 301.847 65.2812C303.222 66.5625 304.831 67.1406 306.675 67.0156C308.55 66.8906 310.425 66.4219 312.3 65.6094C314.206 64.7969 315.862 63.9844 317.269 63.1719C317.487 63.0469 317.722 62.9062 317.972 62.75C320.659 61.2812 323.034 59.4688 325.097 57.3125ZM355.266 43.625C356.016 44.1562 356.312 44.7969 356.156 45.5469C356.031 46.2969 355.641 46.875 354.984 47.2812C354.359 47.6562 353.656 47.5625 352.875 47C352.094 45.8438 351 45.0938 349.594 44.75C348.219 44.375 346.797 44.1562 345.328 44.0938C344.766 44.0625 344.219 44.0156 343.688 43.9531C338.594 43.7656 333.484 43.8906 328.359 44.3281C326.641 49.3594 324.812 54.375 322.875 59.375C322.594 60.1562 322.297 60.9531 321.984 61.7656C321.609 66.0156 320.844 69.8594 319.688 73.2969C319.469 73.9531 319.234 74.6094 318.984 75.2656C318.453 76.8594 317.828 78.4062 317.109 79.9062C316.359 81.4375 315.359 82.7812 314.109 83.9375C313.578 84.2188 313.109 84.2031 312.703 83.8906C312.297 83.5781 312.156 83.1406 312.281 82.5781C314.625 74.0781 317.312 65.6406 320.344 57.2656C320.531 56.7344 320.719 56.2031 320.906 55.6719C320.594 53.6406 319.938 51.8594 318.938 50.3281C317.938 48.7656 316.438 47.6875 314.438 47.0938C314.094 46.9375 313.625 46.8594 313.031 46.8594C312.594 46.8594 312.203 46.8281 311.859 46.7656C311.516 46.6719 311.344 46.4531 311.344 46.1094C311.375 45.9844 311.438 45.875 311.531 45.7812C311.625 45.6562 311.734 45.5781 311.859 45.5469C315.422 44.7031 318.984 44.0156 322.547 43.4844C323.328 43.3906 324.188 43.2812 325.125 43.1562C325.125 43.125 325.141 43.0781 325.172 43.0156C325.203 42.9531 325.219 42.8906 325.219 42.8281C325.469 42.0781 325.703 41.3281 325.922 40.5781C327.141 37.0469 328.047 33.4844 328.641 29.8906C328.734 29.0781 329.094 28.5469 329.719 28.2969C330.375 28.0156 330.984 28.0156 331.547 28.2969C332.141 28.5469 332.422 29.0938 332.391 29.9375C331.453 34.2188 330.297 38.4688 328.922 42.6875C331.984 42.25 335.203 41.9062 338.578 41.6562C341.984 41.375 345.172 41.3594 348.141 41.6094C351.109 41.8594 353.484 42.5312 355.266 43.625ZM316.078 78.6875C317.297 76.8438 318.281 74.7188 319.031 72.3125C319.75 69.875 320.281 67.5625 320.625 65.375C318.969 69.7812 317.453 74.2188 316.078 78.6875ZM321.469 53.9844C322.562 50.8906 323.609 47.7969 324.609 44.7031C321.422 45.0781 318.234 45.5625 315.047 46.1562C316.828 46.8125 318.25 47.8281 319.312 49.2031C320.344 50.5469 321.062 52.1406 321.469 53.9844Z" fill="#A05428"/>
</svg>