<svg width="199" height="126" viewBox="0 0 199 126" fill="none" xmlns="http://www.w3.org/2000/svg">
<path d="M65.8594 93.9062C66.7969 93.3438 67.625 93.2812 68.3438 93.7188C69.0938 94.1562 69.5156 94.7969 69.6094 95.6406C69.7344 96.4844 69.3281 97.2344 68.3906 97.8906C66.1094 99.0156 62.8906 100.797 58.7344 103.234C54.3594 105.766 49.4531 108.5 44.0156 111.438C38.5781 114.375 33.1562 117 27.75 119.312C22.375 121.656 17.5469 123.188 13.2656 123.906C9.01562 124.656 5.84375 124.094 3.75 122.219C1.9375 120.094 0.859375 117.328 0.515625 113.922C0.171875 110.547 0.09375 107.484 0.28125 104.734C0.5625 100.547 1.10938 96.3906 1.92188 92.2656C2.76562 88.1406 3.71875 84.0469 4.78125 79.9844C8.03125 67.8281 12.0938 55.9375 16.9688 44.3125C21.8438 32.6875 27.875 21.7031 35.0625 11.3594C37.5625 7.89062 40.3594 4.65625 43.4531 1.65625C43.9531 1.1875 44.5 0.953125 45.0938 0.953125C45.7188 0.953125 46.2812 1.1875 46.7812 1.65625C47.5312 2.5 47.6562 3.42188 47.1562 4.42188C47.1562 4.45313 46.9062 4.92188 46.4062 5.82812C45.9062 6.73437 45.2812 7.89062 44.5312 9.29688C43.7812 10.6719 43 12.0938 42.1875 13.5625C41.2188 15.4062 40.375 16.9844 39.6562 18.2969C38.9688 19.5781 38.6094 20.25 38.5781 20.3125C38.2344 20.875 37.7656 21.25 37.1719 21.4375C36.5781 21.5937 35.9844 21.5312 35.3906 21.25C35.1406 21.0938 34.9375 20.9219 34.7812 20.7344C26.7188 33.8906 19.8906 48.5625 14.2969 64.75C8.73438 80.9062 5.21875 95.3594 3.75 108.109C3.375 111.078 3.39062 114.031 3.79688 116.969C4.01562 118.344 4.51562 119.578 5.29688 120.672C6.54688 121.828 8.03125 122.406 9.75 122.406C11.4688 122.438 13.1094 122.281 14.6719 121.938C20.2031 120.594 25.4844 118.641 30.5156 116.078C35.5781 113.516 40.5156 110.766 45.3281 107.828C52.4219 103.578 59.2656 98.9375 65.8594 93.9062ZM82.1531 56.3594C82.2781 56.1406 82.45 56.0469 82.6688 56.0781C82.8875 56.1094 83.0594 56.2188 83.1844 56.4062C83.3094 56.5625 83.3094 56.75 83.1844 56.9688C82.2781 58.25 81.2313 59.3906 80.0438 60.3906C78.8563 61.3594 77.6219 62.2812 76.3406 63.1562C76.1219 63.3125 75.9188 63.4531 75.7313 63.5781C72.6375 65.7031 69.6531 67.3438 66.7781 68.5C63.9031 69.625 61.4031 69.8438 59.2781 69.1562C57.1844 68.4375 55.7156 66.3438 54.8719 62.875C52.8094 65.9375 50.5906 68.8906 48.2156 71.7344C46.9656 72.9844 45.6844 73.3438 44.3719 72.8125C43.0281 72.25 42.4969 71.0625 42.7781 69.25C44.0594 63.5625 46.7313 58.625 50.7938 54.4375C52.1063 53.0938 53.7156 52.0156 55.6219 51.2031C56.3719 50.9219 56.9813 51.0156 57.45 51.4844C57.95 51.9531 58.1844 52.5312 58.1531 53.2188C58.1219 53.875 57.7313 54.3594 56.9813 54.6719C54.6375 55.8594 52.6688 57.5469 51.075 59.7344C49.5125 61.8906 48.2938 64.2344 47.4188 66.7656C49.9813 63.4531 52.3719 60.0156 54.5906 56.4531C54.9344 55.9219 55.3875 55.6406 55.95 55.6094C56.5438 55.5781 57.0438 55.75 57.45 56.125C57.8875 56.5 58.0906 57 58.0594 57.625C57.4344 59.5312 57.2625 61.5 57.5438 63.5312C57.8563 65.5312 59.0438 66.9375 61.1063 67.75C64.2 67.7188 67.325 66.8438 70.4813 65.125C73.6375 63.4062 76.45 61.5938 78.9188 59.6875C80.2 58.75 81.2781 57.6406 82.1531 56.3594ZM85.8375 82.2812C85.9938 82.2812 86.1188 82.3281 86.2125 82.4219C86.3375 82.5469 86.3844 82.6875 86.3531 82.8438C86.3531 83 86.2906 83.125 86.1656 83.2188C86.0406 83.3438 85.9 83.4062 85.7438 83.4062C84.9313 83.4062 84.1188 83.4688 83.3063 83.5938C79.2125 94.3125 74.1344 104.625 68.0719 114.531C67.3219 115.406 66.6656 115.719 66.1031 115.469C65.5406 115.25 65.0875 114.781 64.7438 114.062C64.3688 113.375 64.1344 112.719 64.0406 112.094C63.3219 108.156 63.7594 104.219 65.3531 100.281C66.9156 96.3438 69.025 92.7812 71.6813 89.5938C73.9 87 76.5563 85 79.65 83.5938C83.275 74.9375 85.8219 66.6406 87.2906 58.7031C84.9781 62.0781 82.5406 65.4062 79.9781 68.6875C79.8219 68.9062 79.65 69.1094 79.4625 69.2969C78.9625 70.0469 78.3375 70.6094 77.5875 70.9844C75.4938 71.0469 74.3063 70.1094 74.025 68.1719C73.7438 66.2031 73.9781 64.0312 74.7281 61.6562C75.4469 59.2812 76.275 57.5 77.2125 56.3125C77.9313 55.25 78.7125 54.75 79.5563 54.8125C80.4 54.875 80.9469 55.25 81.1969 55.9375C81.4781 56.625 81.15 57.4062 80.2125 58.2812C79.525 58.8125 78.8688 59.7344 78.2438 61.0469C77.6188 62.3594 77.1813 63.7188 76.9313 65.125C76.65 66.5 76.7125 67.5625 77.1188 68.3125C78.0563 67.2812 79.1344 66 80.3531 64.4688C81.5719 62.9375 82.6656 61.4844 83.6344 60.1094C84.0719 59.4531 84.5719 58.7656 85.1344 58.0469C85.7594 57.2344 86.3375 56.4062 86.8688 55.5625C87.4313 54.6875 87.7906 53.8281 87.9469 52.9844C88.0094 52.5156 88.2281 52.1562 88.6031 51.9062C90.3531 50.75 91.275 51.2188 91.3688 53.3125C91.4625 55.4062 91.1031 58.2031 90.2906 61.7031C89.5094 65.1719 88.6344 68.4375 87.6656 71.5C86.7281 74.5312 86.1031 76.4062 85.7906 77.125C85.1344 78.9062 84.4625 80.6719 83.775 82.4219C84.4625 82.3281 85.15 82.2812 85.8375 82.2812ZM66.0094 110.922C70.6031 103.234 74.9625 94.5938 79.0875 85C74.9938 87.25 71.8219 90.4375 69.5719 94.5625C67.8219 97.625 66.6188 100.828 65.9625 104.172C65.9313 104.297 65.9 104.453 65.8688 104.641C65.7125 105.578 65.6031 106.641 65.5406 107.828C65.4781 109.047 65.6344 110.078 66.0094 110.922ZM164.147 56.0781C164.303 56.2031 164.397 56.3594 164.428 56.5469C164.459 56.7344 164.412 56.9062 164.287 57.0625C163.662 57.9062 162.991 58.6719 162.272 59.3594C158.678 62.9219 154.819 66.1406 150.694 69.0156C150.35 69.2344 150.022 69.4531 149.709 69.6719C148.366 70.5781 146.959 71.4062 145.491 72.1562C144.022 72.9062 142.475 73.3438 140.85 73.4688C139.162 73.3438 137.975 72.625 137.287 71.3125C136.6 70 136.319 68.5938 136.444 67.0938C136.506 65.4375 136.741 63.8125 137.147 62.2188C136.334 63.1562 135.522 64.0312 134.709 64.8438C133.647 66.0625 132.381 67.0781 130.912 67.8906C129.037 68.5781 127.678 68.3906 126.834 67.3281C125.991 66.2344 125.725 64.7969 126.037 63.0156C126.131 62.4219 126.287 61.6719 126.506 60.7656C126.787 59.7344 127.006 58.7344 127.162 57.7656C127.35 56.7656 127.319 56.0312 127.069 55.5625C125.35 54.0312 122.803 53.2344 119.428 53.1719C116.084 53.1094 112.787 53.2656 109.537 53.6406C108.319 53.7656 107.209 53.8594 106.209 53.9219C107.209 55.4531 107.616 57.3438 107.428 59.5938C107.272 61.8125 106.866 63.6875 106.209 65.2188C105.584 66.8125 104.647 68.2031 103.397 69.3906C102.147 70.5781 100.662 71.3594 98.9437 71.7344C97.1937 71.7344 95.9437 71.125 95.1937 69.9062C94.4125 68.6875 94.0062 67.2656 93.975 65.6406C93.9437 63.9844 94.1312 62.5156 94.5375 61.2344C95.0687 59.2656 95.9594 57.4688 97.2094 55.8438C98.4594 54.1875 100.006 52.9062 101.85 52C102.819 51.6562 103.553 51.7969 104.053 52.4219C104.866 52.3906 105.897 52.3438 107.147 52.2812C108.397 52.2188 109.553 52.1562 110.616 52.0938C111.209 52.0625 111.678 52.0312 112.022 52C112.772 51.9688 113.631 51.9375 114.6 51.9062C116.35 51.75 118.209 51.6875 120.178 51.7188C122.178 51.75 124.006 52.0312 125.662 52.5625C127.35 53.0625 128.6 54 129.412 55.375C129.475 55.5 129.537 55.6406 129.6 55.7969C129.694 55.9531 129.756 56.1094 129.787 56.2656C129.85 56.3906 129.881 56.4531 129.881 56.4531C130.162 57.9531 130.116 59.4531 129.741 60.9531C129.647 61.2969 129.584 61.6406 129.553 61.9844C129.459 62.4531 129.334 62.9062 129.178 63.3438C128.897 64.2188 128.756 65.0625 128.756 65.875C128.756 65.9062 128.787 65.9531 128.85 66.0156C128.944 66.0781 129.037 66.125 129.131 66.1562C129.225 66.1562 129.319 66.1562 129.412 66.1562C130.787 65.625 132.162 64.4688 133.537 62.6875C134.944 60.875 136.225 59.0312 137.381 57.1562C138.069 56.0625 138.678 55.1562 139.209 54.4375L139.772 53.8281C140.209 53.5469 140.678 53.4688 141.178 53.5938C141.709 53.6875 142.116 53.9375 142.397 54.3438C142.647 54.6875 142.756 55.0469 142.725 55.4219C142.694 55.7969 142.553 56.1406 142.303 56.4531C142.178 56.6094 142.069 56.75 141.975 56.875C141.975 56.875 141.959 56.8906 141.928 56.9219C141.928 56.9531 141.912 56.9844 141.881 57.0156C141.881 57.0156 141.866 57.0312 141.834 57.0625C141.834 57.0938 141.819 57.1094 141.787 57.1094C141.381 57.7031 141.006 58.2969 140.662 58.8906C140.194 59.7656 139.803 60.6562 139.491 61.5625C138.803 63.4062 138.381 65.2969 138.225 67.2344C138.069 69.1406 138.459 70.5469 139.397 71.4531C140.366 72.3281 142.194 72.1562 144.881 70.9375C147.975 69.375 150.881 67.5312 153.6 65.4062C156.35 63.25 158.928 60.9375 161.334 58.4688C162.022 57.75 162.631 57.0156 163.162 56.2656C163.287 56.1094 163.444 56.0156 163.631 55.9844C163.819 55.9219 163.991 55.9531 164.147 56.0781ZM103.912 52.4219C103.912 52.3906 103.912 52.3594 103.912 52.3281C103.912 52.2969 103.912 52.2969 103.912 52.3281C103.912 52.3281 103.912 52.3438 103.912 52.375C103.912 52.375 103.912 52.3906 103.912 52.4219ZM98.7094 69.5781C101.053 69.0469 102.787 67.7188 103.912 65.5938C105.069 63.4375 105.678 61.2031 105.741 58.8906C105.741 58.1094 105.662 57.2969 105.506 56.4531C105.35 55.6094 104.991 54.9375 104.428 54.4375C104.272 54.8125 103.959 55.125 103.491 55.375C101.772 56.25 100.381 57.5156 99.3187 59.1719C98.2562 60.7969 97.5844 62.5781 97.3031 64.5156C97.2094 65.0156 97.1625 65.6406 97.1625 66.3906C97.1625 67.1406 97.2719 67.8281 97.4906 68.4531C97.7094 69.0781 98.1156 69.4531 98.7094 69.5781ZM193.003 42.625C193.753 43.1562 194.05 43.7969 193.894 44.5469C193.769 45.2969 193.378 45.875 192.722 46.2812C192.097 46.6562 191.394 46.5625 190.613 46C189.831 44.8438 188.738 44.0938 187.331 43.75C185.956 43.375 184.534 43.1562 183.066 43.0938C182.503 43.0625 181.956 43.0156 181.425 42.9531C176.331 42.7656 171.222 42.8906 166.097 43.3281C164.378 48.3594 162.55 53.375 160.613 58.375C160.331 59.1562 160.034 59.9531 159.722 60.7656C159.347 65.0156 158.581 68.8594 157.425 72.2969C157.206 72.9531 156.972 73.6094 156.722 74.2656C156.191 75.8594 155.566 77.4062 154.847 78.9062C154.097 80.4375 153.097 81.7812 151.847 82.9375C151.316 83.2188 150.847 83.2031 150.441 82.8906C150.034 82.5781 149.894 82.1406 150.019 81.5781C152.363 73.0781 155.05 64.6406 158.081 56.2656C158.269 55.7344 158.456 55.2031 158.644 54.6719C158.331 52.6406 157.675 50.8594 156.675 49.3281C155.675 47.7656 154.175 46.6875 152.175 46.0938C151.831 45.9375 151.363 45.8594 150.769 45.8594C150.331 45.8594 149.941 45.8281 149.597 45.7656C149.253 45.6719 149.081 45.4531 149.081 45.1094C149.113 44.9844 149.175 44.875 149.269 44.7812C149.363 44.6562 149.472 44.5781 149.597 44.5469C153.159 43.7031 156.722 43.0156 160.284 42.4844C161.066 42.3906 161.925 42.2812 162.863 42.1562C162.863 42.125 162.878 42.0781 162.909 42.0156C162.941 41.9531 162.956 41.8906 162.956 41.8281C163.206 41.0781 163.441 40.3281 163.659 39.5781C164.878 36.0469 165.784 32.4844 166.378 28.8906C166.472 28.0781 166.831 27.5469 167.456 27.2969C168.113 27.0156 168.722 27.0156 169.284 27.2969C169.878 27.5469 170.159 28.0938 170.128 28.9375C169.191 33.2188 168.034 37.4688 166.659 41.6875C169.722 41.25 172.941 40.9062 176.316 40.6562C179.722 40.375 182.909 40.3594 185.878 40.6094C188.847 40.8594 191.222 41.5312 193.003 42.625ZM153.816 77.6875C155.034 75.8438 156.019 73.7188 156.769 71.3125C157.488 68.875 158.019 66.5625 158.363 64.375C156.706 68.7812 155.191 73.2188 153.816 77.6875ZM159.206 52.9844C160.3 49.8906 161.347 46.7969 162.347 43.7031C159.159 44.0781 155.972 44.5625 152.784 45.1562C154.566 45.8125 155.988 46.8281 157.05 48.2031C158.081 49.5469 158.8 51.1406 159.206 52.9844ZM198.094 56.4062C198.438 56.5 198.297 56.7969 197.672 57.2969C197.047 57.7969 196.172 58.375 195.047 59.0312C193.953 59.6875 192.891 60.3125 191.859 60.9062C190.641 61.5938 189.844 62.0625 189.469 62.3125C187.375 63.4375 185.281 64.5625 183.188 65.6875C180.594 67.0625 178 68.4688 175.406 69.9062C175.312 70.7812 174.938 71.7188 174.281 72.7188C173.344 74.0312 172.172 75.0625 170.766 75.8125C169.359 76.5625 167.875 77.0938 166.312 77.4062C166.125 77.4062 165.906 77.4375 165.656 77.5C165.188 77.5938 164.719 77.6094 164.25 77.5469C163.75 77.5156 163.438 77.2656 163.312 76.7969C164.031 75.5781 165.031 74.6094 166.312 73.8906C166.688 73.6719 167.031 73.4375 167.344 73.1875C168.844 72.2188 170.359 71.2812 171.891 70.375C172.109 69.7188 172.109 69.0156 171.891 68.2656C171.578 67.7031 171.25 67.125 170.906 66.5312C169.875 64.9688 169.156 63.25 168.75 61.375C168.281 58.5312 168.5 56.3125 169.406 54.7188C170.312 53.125 171.406 52.0625 172.688 51.5312C174 50.9688 175.031 50.8281 175.781 51.1094C176.562 51.3594 176.562 51.9375 175.781 52.8438C174.156 53.6875 173.125 54.9375 172.688 56.5938C172.25 58.2188 172.281 59.8594 172.781 61.5156C173.094 62.4844 173.484 63.4375 173.953 64.375C174.672 65.7188 175.156 67.0625 175.406 68.4062C176.531 67.8125 177.656 67.2031 178.781 66.5781C179.25 66.3281 179.719 66.0781 180.188 65.8281C181.812 64.9531 183.453 64.0938 185.109 63.25C188.672 61.4688 192.109 59.5469 195.422 57.4844C195.609 57.3906 195.781 57.2812 195.938 57.1562C196.281 56.9062 196.625 56.7031 196.969 56.5469C197.312 56.3906 197.688 56.3438 198.094 56.4062ZM170.391 72.7656C168.984 73.5469 167.641 74.4219 166.359 75.3906C167.891 74.7344 169.234 73.8594 170.391 72.7656Z" fill="#A05428"/>
</svg>
