<svg width="246" height="126" viewBox="0 0 246 126" fill="none" xmlns="http://www.w3.org/2000/svg">
<path d="M65.8594 93.9062C66.7969 93.3438 67.625 93.2812 68.3438 93.7188C69.0938 94.1562 69.5156 94.7969 69.6094 95.6406C69.7344 96.4844 69.3281 97.2344 68.3906 97.8906C66.1094 99.0156 62.8906 100.797 58.7344 103.234C54.3594 105.766 49.4531 108.5 44.0156 111.438C38.5781 114.375 33.1562 117 27.75 119.312C22.375 121.656 17.5469 123.188 13.2656 123.906C9.01562 124.656 5.84375 124.094 3.75 122.219C1.9375 120.094 0.859375 117.328 0.515625 113.922C0.171875 110.547 0.09375 107.484 0.28125 104.734C0.5625 100.547 1.10938 96.3906 1.92188 92.2656C2.76562 88.1406 3.71875 84.0469 4.78125 79.9844C8.03125 67.8281 12.0938 55.9375 16.9688 44.3125C21.8438 32.6875 27.875 21.7031 35.0625 11.3594C37.5625 7.89062 40.3594 4.65625 43.4531 1.65625C43.9531 1.1875 44.5 0.953125 45.0938 0.953125C45.7188 0.953125 46.2812 1.1875 46.7812 1.65625C47.5312 2.5 47.6562 3.42188 47.1562 4.42188C47.1562 4.45313 46.9062 4.92188 46.4062 5.82812C45.9062 6.73437 45.2812 7.89062 44.5312 9.29688C43.7812 10.6719 43 12.0938 42.1875 13.5625C41.2188 15.4062 40.375 16.9844 39.6562 18.2969C38.9688 19.5781 38.6094 20.25 38.5781 20.3125C38.2344 20.875 37.7656 21.25 37.1719 21.4375C36.5781 21.5937 35.9844 21.5312 35.3906 21.25C35.1406 21.0938 34.9375 20.9219 34.7812 20.7344C26.7188 33.8906 19.8906 48.5625 14.2969 64.75C8.73438 80.9062 5.21875 95.3594 3.75 108.109C3.375 111.078 3.39062 114.031 3.79688 116.969C4.01562 118.344 4.51562 119.578 5.29688 120.672C6.54688 121.828 8.03125 122.406 9.75 122.406C11.4688 122.438 13.1094 122.281 14.6719 121.938C20.2031 120.594 25.4844 118.641 30.5156 116.078C35.5781 113.516 40.5156 110.766 45.3281 107.828C52.4219 103.578 59.2656 98.9375 65.8594 93.9062ZM81.825 56.4531C81.9188 56.8281 81.7 57.125 81.1688 57.3438C80.6688 57.5625 80.1219 57.7344 79.5281 57.8594C79.0594 57.9844 78.7156 58.0938 78.4969 58.1875C75.3719 59 72.2 59.4219 68.9813 59.4531C68.825 59.4531 68.6688 59.4531 68.5125 59.4531C67.2938 59.4219 65.8563 59.3438 64.2 59.2188C62.5438 59.0938 60.9656 58.7969 59.4656 58.3281C59.5281 60.7031 59.1063 63.0156 58.2 65.2656C57.325 67.5156 56.0906 69.2188 54.4969 70.375C52.6219 71.7188 50.9031 72.0938 49.3406 71.5C47.7781 70.9062 46.7781 69.4844 46.3406 67.2344C45.8719 63.1094 46.8875 59.3438 49.3875 55.9375C50.6688 54.2812 52.2469 52.9844 54.1219 52.0469C54.9969 51.7031 55.7 51.8281 56.2313 52.4219C56.5125 52.1406 56.8719 52.1094 57.3094 52.3281C58.3719 53.5469 59.0438 55.0625 59.325 56.875C60.8875 57.5 62.6375 57.9062 64.575 58.0938C66.5125 58.25 67.9813 58.3281 68.9813 58.3281C73.2 58.3594 77.2625 57.6406 81.1688 56.1719C81.2938 56.1094 81.4188 56.1094 81.5438 56.1719C81.6688 56.2344 81.7625 56.3281 81.825 56.4531ZM57.4031 55.6094C57.3094 55.1406 57.1688 54.6875 56.9813 54.25C56.9813 54.75 57.1219 55.2031 57.4031 55.6094ZM50.9813 69.625C53.3875 69.0625 55.1688 67.5781 56.325 65.1719C57.5125 62.7656 57.9969 60.2344 57.7781 57.5781C56.8094 57.0469 56.1375 56.3281 55.7625 55.4219C54.0125 56.3281 52.6063 57.6094 51.5438 59.2656C50.5125 60.8906 49.8406 62.6562 49.5281 64.5625C49.5281 64.6875 49.5125 64.8125 49.4813 64.9375C49.3875 65.8438 49.3875 66.7812 49.4813 67.75C49.6063 68.7188 50.1063 69.3438 50.9813 69.625ZM105.994 56.7812C106.15 56.625 106.306 56.5781 106.463 56.6406C106.65 56.7031 106.775 56.8125 106.838 56.9688C106.9 57.125 106.869 57.2969 106.744 57.4844C104.181 59.9531 100.978 62.6562 97.1344 65.5938C93.2906 68.5312 89.2594 71.0312 85.0406 73.0938C80.8531 75.1562 76.9625 76.1094 73.3688 75.9531C70.9 75.4531 69.5719 74.1562 69.3844 72.0625C69.1656 69.9375 69.65 67.5312 70.8375 64.8438C72.025 62.1562 73.4625 59.6875 75.15 57.4375C76.8375 55.1562 78.3219 53.5938 79.6031 52.75C80.4469 52.125 81.4156 51.6875 82.5094 51.4375C83.6344 51.1875 84.6969 51.375 85.6969 52C86.3219 52.4688 86.5875 53.0312 86.4938 53.6875C86.4 54.3125 86.0719 54.8125 85.5094 55.1875C84.9781 55.5312 84.3688 55.5312 83.6813 55.1875C82.15 55.5625 80.65 56.5625 79.1813 58.1875C77.7438 59.8125 76.4625 61.625 75.3375 63.625C74.2125 65.625 73.3844 67.3438 72.8531 68.7812C72.7594 69.0938 72.6656 69.4219 72.5719 69.7656C72.1969 70.7969 71.9938 71.8125 71.9625 72.8125C71.9313 73.7812 72.4781 74.3594 73.6031 74.5469C76.9469 74.7656 80.1656 74.1875 83.2594 72.8125C86.3531 71.4062 89.2906 69.8125 92.0719 68.0312C92.3531 67.8438 92.6188 67.6719 92.8688 67.5156C96.4625 65.2031 99.8375 62.625 102.994 59.7812C104.056 58.8438 105.056 57.8438 105.994 56.7812ZM157.537 55.9844C157.787 56.0156 157.944 56.1406 158.006 56.3594C158.1 56.5781 158.084 56.7812 157.959 56.9688C157.866 57.1562 157.678 57.25 157.397 57.25C155.959 57 154.491 56.8438 152.991 56.7812C148.584 56.5312 144.162 56.4688 139.725 56.5938C138.85 56.625 137.959 56.6562 137.053 56.6875C135.866 59.8438 134.709 63.0156 133.584 66.2031C133.616 66.5156 133.647 66.8281 133.678 67.1406C133.866 69.8906 133.428 72.6719 132.366 75.4844C131.334 78.3281 129.819 80.7188 127.819 82.6562C127.444 82.9688 127.037 83.0156 126.6 82.7969C126.194 82.6094 125.975 82.2656 125.944 81.7656C125.944 81.7656 125.944 81.75 125.944 81.7188C125.944 81.6875 125.944 81.6406 125.944 81.5781C125.944 81.5156 125.944 81.4531 125.944 81.3906C125.944 81.3281 125.944 81.2812 125.944 81.25C125.944 81.2188 125.944 81.2031 125.944 81.2031C126.506 78.8906 127.131 76.625 127.819 74.4062C129.006 70.5625 130.256 66.75 131.569 62.9688C130.881 61.6875 129.881 60.6562 128.569 59.875C126.912 62.2188 125.053 64.3125 122.991 66.1562C120.928 67.9688 118.678 69.1406 116.241 69.6719C114.241 70.0156 112.412 69.7031 110.756 68.7344C109.1 67.7656 107.944 66.3281 107.287 64.4219C107.1 63.9219 106.944 63.3906 106.819 62.8281C105.881 64.2031 104.912 65.5625 103.912 66.9062C102.912 68.2812 101.866 69.6562 100.772 71.0312C100.022 72.0625 99.0062 72.7031 97.725 72.9531C96.4125 73.0156 95.5219 72.5625 95.0531 71.5938C94.5844 70.5938 94.5375 69.5312 94.9125 68.4062C96.2875 63.0312 98.9125 58.3438 102.787 54.3438C104.1 53 105.694 51.9219 107.569 51.1094C108.381 50.8594 109.022 50.9688 109.491 51.4375C109.959 51.875 110.178 52.4219 110.147 53.0781C110.116 53.7344 109.725 54.2344 108.975 54.5781C106.694 55.6719 104.741 57.3438 103.116 59.5938C101.522 61.8125 100.272 64.1875 99.3656 66.7188C101.928 63.375 104.334 59.9375 106.584 56.4062C106.959 55.8438 107.412 55.5469 107.944 55.5156C108.506 55.4844 109.006 55.6562 109.444 56.0312C109.881 56.4062 110.069 56.9062 110.006 57.5312C109.694 58.8125 109.475 60.0781 109.35 61.3281C109.256 62.5469 109.475 63.75 110.006 64.9375C111.006 66.6875 112.272 67.6562 113.803 67.8438C115.366 68.0312 116.944 67.75 118.537 67C120.131 66.25 121.506 65.2969 122.662 64.1406C124.225 62.6406 125.709 60.9844 127.116 59.1719C126.741 59.0469 126.366 58.9375 125.991 58.8438C124.709 58.5 123.412 58.3281 122.1 58.3281C121.881 58.3281 121.709 58.25 121.584 58.0938C121.491 57.9062 121.475 57.7188 121.537 57.5312C121.6 57.3438 121.741 57.2188 121.959 57.1562C123.428 56.8125 124.912 56.5469 126.412 56.3594C127.412 56.2656 128.397 56.1719 129.366 56.0781C132.053 52.1094 134.428 47.9062 136.491 43.4688C138.553 39.0312 140.319 34.6875 141.787 30.4375C141.975 29.8125 142.131 29.1719 142.256 28.5156C142.256 28.5156 142.272 28.5 142.303 28.4688C142.303 28.4688 142.303 28.4531 142.303 28.4219C142.428 27.6094 142.803 27.0938 143.428 26.875C144.053 26.6562 144.647 26.7188 145.209 27.0625C145.772 27.375 146.037 27.9531 146.006 28.7969C145.35 32.7031 144.319 36.5156 142.912 40.2344C142.662 41.0156 142.412 41.7969 142.162 42.5781C140.662 46.9219 139.1 51.2656 137.475 55.6094C144.162 55.3906 150.85 55.5156 157.537 55.9844ZM133.678 51.8125C132.928 53.0938 132.1 54.4688 131.194 55.9375C132.131 55.875 133.084 55.8125 134.053 55.75C135.772 50.8438 137.428 45.9219 139.022 40.9844C137.397 44.6719 135.616 48.2812 133.678 51.8125ZM125.616 57.6719C126.334 57.8594 127.022 58.1094 127.678 58.4219C127.959 58.0469 128.241 57.6562 128.522 57.25C127.553 57.375 126.584 57.5156 125.616 57.6719ZM132.553 71.125C132.772 70.1562 132.881 69.1875 132.881 68.2188C131.694 71.5625 130.569 74.9219 129.506 78.2969C130.319 77.2656 130.975 76.0938 131.475 74.7812C131.975 73.5 132.334 72.2812 132.553 71.125ZM131.944 61.8906C132.506 60.2031 133.084 58.5156 133.678 56.8281C132.616 56.8906 131.537 56.9688 130.444 57.0625C130.006 57.7812 129.553 58.4844 129.084 59.1719C130.209 59.8906 131.162 60.7969 131.944 61.8906ZM175.894 56.2656C176.675 56.1719 176.941 56.3438 176.691 56.7812C176.472 57.1875 175.925 57.75 175.05 58.4688C174.175 59.1875 173.206 59.9375 172.144 60.7188C171.113 61.4688 170.175 62.125 169.331 62.6875C168.488 63.2188 167.972 63.5312 167.784 63.625C165.441 65.0938 163.034 66.4688 160.566 67.75C158.097 69 155.503 69.9844 152.784 70.7031C150.566 71.3594 149.034 70.9844 148.191 69.5781C147.347 68.1719 147.097 66.4844 147.441 64.5156C147.784 61.4219 148.863 58.6094 150.675 56.0781C151.206 55.4844 151.784 55.2812 152.409 55.4688C153.066 55.625 153.55 56 153.863 56.5938C154.175 57.1562 154.097 57.7656 153.628 58.4219C152.597 59.8906 151.738 61.5312 151.05 63.3438C150.363 65.125 150.144 66.9062 150.394 68.6875C151.05 69.3125 151.956 69.5156 153.113 69.2969C154.269 69.0781 155.363 68.75 156.394 68.3125C156.894 68.125 157.331 67.9844 157.706 67.8906C161.05 66.5156 164.269 64.875 167.363 62.9688C170.488 61.0625 173.331 58.8281 175.894 56.2656ZM153.628 51.625C152.472 51.4688 151.863 50.9531 151.8 50.0781C151.769 49.2031 152.081 48.4375 152.738 47.7812C153.425 47.125 154.238 47.0781 155.175 47.6406C155.738 48.0469 155.988 48.5625 155.925 49.1875C155.863 49.7812 155.613 50.3281 155.175 50.8281C154.738 51.3281 154.222 51.5938 153.628 51.625ZM244.641 56.125C244.984 56.3438 244.891 56.7344 244.359 57.2969C243.859 57.8281 243.125 58.4375 242.156 59.125C241.219 59.7812 240.25 60.4219 239.25 61.0469C238.281 61.6406 237.516 62.1094 236.953 62.4531C236.703 62.6094 236.531 62.7188 236.438 62.7812C233.906 64.3438 231.219 65.5625 228.375 66.4375C226.281 67.0312 224.219 67.1406 222.188 66.7656C220.156 66.3594 218.781 64.9844 218.062 62.6406C217.625 60.8281 217.516 59 217.734 57.1562C217.797 56.8438 217.844 56.4688 217.875 56.0312C217.906 55.9062 217.922 55.7656 217.922 55.6094C213.703 58.9219 209.875 62.625 206.438 66.7188C205.25 68.125 204.219 69.625 203.344 71.2188C203.25 71.4375 203.172 71.6406 203.109 71.8281H203.062C203.031 71.8594 203 71.8906 202.969 71.9219C202.938 72.0469 202.891 72.1562 202.828 72.25C202.609 72.75 202.266 73.0781 201.797 73.2344C201.359 73.4219 200.891 73.4219 200.391 73.2344C199.797 72.9531 199.438 72.5312 199.312 71.9688C199.188 71.375 199.312 70.8125 199.688 70.2812C200.281 69.1875 200.828 68.0938 201.328 67C202.391 64.8438 202.938 62.6094 202.969 60.2969C202.938 59.7031 202.859 59.125 202.734 58.5625C202.641 58 202.422 57.4844 202.078 57.0156C201.422 56.3594 199.75 55.7969 197.062 55.3281C194.406 54.8594 191.453 54.5 188.203 54.25C184.984 54 182.219 53.9062 179.906 53.9688C181.125 55.9062 181.469 58.3594 180.938 61.3281C180.406 64.2969 179.5 66.5625 178.219 68.125C176.812 70 174.969 71.2031 172.688 71.7344C170.938 71.7344 169.688 71.1406 168.938 69.9531C168.156 68.7344 167.75 67.2969 167.719 65.6406C167.656 63.9844 167.828 62.5156 168.234 61.2344C168.766 59.2656 169.656 57.4688 170.906 55.8438C172.156 54.1875 173.719 52.9062 175.594 52C176.469 51.6562 177.172 51.7656 177.703 52.3281C177.672 52.3594 177.641 52.3906 177.609 52.4219C177.672 52.4219 177.719 52.4219 177.75 52.4219C179.844 52.3906 182.719 52.4375 186.375 52.5625C190.031 52.6562 193.531 52.9688 196.875 53.5C200.219 54.0312 202.438 54.9062 203.531 56.125C204.562 57.5312 205.156 59.0625 205.312 60.7188C205.469 62.3438 205.359 64 204.984 65.6875C206.516 64.2188 208 62.7344 209.438 61.2344C211.156 59.4531 212.875 57.7656 214.594 56.1719C216.188 54.6406 217.828 53.125 219.516 51.625C220.297 51 221 51.2344 221.625 52.3281C221.938 52.9844 222.031 53.6562 221.906 54.3438C221.781 55 221.578 55.6562 221.297 56.3125C221.109 56.8125 220.969 57.2969 220.875 57.7656C220.844 57.7969 220.828 57.8438 220.828 57.9062C220.359 59.3438 220.109 60.7969 220.078 62.2656C220.172 63.7656 220.75 64.7656 221.812 65.2656C222.906 65.7656 224.156 65.9688 225.562 65.875C226.969 65.7812 228.219 65.5625 229.312 65.2188C234 63.5 238.297 61.0625 242.203 57.9062C242.828 57.4062 243.391 56.8594 243.891 56.2656C243.984 56.1406 244.094 56.0625 244.219 56.0312C244.375 56 244.516 56.0312 244.641 56.125ZM172.406 69.5781C174.719 69.0469 176.438 67.7344 177.562 65.6406C178.719 63.5156 179.344 61.3281 179.438 59.0781C179.438 58.2656 179.359 57.4219 179.203 56.5469C179.078 55.6406 178.719 54.9375 178.125 54.4375C177.969 54.8125 177.672 55.125 177.234 55.375C175.484 56.25 174.078 57.5156 173.016 59.1719C171.953 60.7969 171.281 62.5781 171 64.5156C170.906 65.0469 170.859 65.6875 170.859 66.4375C170.859 67.1562 170.969 67.8281 171.188 68.4531C171.406 69.0781 171.812 69.4531 172.406 69.5781ZM177.703 52.3281C177.703 52.3281 177.703 52.3438 177.703 52.375C177.734 52.375 177.75 52.3906 177.75 52.4219C177.719 52.3906 177.703 52.3594 177.703 52.3281Z" fill="#141312"/>
</svg>
