<svg width="200" height="96" viewBox="0 0 200 96" fill="none" xmlns="http://www.w3.org/2000/svg">
<path d="M38.2628 93.1315V84.4861H35.2262V83.8784H41.9145V84.4861H38.8775V93.1315H38.2628ZM198.487 68.7177H1.5124V67.971H198.487V68.7177ZM23.1955 21.8762L23.2565 21.7732C23.5674 21.2475 23.8984 20.7367 24.2364 20.2317L24.2848 20.1594L24.3457 20.0558C24.4328 19.9075 24.5216 19.7602 24.6171 19.6182L24.6665 19.5448L24.6708 19.5472C25.1679 18.7951 25.6716 18.0483 26.1819 17.307L26.1818 17.3069C25.8803 17.1567 25.5766 17.0113 25.2699 16.8741C24.7362 17.547 24.229 18.2443 23.7244 18.9434L23.6751 19.0116L23.672 19.0101C23.5349 19.2055 23.3951 19.3993 23.265 19.6049C22.8595 20.1685 22.4639 20.7368 22.0827 21.3191L22.0797 21.3232C21.9245 21.5365 21.7706 21.7507 21.6313 21.9791C16.2754 30.024 11.9235 38.8679 8.72347 48.188L10.6809 49.8419C11.9713 45.1949 13.794 40.3837 15.7358 35.9879C17.7818 31.3567 20.1162 26.8767 22.7403 22.6101L22.7876 22.5331L22.7868 22.5327L22.8456 22.4291C22.9393 22.2636 23.0389 22.1021 23.1462 21.9468L23.1952 21.876L23.1955 21.8762ZM27.6658 25.087C27.1142 24.769 26.5536 24.4701 25.9912 24.176C25.3653 25.2208 24.7666 26.2847 24.1804 27.3567C23.8717 27.9212 23.5665 28.488 23.2683 29.0591C22.8167 29.9237 22.3806 30.7976 21.9479 31.6721C21.6887 32.2259 21.4184 32.775 21.1582 33.3304L21.1521 33.3429L21.1455 33.354L21.1423 33.3616L21.1381 33.3685C21.1345 33.3746 21.1329 33.381 21.132 33.3882L21.1297 33.4075L21.1214 33.4246C20.8918 33.8999 20.6771 34.3837 20.4641 34.868C20.1086 35.6762 19.7553 36.4855 19.416 37.3021C19.198 37.827 18.9785 38.3513 18.7761 38.8848C18.492 39.5962 18.2199 40.3125 17.9592 41.035C17.6603 41.8096 17.3892 42.5954 17.1153 43.3797C16.3757 45.4975 15.7241 47.631 15.114 49.8006C14.8252 50.8274 14.5543 51.8604 14.2977 52.8975L16.9327 55.124C17.0506 54.3353 17.185 53.5497 17.3466 52.7725C17.4426 52.202 17.5519 51.6319 17.6869 51.0702C17.9688 49.7391 18.2855 48.4541 18.6382 47.158C18.872 46.2979 19.1258 45.4207 19.3885 44.5742C19.6135 43.8496 19.8383 43.1248 20.0831 42.409C20.3177 41.6815 20.5611 40.9562 20.8316 40.2437C21.0915 39.5242 21.3623 38.8084 21.6347 38.0935C22.1236 36.8105 22.647 35.5437 23.1866 34.2857C23.4107 33.7634 23.6465 33.2472 23.8812 32.7328C24.1012 32.2041 24.3448 31.6857 24.6026 31.1796C24.7909 30.7513 24.9864 30.3234 25.2017 29.9102C25.435 29.3982 25.6808 28.8895 25.9368 28.3872C26.1903 27.8897 26.4493 27.3957 26.6989 26.894C27.021 26.2903 27.338 25.6853 27.6658 25.0873V25.0871V25.087ZM29.1629 17.9939C29.4329 17.6087 29.7032 17.2237 29.9798 16.8441C29.3682 16.494 28.7596 16.1376 28.1414 15.7985C27.9365 15.6786 27.7298 15.5649 27.5175 15.4562C27.2464 15.2927 26.9729 15.1421 26.6991 14.9924L26.6981 14.9918L26.6978 14.9922L26.6318 14.9574C26.4524 14.863 26.2748 14.7614 26.0867 14.6788C25.1875 14.2006 24.2861 13.7363 23.3773 13.2901C22.4662 12.8426 21.5489 12.4109 20.6272 11.9908C19.453 11.4558 18.2691 10.9459 17.0746 10.4678C16.4772 10.2286 15.8793 9.99079 15.2767 9.76792L15.2186 9.74648C15.1597 9.72459 15.101 9.70217 15.0421 9.68006C15.0388 9.67887 15.0356 9.67767 15.0324 9.67636C14.1723 9.34713 13.3065 9.03532 12.4319 8.7504C12.4065 8.74126 12.3824 8.73277 12.3582 8.72416C11.7605 8.51143 11.1591 8.31121 10.5534 8.1233C9.93018 7.91535 9.30271 7.72711 8.67474 7.54116C7.93303 7.32156 7.18953 7.10904 6.44206 6.91383C6.04277 6.80953 5.64407 6.70251 5.24439 6.60028C5.23843 6.59876 5.23257 6.59756 5.22662 6.59604L3.70498 8.87669C5.51187 9.24566 7.31459 9.64054 9.10659 10.0886L9.28742 10.1337L9.28554 10.1357C10.7044 10.4928 12.1165 10.8843 13.5157 11.3262L13.517 11.3267L13.5187 11.3247L13.5747 11.3423C14.5715 11.6569 15.5618 11.9959 16.5434 12.364C17.3666 12.6727 18.1913 12.9767 19.0075 13.3049C19.831 13.6158 20.6469 13.9534 21.4576 14.3054C22.031 14.5543 22.6009 14.8127 23.1732 15.067C23.8126 15.3655 24.4513 15.6633 25.0928 15.9628C25.1218 15.9787 25.1477 15.9935 25.1739 16.0076L25.1742 16.0077C25.2109 16.0211 25.2482 16.0334 25.283 16.0524C25.3943 16.0932 25.4992 16.1484 25.6055 16.2011L25.7203 16.258L25.7181 16.261C25.9527 16.3665 26.1872 16.4722 26.4173 16.589C26.4845 16.6231 26.5511 16.6582 26.6174 16.6946L26.6175 16.6943L26.6894 16.729C26.8854 16.8235 27.0811 16.9191 27.2708 17.023C27.9051 17.334 28.5337 17.6643 29.1626 17.9938H29.1627L29.1629 17.9939ZM2.10296 11.2786L0 14.4318C1.79051 14.6706 3.57159 14.9936 5.33848 15.3916L5.47515 15.4224L5.47435 15.4238C10.9524 16.6737 16.3065 18.6326 21.4533 21.0402L21.4535 21.0401C21.8458 20.4473 22.2446 19.8593 22.6513 19.2783V19.2781C19.0375 17.3534 15.3186 15.6647 11.5182 14.2356L11.3956 14.1896L11.3973 14.1869C9.98189 13.6559 8.55395 13.1655 7.11747 12.708L7.11589 12.7076L7.11499 12.7087L7.05236 12.6889C5.4146 12.1697 3.76374 11.701 2.10296 11.2787V11.2786ZM37.0951 21.5181C36.5527 21.1166 36.0037 20.7288 35.448 20.3535C35.1191 20.1314 34.7928 19.9041 34.4542 19.6963C34.1108 19.4702 33.7747 19.2342 33.433 19.0093L32.4528 18.3821C32.2229 18.7381 32.0021 19.1011 31.7722 19.4572C31.829 19.4885 31.8839 19.52 31.9349 19.5618L31.9358 19.5623C32.7656 20.0247 33.5817 20.517 34.3859 21.0254C34.4959 21.0856 34.6079 21.1476 34.7126 21.2195C35.324 21.592 35.9285 21.9837 36.5234 22.3842C36.6112 22.4326 36.6997 22.4886 36.782 22.5486C37.0913 22.7405 37.3979 22.945 37.7075 23.146C39.2353 24.1782 40.7381 25.2535 42.2138 26.3714C42.6403 26.6945 43.0653 27.0198 43.4795 27.357C43.8444 27.6237 44.2229 27.9286 44.5776 28.2117C44.6618 28.2788 44.7445 28.3484 44.8275 28.4172C45.1022 28.6446 45.3781 28.8704 45.6445 29.1042C46.1543 29.4975 46.642 29.929 47.1281 30.3584C47.4398 30.6111 47.7476 30.873 48.0402 31.1501C48.1089 31.2072 48.1797 31.267 48.2509 31.3277C48.4184 31.4765 48.5811 31.6301 48.7444 31.7827L48.7473 31.7685L48.8723 31.8885C48.9324 31.9463 48.9922 32.0049 49.0476 32.0609C49.1039 32.1069 49.1623 32.1588 49.2248 32.2099C49.6508 32.6024 50.0805 32.9851 50.4909 33.3899C51.1582 34.0025 51.8079 34.6406 52.4511 35.2862L52.5735 35.1517C51.9254 34.4547 51.2697 33.7661 50.5997 33.0911C50.4893 32.9699 50.3671 32.8658 50.2589 32.7476C50.0748 32.5599 49.8956 32.3631 49.7011 32.1804C49.4296 31.8937 49.1478 31.6237 48.8671 31.3529L48.8252 31.3124L48.8254 31.3112L48.8244 31.3103C48.7546 31.2428 48.686 31.1734 48.6167 31.1052C48.3487 30.8411 48.0743 30.5851 47.8 30.3288C47.5158 30.0629 47.2386 29.788 46.9559 29.5222C46.5848 29.1902 46.2137 28.8562 45.8394 28.522C45.6959 28.38 45.5477 28.2479 45.4039 28.1185C45.3216 28.0584 45.2503 27.9806 45.1723 27.9097C44.8549 27.6372 44.5366 27.3636 44.2194 27.0882C44.1709 27.0461 44.1207 27.0062 44.0716 26.965C44.0269 26.9272 43.9825 26.8891 43.9379 26.8513L43.8798 26.8024C42.9659 26.0324 42.0295 25.257 41.0973 24.52C41.0529 24.4875 41.0094 24.4504 40.9615 24.4153C40.5472 24.0782 40.1222 23.7623 39.6952 23.4449C38.9499 22.8243 37.8858 22.0607 37.0952 21.5183L37.0951 21.5181ZM51.8426 42.3048L52.0334 42.1104C45.2875 34.8297 37.7112 28.444 29.5031 23.2651C29.3071 23.1269 29.109 22.9966 28.9044 22.8768C28.3931 22.5586 27.8807 22.2447 27.366 21.9359C27.3612 21.9331 27.3565 21.9302 27.3517 21.9273L27.2889 21.8899C27.1143 21.786 26.9383 21.6849 26.7671 21.5774C26.152 21.2176 25.5351 20.8576 24.916 20.5023H24.9159C24.5467 21.0565 24.1845 21.6165 23.8402 22.1897C24.4917 22.5178 25.1438 22.845 25.7869 23.1903C25.9892 23.2936 26.1922 23.398 26.3976 23.5029L26.4006 23.5046C26.8227 23.736 27.2458 23.9684 27.6666 24.2059C27.7889 24.275 27.9111 24.3446 28.0338 24.4152L28.0339 24.4149L28.1144 24.457C28.2979 24.5532 28.4786 24.6558 28.6594 24.7584C33.0862 27.2711 37.3651 30.1053 41.4554 33.2298C45.0497 35.9748 48.6222 39.0471 51.8426 42.3044V42.3048ZM41.2653 0.0596621L41.1973 0C36.0789 4.26747 31.3689 9.12122 27.1481 14.44H27.1482C27.4105 14.5762 27.6673 14.7247 27.9242 14.8728C31.8781 9.49346 36.4075 4.45147 41.2653 0.0595532V0.0596621ZM44.4598 2.44898L44.3238 2.32965C43.7014 2.84854 43.0929 3.38691 42.486 3.92725C41.9279 4.42425 41.3781 4.93257 40.8366 5.45288C40.8203 5.4679 40.8038 5.47781 40.7886 5.49109L40.7839 5.49512L40.7789 5.49849C40.764 5.50862 40.7461 5.53257 40.7292 5.54618L40.7223 5.55173L40.715 5.55347L40.7164 5.55478C40.2313 6.03273 39.7348 6.49696 39.2597 6.98863C38.5769 7.66255 37.9081 8.35182 37.2583 9.06428C36.7954 9.54245 36.3465 10.0348 35.9106 10.5426C35.5425 10.9465 35.1892 11.3641 34.8353 11.7822C34.4674 12.2007 34.1064 12.6255 33.7599 13.0661C33.357 13.5522 32.9636 14.0461 32.5752 14.5444C32.2447 14.9684 31.9119 15.3905 31.5949 15.8286C31.4081 16.0752 31.2218 16.3205 31.0354 16.5658L30.9821 16.6356L30.9827 16.636L30.9118 16.7346C30.7955 16.8961 30.6749 17.0539 30.5606 17.2171L30.5515 17.23C30.2855 17.5952 30.0282 17.9665 29.7708 18.3375L29.7649 18.346C29.6204 18.5469 29.4706 18.7423 29.3352 18.9495L29.3345 18.9507L29.3381 18.9526L29.2668 19.0566C28.7523 19.8074 28.2537 20.5712 27.7606 21.3391C28.263 21.6365 28.7618 21.9407 29.2583 22.2497C29.507 21.8255 29.7496 21.397 30.0071 20.9807C30.2431 20.5775 30.4889 20.1796 30.7266 19.7758L30.7558 19.7263H30.7648C30.8727 19.5416 30.9813 19.3573 31.0956 19.1774L31.1444 19.1006L31.1449 19.1008L31.2085 18.9988C31.4178 18.6631 31.6316 18.3307 31.8418 17.992C31.9769 17.7981 32.0937 17.5935 32.221 17.3972C32.7274 16.6165 33.2507 15.8494 33.7734 15.0821C34.2595 14.3688 34.7627 13.6697 35.2708 12.9766C37.7209 9.49117 41.3831 5.21902 44.4598 2.44898ZM34.5072 7.90664C35.102 8.28824 35.6862 8.6915 36.2405 9.14126C36.9066 8.41061 37.5949 7.70501 38.2845 7.00126C37.6513 6.61269 36.9971 6.26626 36.335 5.94139C35.7218 6.5919 35.1038 7.2374 34.5072 7.90642V7.90653V7.90664ZM13.978 42.1185C13.566 43.2021 13.173 44.2944 12.797 45.3936V45.3937C13.5896 45.9434 14.412 46.4413 15.259 46.8826C15.5398 45.9629 15.8428 45.0516 16.147 44.1411C15.3739 43.535 14.6595 42.8436 13.978 42.1186V42.1185ZM9.81356 17.3702C8.26324 16.9004 6.70101 16.4766 5.12628 16.1176C3.59452 19.3577 2.87365 22.9029 2.89012 26.5461C2.9193 32.9785 5.52686 38.7884 9.90457 43.0129C10.4335 41.6742 10.9854 40.3464 11.561 39.031L11.5611 39.0309C9.23075 35.3396 8.10861 31.0206 8.09977 26.5461C8.09352 23.3805 8.64983 20.2711 9.81356 17.3702ZM19.6081 46.2995C19.4053 47.0049 19.2007 47.71 19.0171 48.4218C19.2075 48.4801 19.3948 48.5515 19.5907 48.6053C24.4493 50.4508 29.8464 50.2766 34.6726 48.412C39.489 46.5511 43.7444 43.018 46.3973 38.1955C45.1541 37.1179 43.8819 36.0813 42.596 35.0661C40.0201 42.1479 34.1207 47.1595 27.2055 48.0296L27.2003 48.0304H27.1949C24.586 48.0501 21.9986 47.4393 19.6081 46.2994V46.2995ZM11.7903 13.559C12.1607 12.9944 12.5612 12.4539 12.9814 11.9331C11.5625 11.4916 10.1282 11.1118 8.68983 10.755C8.30582 11.1848 7.93481 11.6288 7.58217 12.0898C8.99403 12.5468 10.3989 13.0314 11.7903 13.559ZM15.7168 9.16042C16.8254 7.99102 17.9603 6.93017 19.3407 6.16098C21.0931 5.18483 22.9955 4.80312 24.9466 4.73628C26.4919 4.68336 28.0288 4.80574 29.5109 5.31689C30.6629 5.71428 31.7131 6.33039 32.7853 6.92679C33.3597 6.32494 33.9481 5.73954 34.5356 5.15326C33.8844 4.90198 33.2255 4.67291 32.5562 4.4862C29.101 3.52191 25.4261 3.24777 21.8868 3.75174C18.3353 4.25757 14.88 5.55707 11.9222 7.7969C13.1953 8.22335 14.4601 8.67877 15.7168 9.16042ZM48.9535 30.4425C49.1463 29.154 49.2612 27.8524 49.2565 26.5458C49.2293 18.9836 45.6262 12.3405 39.975 8.14333C39.2716 8.9651 38.586 9.80516 37.9153 10.6592V10.6593C41.8364 14.6727 43.8869 20.1458 44.0207 25.9937V25.9939C45.7077 27.4184 47.3537 28.9014 48.9535 30.4425ZM47.3181 36.3093C47.8377 35.1121 48.2283 33.8509 48.5406 32.5714C47.0485 31.2191 45.5201 29.915 43.9568 28.6632C43.8504 30.0202 43.6458 31.3694 43.3216 32.6845C44.6763 33.8624 46.0139 35.0643 47.318 36.3092H47.3181V36.3093ZM186.4 44.8885C186.4 46.3125 186.4 48.211 187.389 48.8216C187.45 48.8892 187.45 49.025 187.326 49.025H180.279C180.156 49.025 180.156 48.8892 180.218 48.8216C181.207 48.2111 181.207 46.3126 181.207 44.8885V5.49098L167.668 8.88116V4.13465L200 4.06704V8.81355L186.4 5.42326V44.8886L186.4 44.8885ZM165.499 49.0249H162.903C154.433 49.0249 145.594 10.1019 136.939 7.3895V44.8884C136.939 46.3124 136.939 48.211 137.928 48.8214C137.865 48.9573 137.865 48.8892 137.865 49.0249H134.713V48.8214C135.703 48.211 135.703 46.3125 135.703 44.8884V8.27115C135.703 6.77949 135.703 4.88053 134.713 4.33813C134.59 4.27041 134.651 4.13465 134.713 4.13465H140.216C149.982 4.13465 158.452 39.8027 163.274 41.0913V8.27104C163.274 6.77938 163.274 4.88042 162.345 4.33802V4.13454H165.499V4.33802C164.571 4.88032 164.571 6.77938 164.571 8.27104V44.8883C164.571 46.3123 164.571 48.2109 165.499 48.8213C165.623 48.889 165.56 49.0248 165.499 49.0248V49.0249ZM131.988 44.2783V49.0251H101.697C101.636 49.0251 101.574 48.8894 101.697 48.8217C102.686 48.2112 102.686 46.3127 102.686 44.8886V8.27093C102.686 6.77927 102.686 4.88075 101.697 4.2703C101.574 4.2703 101.636 4.13487 101.697 4.13487H130.442V8.88127L107.818 5.49109V26.2408C108.807 25.6984 112.144 24.0029 114.061 23.0536C115.605 22.24 117.152 21.9689 118.512 21.9689C121.665 21.9689 123.952 23.5283 123.952 23.5283L122.715 28.8856C122.715 28.8856 119.934 25.1557 115.483 25.2238C112.886 25.2238 108.621 26.9866 107.818 27.3259V47.6689L131.988 44.2784L131.988 44.2783ZM97.0602 48.8216C97.1826 48.8892 97.1826 49.025 97.0602 49.025H90.0117C89.9504 49.025 89.8892 48.8892 90.0117 48.8216C91.0009 48.2111 91.0009 46.3126 91.0009 44.8885V8.27115C91.0009 6.77905 91.0009 4.88064 90.0117 4.33813C89.8892 4.27052 89.9504 4.13465 90.0117 4.13465H97.0602C97.1826 4.13465 97.1826 4.27052 97.0602 4.33813C96.1323 4.88053 96.1323 6.77905 96.1323 8.27115V44.8885C96.1323 46.3125 96.1323 48.211 97.0602 48.8216ZM86.9779 49.0249H81.785C81.785 39.7351 75.788 30.2416 66.5767 29.6313C64.29 29.4278 63.919 26.2411 66.1442 25.6305C69.6687 24.6813 78.7552 22.6469 78.7552 15.459C78.7552 8.27126 75.0464 4.88053 69.1743 4.88053H59.9002V44.8885C59.9002 46.3125 59.9002 48.2111 60.8893 48.8216L60.828 49.025H53.8433L53.7809 48.8216C54.77 48.2111 54.77 46.3126 54.77 44.8885V8.27126C54.77 6.77959 54.77 4.88064 53.7809 4.33824C53.7809 4.20237 53.7809 4.20237 53.8433 4.13476H69.2963C77.3954 4.13476 84.0105 5.8299 84.0105 13.7639C84.0105 24.342 68.3699 23.7997 68.3699 27.5292C68.3699 30.6487 86.9778 31.2586 86.9778 49.0249H86.9779ZM163.653 83.8781H164.268V93.1313H163.653V83.8781ZM153.317 93.1315V83.8784H153.835L159.849 92.2986H159.572V83.8784H160.186V93.1315H159.68L153.655 84.7109H153.932V93.1315H153.317H153.317ZM145.473 88.1346H150.041V88.7298H145.473V88.1346ZM145.546 92.5236H150.752V93.1313H144.931V83.8781H150.571V84.4863H145.546V92.5237V92.5236ZM139.16 96C138.975 96 138.804 95.9736 138.648 95.9208C138.491 95.8677 138.344 95.7843 138.208 95.6696L138.377 95.2993C138.489 95.3874 138.612 95.4557 138.744 95.5043C138.877 95.5525 139.015 95.577 139.16 95.577C139.401 95.577 139.594 95.515 139.738 95.3918C139.883 95.2684 139.955 95.0966 139.955 94.8763C139.955 94.6823 139.887 94.5218 139.75 94.394C139.614 94.2663 139.417 94.2024 139.16 94.2024H138.919L139.196 93.0523H139.594L139.401 93.8451C139.722 93.8626 139.973 93.9682 140.154 94.1626C140.335 94.3561 140.425 94.6032 140.425 94.9027C140.425 95.2378 140.307 95.5043 140.069 95.7028C139.833 95.9005 139.529 96 139.16 96ZM139.232 93.1976C138.605 93.1976 138.013 93.0809 137.455 92.8473C136.896 92.6135 136.465 92.3118 136.159 91.942L136.436 91.4393C136.726 91.7655 137.121 92.0406 137.623 92.2654C138.125 92.4903 138.658 92.6024 139.22 92.6024C139.783 92.6024 140.242 92.521 140.6 92.3583C140.957 92.195 141.223 91.9767 141.395 91.7039C141.568 91.4309 141.654 91.1268 141.654 90.7918C141.654 90.395 141.558 90.078 141.365 89.8402C141.172 89.6015 140.92 89.4121 140.606 89.2715C140.293 89.1306 139.951 89.0117 139.582 88.9146C139.212 88.8179 138.838 88.7143 138.461 88.6036C138.083 88.4939 137.738 88.3505 137.424 88.1742C137.111 87.9983 136.86 87.7577 136.671 87.4536C136.482 87.1497 136.388 86.7556 136.388 86.271C136.388 85.8301 136.493 85.4251 136.702 85.0548C136.91 84.6846 137.235 84.3852 137.678 84.1557C138.12 83.927 138.686 83.8122 139.377 83.8122C139.843 83.8122 140.303 83.8872 140.757 84.0371C141.21 84.1866 141.598 84.3896 141.92 84.6453L141.691 85.1872C141.337 84.9224 140.957 84.7264 140.552 84.5986C140.146 84.4708 139.754 84.4069 139.377 84.4069C138.838 84.4069 138.393 84.4907 138.039 84.6582C137.686 84.8258 137.424 85.0479 137.256 85.3256C137.087 85.6032 137.003 85.9137 137.003 86.2572C137.003 86.654 137.097 86.9716 137.286 87.2095C137.475 87.4475 137.726 87.6369 138.039 87.7775C138.353 87.9187 138.698 88.038 139.076 88.1347C139.453 88.2315 139.827 88.3352 140.196 88.4453C140.566 88.5555 140.907 88.6985 141.221 88.8747C141.534 89.0511 141.787 89.289 141.98 89.5885C142.173 89.8883 142.269 90.2759 142.269 90.752C142.269 91.1838 142.161 91.587 141.944 91.9614C141.727 92.3362 141.396 92.6356 140.95 92.8601C140.504 93.0849 139.931 93.1974 139.232 93.1974L139.232 93.1976ZM128.896 88.1346H133.464V88.7298H128.896V88.1346ZM128.968 92.5236H134.174V93.1313H128.354V83.8781H133.994V84.4863H128.968V92.5237V92.5236ZM125.355 93.1315L121.559 88.3727L121.98 87.8836L126.102 93.1315H125.355ZM119.751 90.792L119.727 89.9459L125.102 83.8785H125.849L122.089 88.148L121.74 88.558L119.751 90.7921V90.792ZM119.221 83.8784H119.835V93.1315H119.221V83.8784ZM108.772 93.1315V89.7741L108.917 90.2102L105.374 83.8784H106.049L109.266 89.6285H108.929L112.147 83.8784H112.786L109.243 90.2102L109.387 89.7741V93.1315H108.772H108.772ZM100.842 82.7678C100.729 82.7678 100.629 82.7215 100.541 82.6293C100.452 82.5367 100.408 82.4243 100.408 82.2919C100.408 82.1511 100.452 82.0365 100.541 81.9481C100.629 81.86 100.729 81.8161 100.842 81.8161C100.963 81.8161 101.065 81.86 101.149 81.9481C101.233 82.0365 101.276 82.1511 101.276 82.2919C101.276 82.4243 101.234 82.5367 101.149 82.6293C101.065 82.7214 100.963 82.7678 100.842 82.7678ZM98.769 82.7678C98.6484 82.7678 98.5462 82.7215 98.4615 82.6293C98.3776 82.5367 98.3353 82.4243 98.3353 82.2919C98.3353 82.1511 98.3775 82.0365 98.4615 81.9481C98.5462 81.86 98.6484 81.8161 98.769 81.8161C98.8893 81.8161 98.9919 81.86 99.0762 81.9481C99.1606 82.0365 99.2029 82.1511 99.2029 82.2919C99.2029 82.4243 99.1607 82.5367 99.0762 82.6293C98.9919 82.7214 98.8893 82.7678 98.769 82.7678ZM99.7935 93.1977C98.7489 93.1977 97.9257 92.8632 97.3231 92.1931C96.7202 91.5234 96.4189 90.5273 96.4189 89.2055V83.878H97.0337V89.1791C97.0337 90.3335 97.2746 91.1883 97.7568 91.7436C98.2387 92.2987 98.9214 92.5766 99.8052 92.5766C100.681 92.5766 101.36 92.2987 101.842 91.7436C102.324 91.1882 102.565 90.3334 102.565 89.1791V83.878H103.18V89.2055C103.18 90.5273 102.878 91.5234 102.276 92.1931C101.673 92.8632 100.846 93.1977 99.7933 93.1977H99.7935ZM81.7772 93.1315V83.8784H82.2953L88.309 92.2986H88.0318V83.8784H88.6465V93.1315H88.1402L82.1147 84.7109H82.3918V93.1315H81.7772H81.7772ZM75.5422 93.1315V89.7741L75.6869 90.2102L72.1436 83.8784H72.8186L76.0362 89.6285H75.6987L78.9163 83.8784H79.5551L76.0122 90.2102L76.1569 89.7741V93.1315H75.5422ZM69.6902 91.9419V88.5444H70.2806V92.0082L69.6902 91.942V91.9419ZM67.0751 83.1909C66.6009 83.1909 66.1971 83.0453 65.8637 82.7545C65.5305 82.4638 65.3557 82.0717 65.3397 81.578H65.7856C65.8016 81.9398 65.9342 82.2259 66.1831 82.437C66.4321 82.649 66.7295 82.7545 67.075 82.7545C67.4286 82.7545 67.7298 82.649 67.9788 82.437C68.2277 82.2259 68.3564 81.9398 68.3645 81.578H68.8104C68.7944 82.0717 68.6193 82.4638 68.2863 82.7545C67.9526 83.0453 67.5489 83.1909 67.075 83.1909H67.0751ZM67.268 93.1976C66.633 93.1976 66.0466 93.0812 65.5085 92.8472C64.9702 92.614 64.5021 92.2854 64.1043 91.8623C63.7069 91.4397 63.3993 90.944 63.1825 90.3752C62.9656 89.8069 62.8571 89.1835 62.8571 88.505C62.8571 87.8261 62.9656 87.2027 63.1825 86.6342C63.3993 86.0659 63.7086 85.5702 64.1107 85.1472C64.5123 84.7242 64.9802 84.396 65.5145 84.1623C66.0486 83.929 66.6372 83.812 67.2798 83.812C67.8903 83.812 68.4568 83.9179 68.9792 84.129C69.5011 84.341 69.9471 84.658 70.3168 85.0813L69.9311 85.5304C69.5615 85.1338 69.1577 84.8519 68.7201 84.6844C68.2819 84.5172 67.8059 84.4332 67.2919 84.4332C66.7455 84.4332 66.2395 84.5349 65.7734 84.7371C65.3076 84.9403 64.9017 85.2264 64.5561 85.5966C64.211 85.9669 63.9438 86.3986 63.7548 86.8921C63.5663 87.3858 63.4718 87.9232 63.4718 88.505C63.4718 89.0864 63.5663 89.6241 63.7548 90.1175C63.9438 90.6112 64.211 91.0426 64.5561 91.4129C64.9016 91.7831 65.3075 92.0697 65.7734 92.2723C66.2395 92.4754 66.7455 92.5764 67.2919 92.5764C67.7898 92.5764 68.2619 92.4926 68.7078 92.3251C69.1539 92.1576 69.5614 91.8803 69.931 91.4921L70.2804 92.0081C69.9027 92.4043 69.4508 92.7018 68.9247 92.9004C68.3985 93.0984 67.8462 93.1976 67.2678 93.1976H67.268ZM60.1182 93.1316L57.9248 89.7742H58.6238L60.817 93.1316H60.1182ZM54.8758 89.8267L54.5987 89.5096H57.2864C58.194 89.5096 58.8833 89.2892 59.353 88.8486C59.823 88.408 60.058 87.7911 60.058 86.9978C60.058 86.1961 59.823 85.5769 59.353 85.1405C58.8833 84.7046 58.194 84.4861 57.2864 84.4861H54.5987L54.8758 84.1557V89.8267ZM54.2615 93.1316V83.8785H57.2863C57.993 83.8785 58.5998 84.0019 59.106 84.2483C59.6119 84.4953 60.0017 84.8499 60.2748 85.3128C60.5478 85.7755 60.6849 86.337 60.6849 86.9979C60.6849 87.6415 60.5479 88.1943 60.2748 88.6571C60.0018 89.1198 59.6119 89.4763 59.106 89.728C58.5997 89.9789 57.993 90.1045 57.2863 90.1045H54.5986L54.8757 89.7873V93.1316H54.2614H54.2615ZM47.4708 93.1977C46.4262 93.1977 45.603 92.8631 45.0004 92.193C44.3979 91.5233 44.0967 90.5276 44.0967 89.2055V83.8784H44.711V89.179C44.711 90.3338 44.9519 91.1883 45.4341 91.7435C45.9163 92.2986 46.5991 92.5766 47.4828 92.5766C48.3584 92.5766 49.0372 92.2986 49.5192 91.7435C50.0015 91.1882 50.2422 90.3337 50.2422 89.179V83.8784H50.857V89.2055C50.857 90.5276 50.5558 91.5233 49.9532 92.193C49.3507 92.8631 48.5229 93.1977 47.4706 93.1977H47.4708Z" fill="#FDFBF6"/>
</svg>
