<svg width="180" height="100" viewBox="0 0 180 100" fill="none" xmlns="http://www.w3.org/2000/svg">
<path d="M34.4365 96.1912V87.275H31.7036V86.6482H37.723V87.275H34.9897V96.1912H34.4365ZM178.638 71.0127H1.36116V70.2427H178.638V71.0127ZM20.876 22.7042L20.9308 22.598C21.2107 22.0559 21.5086 21.5291 21.8128 21.0082L21.8563 20.9336L21.9111 20.8269C21.9895 20.6739 22.0695 20.522 22.1554 20.3755L22.1999 20.2998L22.2037 20.3023C22.6511 19.5266 23.1044 18.7565 23.5637 17.992L23.5636 17.9918C23.2923 17.8369 23.0189 17.687 22.7429 17.5455C22.2626 18.2394 21.8061 18.9586 21.352 19.6796L21.3076 19.75L21.3048 19.7484C21.1814 19.9499 21.0556 20.1498 20.9385 20.3618C20.5735 20.9431 20.2176 21.5292 19.8744 22.1297L19.8718 22.1339C19.7321 22.3539 19.5935 22.5749 19.4682 22.8103C14.6478 31.1072 10.7311 40.2281 7.85113 49.8401L9.61283 51.5458C10.7742 46.7533 12.4146 41.7914 14.1623 37.2579C16.0036 32.4816 18.1046 27.8613 20.4662 23.4611L20.5088 23.3817L20.5081 23.3813L20.561 23.2745C20.6453 23.1038 20.735 22.9372 20.8316 22.7771L20.8757 22.704L20.876 22.7042ZM24.8993 26.0156C24.4028 25.6877 23.8983 25.3793 23.3921 25.0761C22.8288 26.1536 22.2899 27.2509 21.7624 28.3564C21.4846 28.9386 21.2099 29.5231 20.9415 30.1121C20.535 31.0038 20.1425 31.9051 19.7531 32.8069C19.5198 33.3781 19.2766 33.9443 19.0424 34.5172L19.0369 34.5301L19.0309 34.5416L19.0281 34.5493L19.0243 34.5565C19.021 34.5628 19.0196 34.5694 19.0188 34.5768L19.0167 34.5967L19.0092 34.6143C18.8026 35.1045 18.6094 35.6034 18.4177 36.103C18.0977 36.9364 17.7797 37.7711 17.4744 38.6132C17.2782 39.1546 17.0807 39.6953 16.8985 40.2455C16.6428 40.9793 16.3979 41.718 16.1633 42.4631C15.8943 43.262 15.6503 44.0723 15.4038 44.8812C14.7381 47.0653 14.1517 49.2657 13.6026 51.5032C13.3427 52.5622 13.0989 53.6275 12.8679 54.6971L15.2394 56.9933C15.3456 56.1799 15.4665 55.3697 15.6119 54.5682C15.6983 53.9798 15.7967 53.3918 15.9182 52.8126C16.1719 51.4398 16.457 50.1145 16.7744 48.7778C16.9848 47.8908 17.2132 46.9861 17.4497 46.1131C17.6522 45.3658 17.8545 44.6183 18.0748 43.8801C18.2859 43.1298 18.505 42.3818 18.7485 41.647C18.9823 40.9049 19.2261 40.1668 19.4712 39.4294C19.9112 38.1063 20.3823 36.7998 20.8679 35.5024C21.0696 34.9637 21.2819 34.4314 21.4931 33.9009C21.6911 33.3556 21.9103 32.8209 22.1424 32.2991C22.3118 31.8573 22.4878 31.416 22.6815 30.9899C22.8915 30.4618 23.1127 29.9372 23.3431 29.4191C23.5712 28.9061 23.8044 28.3966 24.029 27.8792C24.3189 27.2566 24.6042 26.6326 24.8993 26.0159V26.0158V26.0156ZM26.2466 18.7003C26.4896 18.3031 26.7329 17.9061 26.9818 17.5145C26.4314 17.1534 25.8836 16.7859 25.3272 16.4362C25.1429 16.3126 24.9568 16.1953 24.7657 16.0832C24.5218 15.9145 24.2756 15.7592 24.0292 15.6048L24.0283 15.6043L24.0281 15.6046L23.9687 15.5688C23.8072 15.4714 23.6474 15.3666 23.478 15.2815C22.6688 14.7882 21.8575 14.3094 21.0395 13.8492C20.2196 13.3877 19.394 12.9425 18.5645 12.5092C17.5077 11.9575 16.4421 11.4316 15.3671 10.9385C14.8294 10.6918 14.2913 10.4466 13.749 10.2168L13.6968 10.1946C13.6437 10.1721 13.5909 10.1489 13.5379 10.1261C13.5349 10.1249 13.5321 10.1237 13.5292 10.1223C12.7551 9.78278 11.9759 9.46121 11.1887 9.16736C11.1659 9.15793 11.1442 9.14917 11.1224 9.1403C10.5844 8.92091 10.0432 8.71442 9.49805 8.52062C8.93716 8.30616 8.37244 8.11202 7.80727 7.92025C7.13973 7.69377 6.47058 7.4746 5.79786 7.27328C5.43849 7.16571 5.07967 7.05534 4.71995 6.9499C4.71459 6.94833 4.70932 6.9471 4.70396 6.94552L3.33449 9.29761C4.96068 9.67814 6.58313 10.0854 8.19593 10.5474L8.35868 10.594L8.35698 10.596C9.634 10.9643 10.9049 11.3681 12.1641 11.8238L12.1653 11.8243L12.1669 11.8223L12.2172 11.8405C13.1144 12.1648 14.0057 12.5145 14.889 12.8941C15.6299 13.2126 16.3722 13.526 17.1067 13.8645C17.8479 14.1851 18.5822 14.5333 19.3119 14.8963C19.8279 15.153 20.3408 15.4196 20.8559 15.6818C21.4313 15.9896 22.0061 16.2967 22.5836 16.6056C22.6096 16.622 22.633 16.6373 22.6565 16.6519L22.6568 16.652C22.6899 16.6658 22.7234 16.6785 22.7547 16.698C22.8548 16.7401 22.9493 16.797 23.0449 16.8514L23.1483 16.9101L23.1463 16.9131C23.3574 17.0219 23.5685 17.131 23.7755 17.2515C23.836 17.2866 23.8959 17.3229 23.9556 17.3604L23.9558 17.36L24.0205 17.3958C24.1969 17.4933 24.373 17.5919 24.5437 17.699C25.1146 18.0198 25.6803 18.3605 26.2463 18.7002H26.2464L26.2466 18.7003ZM1.89266 11.7748L0 15.0267C1.61146 15.2729 3.21443 15.6061 4.80463 16.0166L4.92763 16.0484L4.92692 16.0498C9.85714 17.3388 14.6759 19.3591 19.3079 21.8421L19.3081 21.842C19.6612 21.2306 20.0201 20.6242 20.3862 20.0249V20.0248C17.1337 18.0398 13.7867 16.2982 10.3664 14.8244L10.2561 14.7769L10.2576 14.7742C8.9837 14.2265 7.69855 13.7207 6.40573 13.2489L6.4043 13.2485L6.40349 13.2496L6.34713 13.2292C4.87314 12.6937 3.38737 12.2103 1.89266 11.7749V11.7748ZM33.3856 22.3349C32.8974 21.9208 32.4034 21.5209 31.9032 21.1338C31.6072 20.9048 31.3135 20.6703 31.0088 20.4561C30.6997 20.2229 30.3973 19.9795 30.0897 19.7476L29.2075 19.1007C29.0006 19.4679 28.8019 19.8423 28.595 20.2095C28.6461 20.2418 28.6955 20.2742 28.7414 20.3173L28.7422 20.3179C29.4891 20.7947 30.2235 21.3025 30.9473 21.8268C31.0463 21.8889 31.1472 21.9528 31.2413 22.0269C31.7916 22.4112 32.3356 22.8151 32.8711 23.2281C32.95 23.2781 33.0297 23.3358 33.1038 23.3977C33.3822 23.5956 33.6581 23.8065 33.9367 24.0138C35.3118 25.0783 36.6643 26.1873 37.9925 27.3402C38.3763 27.6735 38.7588 28.009 39.1316 28.3567C39.4599 28.6317 39.8006 28.9462 40.1199 29.2381C40.1956 29.3074 40.27 29.3792 40.3448 29.4501C40.592 29.6846 40.8403 29.9174 41.08 30.1586C41.5389 30.5642 41.9778 31.0093 42.4153 31.4521C42.6958 31.7127 42.9729 31.9828 43.2362 32.2686C43.298 32.3275 43.3617 32.3891 43.4258 32.4518C43.5766 32.6053 43.723 32.7636 43.87 32.921L43.8726 32.9064L43.985 33.0301C44.0392 33.0898 44.093 33.1502 44.1428 33.2079C44.1935 33.2554 44.2461 33.3089 44.3023 33.3616C44.6857 33.7664 45.0724 34.161 45.4418 34.5785C46.0424 35.2103 46.6271 35.8684 47.206 36.5342L47.3161 36.3956C46.7328 35.6767 46.1427 34.9665 45.5397 34.2704C45.4404 34.1454 45.3304 34.038 45.233 33.9161C45.0673 33.7226 44.906 33.5196 44.731 33.3312C44.4866 33.0355 44.233 32.7571 43.9804 32.4777L43.9427 32.4359L43.9429 32.4347L43.942 32.4338C43.8791 32.3642 43.8174 32.2927 43.755 32.2223C43.5138 31.9499 43.2669 31.6859 43.02 31.4216C42.7642 31.1474 42.5147 30.8639 42.2603 30.5897C41.9263 30.2473 41.5923 29.9028 41.2555 29.5581C41.1263 29.4117 40.993 29.2755 40.8635 29.142C40.7895 29.08 40.7252 28.9999 40.6551 28.9267C40.3694 28.6456 40.083 28.3635 39.7975 28.0795C39.7538 28.036 39.7086 27.9949 39.6645 27.9524C39.6242 27.9134 39.5843 27.8741 39.5441 27.8352L39.4918 27.7848C38.6693 26.9906 37.8266 26.1909 36.9875 25.4309C36.9476 25.3973 36.9085 25.359 36.8653 25.3229C36.4925 24.9752 36.11 24.6494 35.7257 24.3221C35.0549 23.6821 34.0973 22.8945 33.3857 22.3351L33.3856 22.3349ZM46.6583 43.7726L46.83 43.5722C40.7587 36.0634 33.94 29.4777 26.5528 24.1366C26.3764 23.9941 26.1981 23.8597 26.014 23.7362C25.5538 23.408 25.0927 23.0843 24.6294 22.7659C24.6251 22.7629 24.6208 22.7599 24.6165 22.757L24.56 22.7184C24.4029 22.6112 24.2445 22.5069 24.0904 22.3961C23.5368 22.025 22.9816 21.6537 22.4244 21.2873H22.4243C22.092 21.8588 21.766 22.4364 21.4562 23.0276C22.0425 23.3659 22.6294 23.7034 23.2082 24.0595C23.3903 24.166 23.5729 24.2737 23.7578 24.3819L23.7605 24.3836C24.1404 24.6223 24.5212 24.8619 24.9 25.1069C25.01 25.1781 25.12 25.25 25.2304 25.3227L25.2305 25.3224L25.3029 25.3659C25.4681 25.4651 25.6308 25.5709 25.7934 25.6767C29.7776 28.2681 33.6286 31.1911 37.3098 34.4134C40.5447 37.2444 43.7599 40.4129 46.6583 43.7723V43.7726ZM37.1388 0.204441L37.0776 0.14291C32.471 4.54403 28.232 9.5498 24.4332 15.0351H24.4333C24.6694 15.1756 24.9006 15.3287 25.1318 15.4816C28.6903 9.93369 32.7667 4.73379 37.1388 0.204328V0.204441ZM40.0138 2.66858L39.8915 2.54552C39.3313 3.08066 38.7836 3.6359 38.2374 4.19315C37.7351 4.70572 37.2403 5.22997 36.753 5.76656C36.7383 5.78206 36.7234 5.79227 36.7097 5.80597L36.7055 5.81013L36.7011 5.81361C36.6876 5.82405 36.6715 5.84875 36.6563 5.86279L36.6501 5.86851L36.6435 5.87031L36.6448 5.87166C36.2081 6.36458 35.7613 6.84335 35.3337 7.35041C34.7192 8.04544 34.1173 8.7563 33.5324 9.49107C33.1158 9.98422 32.7119 10.492 32.3196 11.0156C31.9883 11.4322 31.6703 11.8629 31.3518 12.2941C31.0207 12.7257 30.6958 13.1638 30.3839 13.6182C30.0213 14.1196 29.6673 14.6289 29.3176 15.1428C29.0202 15.5801 28.7207 16.0155 28.4355 16.4673C28.2673 16.7216 28.0996 16.9746 27.9318 17.2275L27.8839 17.2995L27.8844 17.3L27.8206 17.4016C27.7159 17.5682 27.6074 17.7309 27.5046 17.8992L27.4964 17.9126C27.257 18.2892 27.0253 18.672 26.7937 19.0547L26.7884 19.0635C26.6584 19.2706 26.5235 19.4722 26.4017 19.6858L26.401 19.6871L26.4042 19.6891L26.3401 19.7963C25.877 20.5706 25.4284 21.3584 24.9846 22.1503C25.4367 22.4571 25.8856 22.7708 26.3324 23.0895C26.5563 22.652 26.7746 22.2101 27.0064 21.7807C27.2188 21.3649 27.44 20.9545 27.6539 20.5381L27.6802 20.487H27.6883C27.7854 20.2965 27.8831 20.1065 27.986 19.921L28.03 19.8417L28.0304 19.8419L28.0876 19.7367C28.276 19.3905 28.4684 19.0477 28.6576 18.6984C28.7792 18.4985 28.8843 18.2874 28.9989 18.0849C29.4547 17.2799 29.9256 16.4887 30.3961 15.6974C30.8335 14.9617 31.2864 14.2407 31.7437 13.5259C33.9488 9.93133 37.2448 5.52538 40.0138 2.66858ZM31.0565 8.29718C31.5918 8.69073 32.1176 9.10662 32.6165 9.57046C33.216 8.81693 33.8354 8.08923 34.4561 7.36344C33.8862 6.9627 33.2974 6.60542 32.7015 6.27037C32.1496 6.94126 31.5934 7.60698 31.0565 8.29695V8.29706V8.29718ZM12.5802 43.5805C12.2094 44.698 11.8557 45.8246 11.5173 46.9582V46.9583C12.2306 47.5252 12.9708 48.0387 13.7331 48.4939C13.9858 47.5453 14.2585 46.6055 14.5323 45.6665C13.8365 45.0414 13.1936 44.3283 12.5802 43.5806V43.5805ZM8.8322 18.0571C7.43692 17.5726 6.03091 17.1356 4.61365 16.7653C3.23507 20.1069 2.58628 23.7631 2.60111 27.5204C2.62737 34.1543 4.97417 40.1461 8.91412 44.5029C9.39014 43.1223 9.88689 41.7529 10.4049 40.3963L10.405 40.3962C8.30768 36.5892 7.29775 32.135 7.2898 27.5204C7.28417 24.2556 7.78485 21.0488 8.8322 18.0571ZM17.6473 47.8925C17.4648 48.6199 17.2807 49.3471 17.1154 50.0812C17.2867 50.1414 17.4553 50.215 17.6316 50.2705C22.0044 52.1738 26.8618 51.9941 31.2053 50.0711C35.5401 48.152 39.37 44.5082 41.7576 39.5346C40.6387 38.4233 39.4937 37.3542 38.3364 36.3072C36.0181 43.6108 30.7086 48.7794 24.485 49.6767L24.4802 49.6775H24.4754C22.1274 49.6979 19.7987 49.068 17.6473 47.8924V47.8925ZM10.6112 14.1265C10.9446 13.5442 11.305 12.9869 11.6833 12.4497C10.4062 11.9944 9.11537 11.6028 7.82084 11.2347C7.47524 11.678 7.14133 12.1359 6.82396 12.6114C8.09463 13.0826 9.35896 13.5824 10.6112 14.1265ZM14.1451 9.59022C15.1429 8.3842 16.1643 7.29012 17.4066 6.49685C18.9838 5.49012 20.696 5.09646 22.452 5.02752C23.8427 4.97295 25.2259 5.09916 26.5598 5.62632C27.5966 6.03615 28.5418 6.67156 29.5068 7.28664C30.0238 6.66594 30.5533 6.0622 31.082 5.45756C30.496 5.19841 29.9029 4.96217 29.3006 4.76961C26.1909 3.77513 22.8835 3.4924 19.6981 4.01215C16.5017 4.53382 13.392 5.87402 10.73 8.184C11.8758 8.62381 13.0141 9.09348 14.1451 9.59022ZM44.0581 31.5388C44.2317 30.2099 44.3351 28.8676 44.3308 27.5201C44.3064 19.7211 41.0636 12.8699 35.9775 8.54128C35.3444 9.38878 34.7274 10.2552 34.1238 11.1359V11.136C37.6527 15.2752 39.4982 20.9196 39.6187 26.9507V26.951C41.1369 28.42 42.6183 29.9494 44.0581 31.5388ZM42.5863 37.5893C43.0539 36.3547 43.4055 35.054 43.6865 33.7344C42.3437 32.3397 40.9681 30.9948 39.5611 29.7038C39.4654 31.1033 39.2813 32.4948 38.9894 33.851C40.2087 35.0658 41.4125 36.3054 42.5862 37.5892H42.5863V37.5893ZM167.76 46.4373C167.76 47.9058 167.76 49.8638 168.65 50.4935C168.705 50.5632 168.705 50.7033 168.594 50.7033H162.251C162.14 50.7033 162.14 50.5632 162.197 50.4935C163.086 49.8639 163.086 47.9059 163.086 46.4373V5.80586L150.902 9.30221V4.40705L180 4.33732V9.23249L167.76 5.73602V46.4374L167.76 46.4373ZM148.949 50.7032H146.612C138.99 50.7032 131.034 10.5612 123.245 7.76384V46.4372C123.245 47.9057 123.245 49.8638 124.135 50.4934C124.079 50.6335 124.079 50.5632 124.079 50.7032H121.242V50.4934C122.132 49.8638 122.132 47.9058 122.132 46.4372V8.6731C122.132 7.13472 122.132 5.17629 121.242 4.6169C121.131 4.54707 121.186 4.40705 121.242 4.40705H126.194C134.984 4.40705 142.607 41.1921 146.946 42.5211V8.67299C146.946 7.13461 146.946 5.17618 146.111 4.61679V4.40694H148.949V4.61679C148.114 5.17607 148.114 7.13461 148.114 8.67299V46.4371C148.114 47.9056 148.114 49.8637 148.949 50.4933C149.06 50.5631 149.004 50.7031 148.949 50.7031V50.7032ZM118.789 45.808V50.7035H91.5274C91.4724 50.7035 91.4162 50.5634 91.5274 50.4936C92.4176 49.864 92.4176 47.9061 92.4176 46.4374V8.67287C92.4176 7.1345 92.4176 5.17652 91.5274 4.54695C91.4162 4.54695 91.4724 4.40727 91.5274 4.40727H117.398V9.30233L97.0359 5.80597V27.2055C97.9261 26.6461 100.929 24.8975 102.655 23.9185C104.045 23.0795 105.437 22.7999 106.66 22.7999C109.499 22.7999 111.556 24.4081 111.556 24.4081L110.444 29.9332C110.444 29.9332 107.941 26.0865 103.935 26.1567C101.597 26.1567 97.7585 27.9747 97.0358 28.3246V49.3048L118.789 45.8081L118.789 45.808ZM87.3542 50.4935C87.4643 50.5632 87.4643 50.7033 87.3542 50.7033H81.0105C80.9553 50.7033 80.9003 50.5632 81.0105 50.4935C81.9008 49.8639 81.9008 47.9059 81.9008 46.4373V8.6731C81.9008 7.13427 81.9008 5.17641 81.0105 4.6169C80.9003 4.54718 80.9553 4.40705 81.0105 4.40705H87.3542C87.4643 4.40705 87.4643 4.54718 87.3542 4.6169C86.5191 5.17629 86.5191 7.13427 86.5191 8.6731V46.4373C86.5191 47.9058 86.5191 49.8638 87.3542 50.4935ZM78.2801 50.7032H73.6065C73.6065 41.1224 68.2092 31.3316 59.919 30.7022C57.861 30.4923 57.5271 27.2058 59.5298 26.5762C62.7018 25.5972 70.8797 23.4991 70.8797 16.0861C70.8797 8.67321 67.5417 5.17629 62.2569 5.17629H53.9102V46.4373C53.9102 47.9058 53.9102 49.8639 54.8004 50.4935L54.7452 50.7033H48.459L48.4028 50.4935C49.293 49.8639 49.293 47.9059 49.293 46.4373V8.67321C49.293 7.13483 49.293 5.17641 48.4028 4.61702C48.4028 4.47689 48.4028 4.47689 48.459 4.40716H62.3667C69.6558 4.40716 75.6095 6.1554 75.6095 14.3378C75.6095 25.2473 61.5329 24.688 61.5329 28.5342C61.5329 31.7515 78.28 32.3805 78.28 50.7032H78.2801ZM147.288 86.648H147.841V96.191H147.288V86.648ZM137.986 96.1912V86.6482H138.452L143.864 95.3321H143.614V86.6482H144.168V96.1912H143.712L138.289 87.5068H138.539V96.1912H137.986H137.986ZM130.926 91.0378H135.037V91.6516H130.926V91.0378ZM130.991 95.5642H135.676V96.191H130.438V86.648H135.514V87.2752H130.991V95.5643V95.5642ZM125.244 99.1495C125.077 99.1495 124.924 99.1223 124.783 99.0679C124.642 99.0131 124.51 98.9271 124.387 98.8087L124.539 98.4269C124.64 98.5177 124.751 98.5882 124.87 98.6383C124.989 98.688 125.114 98.7133 125.244 98.7133C125.461 98.7133 125.634 98.6493 125.764 98.5223C125.895 98.395 125.96 98.2178 125.96 97.9906C125.96 97.7906 125.898 97.625 125.775 97.4932C125.652 97.3615 125.475 97.2956 125.244 97.2956H125.027L125.276 96.1095H125.634L125.461 96.9271C125.75 96.9452 125.976 97.0541 126.139 97.2545C126.301 97.4542 126.383 97.7089 126.383 98.0178C126.383 98.3634 126.276 98.6383 126.063 98.843C125.849 99.0469 125.576 99.1495 125.244 99.1495ZM125.309 96.2594C124.745 96.2594 124.212 96.139 123.709 95.898C123.207 95.657 122.818 95.3458 122.543 94.9644L122.793 94.446C123.053 94.7824 123.409 95.0661 123.861 95.298C124.313 95.5299 124.792 95.6455 125.298 95.6455C125.804 95.6455 126.218 95.5615 126.54 95.3938C126.862 95.2254 127.1 95.0002 127.256 94.7188C127.411 94.4374 127.489 94.1236 127.489 93.7781C127.489 93.369 127.402 93.042 127.229 92.7968C127.055 92.5506 126.828 92.3553 126.545 92.2102C126.263 92.0649 125.956 91.9423 125.623 91.8422C125.291 91.7425 124.954 91.6356 124.615 91.5215C124.275 91.4083 123.964 91.2604 123.682 91.0787C123.4 90.8972 123.174 90.6491 123.004 90.3355C122.834 90.022 122.749 89.6156 122.749 89.1158C122.749 88.6611 122.843 88.2434 123.031 87.8615C123.219 87.4797 123.512 87.1709 123.91 86.9342C124.308 86.6984 124.817 86.58 125.439 86.58C125.858 86.58 126.272 86.6573 126.681 86.8119C127.089 86.9661 127.438 87.1755 127.728 87.4391L127.522 87.9981C127.203 87.725 126.862 87.5228 126.497 87.391C126.131 87.2593 125.779 87.1934 125.439 87.1934C124.955 87.1934 124.554 87.2797 124.235 87.4525C123.917 87.6253 123.682 87.8544 123.53 88.1408C123.378 88.4271 123.302 88.7473 123.302 89.1016C123.302 89.5107 123.387 89.8384 123.557 90.0837C123.727 90.3292 123.953 90.5244 124.235 90.6695C124.517 90.8151 124.828 90.9382 125.168 91.0379C125.508 91.1377 125.844 91.2446 126.177 91.3582C126.509 91.4719 126.817 91.6193 127.099 91.8011C127.381 91.983 127.608 92.2283 127.782 92.5372C127.956 92.8464 128.042 93.2462 128.042 93.7372C128.042 94.1825 127.945 94.5983 127.749 94.9844C127.554 95.371 127.256 95.6798 126.855 95.9113C126.453 96.1431 125.938 96.2591 125.309 96.2591L125.309 96.2594ZM116.006 91.0378H120.117V91.6516H116.006V91.0378ZM116.072 95.5642H120.757V96.191H115.518V86.648H120.594V87.2752H116.072V95.5643V95.5642ZM112.819 96.1912L109.403 91.2833L109.782 90.7789L113.492 96.1912H112.819ZM107.776 93.7784L107.754 92.9058L112.591 86.6483H113.264L109.88 91.0516L109.566 91.4745L107.776 93.7785V93.7784ZM107.299 86.6482H107.852V96.1912H107.299V86.6482ZM97.895 96.1912V92.7286L98.0253 93.1783L94.8367 86.6482H95.444L98.3398 92.5784H98.036L100.932 86.6482H101.507L98.3184 93.1783L98.4484 92.7286V96.1912H97.8951H97.895ZM90.7577 85.5028C90.6564 85.5028 90.566 85.4551 90.4866 85.36C90.4069 85.2646 90.3671 85.1486 90.3671 85.0121C90.3671 84.8669 90.4069 84.7486 90.4866 84.6575C90.566 84.5666 90.6564 84.5214 90.7577 84.5214C90.8663 84.5214 90.9583 84.5666 91.0342 84.6575C91.1101 84.7486 91.1482 84.8669 91.1482 85.0121C91.1482 85.1486 91.1102 85.2646 91.0342 85.36C90.9583 85.455 90.8663 85.5028 90.7577 85.5028ZM88.8921 85.5028C88.7836 85.5028 88.6916 85.4551 88.6154 85.36C88.5398 85.2646 88.5018 85.1486 88.5018 85.0121C88.5018 84.8669 88.5397 84.7486 88.6154 84.6575C88.6916 84.5666 88.7836 84.5214 88.8921 84.5214C89.0004 84.5214 89.0928 84.5666 89.1686 84.6575C89.2445 84.7486 89.2826 84.8669 89.2826 85.0121C89.2826 85.1486 89.2446 85.2646 89.1686 85.36C89.0928 85.455 89.0004 85.5028 88.8921 85.5028ZM89.8142 96.2595C88.874 96.2595 88.1331 95.9144 87.5908 95.2233C87.0481 94.5327 86.777 93.5054 86.777 92.1422V86.6479H87.3303V92.115C87.3303 93.3056 87.5471 94.1871 87.9811 94.7598C88.4148 95.3322 89.0292 95.6189 89.8247 95.6189C90.613 95.6189 91.2239 95.3322 91.658 94.7598C92.0914 94.187 92.3082 93.3054 92.3082 92.115V86.6479H92.8617V92.1422C92.8617 93.5054 92.5903 94.5327 92.0483 95.2233C91.506 95.9144 90.761 96.2595 89.814 96.2595H89.8142ZM73.5995 96.1912V86.6482H74.0658L79.4781 95.3321H79.2286V86.6482H79.7818V96.1912H79.3262L73.9032 87.5068H74.1526V96.1912H73.5994H73.5995ZM67.988 96.1912V92.7286L68.1182 93.1783L64.9293 86.6482H65.5368L68.4326 92.5784H68.1289L71.0247 86.6482H71.5996L68.411 93.1783L68.5412 92.7286V96.1912H67.988ZM62.7212 94.9643V91.4604H63.2525V95.0327L62.7212 94.9644V94.9643ZM60.3676 85.9393C59.9408 85.9393 59.5774 85.789 59.2774 85.4891C58.9774 85.1893 58.8201 84.785 58.8057 84.2758H59.2071C59.2215 84.6489 59.3408 84.944 59.5648 85.1617C59.7889 85.3803 60.0566 85.4891 60.3675 85.4891C60.6857 85.4891 60.9568 85.3803 61.1809 85.1617C61.405 84.944 61.5207 84.6489 61.5281 84.2758H61.9294C61.9149 84.785 61.7574 85.1893 61.4577 85.4891C61.1574 85.789 60.794 85.9393 60.3675 85.9393H60.3676ZM60.5412 96.2594C59.9697 96.2594 59.4419 96.1393 58.9577 95.8979C58.4732 95.6574 58.0519 95.3185 57.6939 94.8822C57.3362 94.4463 57.0594 93.9351 56.8642 93.3486C56.669 92.7624 56.5714 92.1195 56.5714 91.4198C56.5714 90.7196 56.669 90.0767 56.8642 89.4904C57.0594 88.9043 57.3377 88.3931 57.6996 87.9568C58.0611 87.5205 58.4822 87.1821 58.963 86.9411C59.4437 86.7004 59.9735 86.5797 60.5518 86.5797C61.1013 86.5797 61.6111 86.689 62.0813 86.9067C62.551 87.1253 62.9524 87.4523 63.2851 87.8888L62.938 88.352C62.6053 87.943 62.242 87.6523 61.8481 87.4796C61.4537 87.3071 61.0253 87.2204 60.5627 87.2204C60.071 87.2204 59.6156 87.3253 59.1961 87.5339C58.7769 87.7434 58.4115 88.0385 58.1005 88.4203C57.7899 88.8021 57.5494 89.2474 57.3794 89.7563C57.2096 90.2655 57.1246 90.8197 57.1246 91.4198C57.1246 92.0194 57.2096 92.5739 57.3794 93.0828C57.5494 93.592 57.7899 94.0368 58.1005 94.4187C58.4114 94.8006 58.7768 95.0961 59.1961 95.3051C59.6156 95.5145 60.071 95.6187 60.5627 95.6187C61.0109 95.6187 61.4357 95.5322 61.837 95.3595C62.2385 95.1867 62.6053 94.9007 62.9379 94.5005L63.2523 95.0326C62.9124 95.4412 62.5057 95.748 62.0322 95.9528C61.5586 96.1571 61.0616 96.2594 60.541 96.2594H60.5412ZM54.1064 96.1913L52.1323 92.7288H52.7614L54.7353 96.1913H54.1064ZM49.3883 92.7829L49.1389 92.4558H51.5577C52.3746 92.4558 52.995 92.2285 53.4177 91.7741C53.8407 91.3197 54.0522 90.6835 54.0522 89.8653C54.0522 89.0386 53.8407 88.3999 53.4177 87.9499C52.995 87.5003 52.3746 87.275 51.5577 87.275H49.1389L49.3883 86.9342V92.7829ZM48.8353 96.1913V86.6483H51.5576C52.1937 86.6483 52.7398 86.7757 53.1954 87.0298C53.6508 87.2845 54.0015 87.6502 54.2473 88.1275C54.493 88.6047 54.6164 89.1839 54.6164 89.8655C54.6164 90.5293 54.4931 91.0993 54.2473 91.5766C54.0016 92.0538 53.6508 92.4214 53.1954 92.681C52.7397 92.9399 52.1937 93.0693 51.5576 93.0693H49.1388L49.3882 92.7422V96.1913H48.8352H48.8353ZM42.7237 96.2595C41.7836 96.2595 41.0427 95.9143 40.5004 95.2232C39.9581 94.5326 39.687 93.5057 39.687 92.1422V86.6482H40.2399V92.1149C40.2399 93.3059 40.4567 94.1871 40.8907 94.7597C41.3247 95.3321 41.9392 95.6189 42.7346 95.6189C43.5226 95.6189 44.1335 95.3321 44.5673 94.7597C45.0013 94.187 45.218 93.3058 45.218 92.1149V86.6482H45.7713V92.1422C45.7713 93.5057 45.5002 94.5326 44.9579 95.2232C44.4156 95.9143 43.6706 96.2595 42.7236 96.2595H42.7237Z" fill="#FDFBF6"/>
</svg>
