<svg width="1300" height="326" viewBox="0 0 1300 326" fill="none" xmlns="http://www.w3.org/2000/svg">
<path d="M150.771 129.374L151.167 128.765C153.188 125.657 155.34 122.636 157.537 119.649L157.851 119.221L158.247 118.609C158.813 117.732 159.391 116.861 160.011 116.021L160.333 115.587L160.36 115.601C163.591 111.153 166.865 106.737 170.183 102.353C168.223 101.464 166.248 100.604 164.254 99.7927C160.785 103.772 157.489 107.896 154.209 112.03L153.888 112.434L153.868 112.425C152.977 113.58 152.068 114.727 151.223 115.942C148.587 119.275 146.016 122.636 143.538 126.08L143.518 126.104C142.509 127.366 141.509 128.633 140.604 129.983C105.79 177.56 77.5025 229.863 56.7026 284.981L69.426 294.762C77.8135 267.28 89.6608 238.827 102.283 212.83C115.582 185.442 130.756 158.947 147.812 133.715L148.119 133.26L148.114 133.257L148.496 132.645C149.105 131.666 149.753 130.71 150.45 129.792L150.769 129.373L150.771 129.374ZM179.828 148.363C176.242 146.483 172.599 144.715 168.943 142.975C164.874 149.155 160.983 155.447 157.173 161.786C155.166 165.124 153.183 168.476 151.244 171.854C148.308 176.967 145.474 182.135 142.662 187.307C140.976 190.582 139.22 193.829 137.528 197.114L137.489 197.188L137.446 197.254L137.425 197.298L137.398 197.34C137.374 197.376 137.364 197.414 137.358 197.456L137.343 197.57L137.289 197.671C135.797 200.482 134.401 203.343 133.017 206.208C130.706 210.987 128.409 215.773 126.204 220.602C124.787 223.707 123.36 226.807 122.045 229.962C120.198 234.17 118.429 238.406 116.735 242.679C114.792 247.26 113.03 251.907 111.25 256.545C106.442 269.069 102.207 281.687 98.2412 294.518C96.3638 300.591 94.6032 306.699 92.9349 312.833L110.063 326C110.829 321.336 111.703 316.69 112.753 312.094C113.377 308.72 114.087 305.348 114.965 302.026C116.797 294.154 118.856 286.555 121.148 278.89C122.668 273.803 124.318 268.616 126.025 263.609C127.488 259.324 128.949 255.038 130.54 250.804C132.065 246.502 133.647 242.213 135.406 237.999C137.095 233.744 138.855 229.511 140.626 225.283C143.803 217.695 147.205 210.203 150.713 202.764C152.17 199.675 153.702 196.622 155.228 193.58C156.658 190.453 158.241 187.387 159.917 184.395C161.141 181.862 162.412 179.331 163.811 176.887C165.327 173.859 166.925 170.851 168.589 167.88C170.237 164.938 171.921 162.016 173.543 159.05C175.637 155.479 177.697 151.9 179.828 148.363ZM189.559 106.415C191.314 104.137 193.071 101.86 194.869 99.615C190.893 97.5443 186.937 95.437 182.919 93.4313C181.587 92.7224 180.244 92.0502 178.864 91.407C177.102 90.4399 175.324 89.5494 173.544 88.6641L173.538 88.6609L173.536 88.6628L173.107 88.4575C171.941 87.8992 170.786 87.2979 169.563 86.8098C163.719 83.9813 157.86 81.2358 151.952 78.5966C146.031 75.9504 140.068 73.3974 134.077 70.9128C126.445 67.7488 118.749 64.7336 110.985 61.9057C107.101 60.4912 103.215 59.085 99.2985 57.767L98.9211 57.6401C98.5379 57.5107 98.1566 57.3781 97.7734 57.2474C97.7521 57.2403 97.7315 57.2332 97.7108 57.2255C92.1201 55.2784 86.4925 53.4344 80.8076 51.7494C80.6424 51.6953 80.4856 51.6451 80.3282 51.5942C76.4432 50.3361 72.5343 49.152 68.597 48.0407C64.5462 46.8109 60.4676 45.6977 56.3858 44.598C51.5647 43.2993 46.7319 42.0425 41.8734 40.888C39.278 40.2712 36.6865 39.6383 34.0885 39.0337C34.0498 39.0247 34.0117 39.0176 33.973 39.0086L24.0824 52.4963C35.8272 54.6783 47.5448 57.0136 59.1928 59.6631L60.3683 59.9303L60.356 59.9419C69.5789 62.0538 78.7573 64.3692 87.8518 66.9826L87.8602 66.9852L87.8718 66.9736L88.2357 67.0779C94.7148 68.938 101.152 70.943 107.532 73.1199C112.883 74.9459 118.244 76.7436 123.549 78.6842C128.901 80.5231 134.205 82.5197 139.475 84.6013C143.202 86.0732 146.906 87.6018 150.626 89.1052C154.782 90.8707 158.933 92.6316 163.103 94.4029C163.292 94.4969 163.46 94.5845 163.631 94.6682L163.632 94.6688C163.871 94.748 164.113 94.8208 164.34 94.9328C165.063 95.1743 165.745 95.5007 166.436 95.8123L167.182 96.1491L167.168 96.1664C168.692 96.7904 170.217 97.4156 171.712 98.1064C172.149 98.3079 172.582 98.5159 173.013 98.731L173.014 98.729L173.481 98.9344C174.755 99.4933 176.027 100.059 177.26 100.673C181.383 102.512 185.469 104.466 189.557 106.414L189.559 106.415ZM13.6692 66.7012L0 85.3489C11.6383 86.7609 23.2153 88.6712 34.7001 91.0252L35.5885 91.2074L35.5833 91.2158C71.1905 98.6073 105.993 110.192 139.446 124.431C141.996 120.925 144.59 117.447 147.234 114.011C123.744 102.628 99.5708 92.64 74.8684 84.1886L74.0717 83.9163L74.0826 83.9008C64.8823 80.76 55.6007 77.8601 46.2636 75.1545L46.2533 75.152L46.2474 75.1584L45.8404 75.0412C35.1949 71.9706 24.4643 69.1981 13.6692 66.7012ZM241.118 127.257C237.593 124.882 234.024 122.589 230.412 120.369C228.274 119.056 226.153 117.711 223.952 116.483C221.72 115.146 219.536 113.75 217.315 112.42L210.943 108.711C209.449 110.816 208.014 112.963 206.519 115.069C206.888 115.254 207.245 115.44 207.577 115.687L207.583 115.69C212.977 118.425 218.281 121.336 223.508 124.343C224.223 124.699 224.952 125.066 225.632 125.491C229.606 127.694 233.535 130.011 237.402 132.379C237.973 132.665 238.548 132.996 239.083 133.351C241.094 134.486 243.087 135.695 245.099 136.884C255.029 142.988 264.797 149.348 274.39 155.959C277.162 157.87 279.925 159.794 282.617 161.788C284.988 163.365 287.449 165.168 289.755 166.842C290.302 167.24 290.839 167.651 291.379 168.058C293.164 169.402 294.958 170.738 296.689 172.121C300.003 174.446 303.173 176.999 306.333 179.538C308.358 181.032 310.36 182.581 312.262 184.22C312.708 184.558 313.168 184.911 313.631 185.27C314.72 186.15 315.777 187.058 316.839 187.961L316.858 187.877L317.67 188.587C318.061 188.929 318.449 189.275 318.809 189.606C319.176 189.878 319.555 190.186 319.961 190.488C322.73 192.809 325.523 195.072 328.191 197.466C332.529 201.089 336.751 204.863 340.932 208.681L341.728 207.885C337.515 203.763 333.253 199.691 328.898 195.699C328.18 194.982 327.386 194.366 326.683 193.668C325.486 192.558 324.321 191.394 323.057 190.313C321.292 188.618 319.461 187.021 317.636 185.419L317.364 185.18L317.365 185.172L317.359 185.167C316.905 184.768 316.459 184.358 316.009 183.954C314.267 182.392 312.483 180.879 310.7 179.363C308.853 177.791 307.051 176.165 305.213 174.592C302.801 172.629 300.389 170.654 297.956 168.677C297.023 167.838 296.06 167.057 295.125 166.291C294.591 165.936 294.127 165.476 293.62 165.056C291.557 163.445 289.488 161.827 287.426 160.198C287.111 159.949 286.784 159.713 286.466 159.469C286.175 159.246 285.886 159.021 285.596 158.797L285.219 158.508C279.278 153.954 273.192 149.368 267.132 145.01C266.844 144.818 266.561 144.598 266.25 144.391C263.557 142.397 260.794 140.529 258.019 138.652C253.175 134.982 246.257 130.465 241.118 127.257ZM336.977 250.188L338.217 249.039C294.369 205.981 245.123 168.216 191.77 137.588C190.496 136.771 189.208 136 187.879 135.292C184.555 133.41 181.225 131.554 177.879 129.728C177.848 129.711 177.817 129.694 177.786 129.677L177.378 129.456C176.243 128.841 175.099 128.243 173.986 127.608C169.988 125.48 165.978 123.35 161.954 121.25C159.554 124.527 157.199 127.839 154.961 131.229C159.196 133.169 163.434 135.104 167.615 137.146C168.93 137.757 170.249 138.374 171.584 138.995L171.604 139.005C174.348 140.374 177.098 141.748 179.833 143.153C180.628 143.561 181.422 143.973 182.22 144.39L182.22 144.388L182.743 144.637C183.936 145.206 185.111 145.813 186.286 146.42C215.06 161.28 242.873 178.041 269.46 196.519C292.823 212.753 316.044 230.922 336.977 250.186V250.188ZM268.224 0.352838L267.782 0C234.513 25.2376 203.898 53.9424 176.462 85.3972C178.167 86.2026 179.838 87.0809 181.507 87.9572C207.208 56.1438 236.649 26.3264 268.224 0.352838ZM288.989 14.4831L288.105 13.7774C284.059 16.8461 280.104 20.03 276.159 23.2255C272.531 26.1648 268.958 29.171 265.438 32.248C265.332 32.3369 265.224 32.3954 265.126 32.474L265.095 32.4978L265.063 32.5178C264.966 32.5777 264.85 32.7193 264.74 32.7998L264.695 32.8326L264.648 32.8429L264.657 32.8507C261.503 35.6772 258.276 38.4227 255.188 41.3304C250.75 45.3159 246.403 49.3922 242.179 53.6057C239.17 56.4335 236.253 59.3451 233.419 62.3481C231.026 64.7368 228.73 67.2067 226.43 69.6791C224.038 72.1541 221.692 74.6665 219.44 77.2722C216.82 80.1471 214.264 83.0677 211.739 86.0146C209.59 88.5225 207.427 91.0187 205.367 93.6097C204.152 95.068 202.941 96.5186 201.73 97.9693L201.383 98.382L201.387 98.3846L200.927 98.9673C200.171 99.9228 199.387 100.856 198.644 101.821L198.585 101.897C196.856 104.057 195.183 106.253 193.51 108.447L193.472 108.497C192.533 109.685 191.559 110.841 190.679 112.066L190.674 112.073L190.697 112.085L190.234 112.7C186.89 117.14 183.649 121.657 180.444 126.198C183.709 127.957 186.952 129.756 190.179 131.584C191.795 129.075 193.372 126.541 195.046 124.079C196.58 121.694 198.178 119.341 199.723 116.953L199.913 116.66H199.971C200.672 115.568 201.378 114.478 202.121 113.414L202.439 112.96L202.442 112.961L202.855 112.358C204.216 110.373 205.605 108.407 206.972 106.404C207.85 105.257 208.609 104.047 209.437 102.886C212.728 98.2693 216.129 93.7326 219.527 89.1947C222.687 84.9761 225.957 80.8418 229.26 76.743C245.186 56.1303 268.99 30.865 288.989 14.4831ZM224.297 46.7594C228.163 49.0162 231.96 51.4011 235.564 54.0609C239.893 49.7399 244.367 45.567 248.85 41.4051C244.734 39.1071 240.481 37.0583 236.178 35.137C232.191 38.9841 228.175 42.8029 224.297 46.7594ZM90.8569 249.086C88.1789 255.495 85.6248 261.955 83.1804 268.455C88.3325 271.706 93.6781 274.651 99.1837 277.261C101.009 271.822 102.978 266.433 104.956 261.048C99.9301 257.464 95.2871 253.374 90.8569 249.086ZM63.7881 102.726C53.7111 99.9479 43.5566 97.4419 33.3208 95.3185C23.3644 114.481 18.6787 135.447 18.7858 156.992C18.9755 195.033 35.9246 229.393 64.3797 254.376C67.8177 246.459 71.4053 238.606 75.1465 230.827C59.9992 208.997 52.7059 183.454 52.6485 156.992C52.6079 138.271 56.2239 119.882 63.7881 102.726ZM127.452 273.813C126.134 277.984 124.805 282.154 123.611 286.364C124.849 286.709 126.066 287.131 127.34 287.449C158.92 298.363 194.002 297.333 225.372 286.306C256.678 275.301 284.339 254.406 301.583 225.886C293.502 219.513 285.232 213.383 276.874 207.379C260.13 249.26 221.785 278.899 176.836 284.044L176.802 284.049H176.767C159.809 284.165 142.991 280.554 127.452 273.813ZM76.6367 80.187C79.0444 76.8479 81.6475 73.6518 84.3791 70.5715C75.1561 67.9606 65.8332 65.7148 56.4839 63.6042C53.9878 66.1462 51.5763 68.7719 49.2841 71.4987C58.4612 74.201 67.5925 77.0668 76.6367 80.187ZM102.159 54.1742C109.365 47.2584 116.742 40.9846 125.714 36.4357C137.105 30.6628 149.471 28.4054 162.153 28.0101C172.197 27.6972 182.187 28.4209 191.821 31.4438C199.309 33.7939 206.135 37.4376 213.104 40.9646C216.838 37.4054 220.663 33.9433 224.481 30.4761C220.249 28.99 215.965 27.6353 211.615 26.5311C189.157 20.8284 165.27 19.2071 142.264 22.1876C119.179 25.179 96.7199 32.8642 77.4941 46.1104C85.7693 48.6324 93.991 51.3257 102.159 54.1742ZM318.197 180.035C319.451 172.415 320.198 164.718 320.167 156.99C319.99 112.268 296.571 72.9809 259.838 48.1592C255.265 53.0191 250.809 57.9872 246.45 63.0376C271.937 86.7731 285.265 119.141 286.135 153.725C297.1 162.15 307.799 170.921 318.197 180.035ZM307.568 214.731C310.945 207.651 313.484 200.193 315.514 192.625C305.815 184.628 295.881 176.916 285.719 169.512C285.028 177.538 283.698 185.517 281.59 193.294C290.396 200.26 299.091 207.369 307.568 214.731ZM1211.6 265.468C1211.6 273.889 1211.6 285.117 1218.03 288.728C1218.43 289.128 1218.43 289.931 1217.62 289.931H1171.82C1171.01 289.931 1171.01 289.128 1171.42 288.728C1177.85 285.118 1177.85 273.89 1177.85 265.468V32.4734L1089.84 52.5227V24.4521L1300 24.0522V52.1228L1211.6 32.0729L1211.6 265.468ZM1075.74 289.931H1058.87C1003.81 289.931 946.358 59.7423 890.103 43.7011V265.468C890.103 273.889 890.103 285.117 896.531 288.727C896.125 289.531 896.125 289.128 896.125 289.931H875.636V288.727C882.067 285.117 882.067 273.889 882.067 265.468V48.9151C882.067 40.0935 882.067 28.8632 875.636 25.6555C874.835 25.255 875.231 24.4521 875.636 24.4521H911.403C974.883 24.4521 1029.94 235.391 1061.28 243.012V48.9145C1061.28 40.0929 1061.28 28.8626 1055.25 25.6548V24.4514H1075.74V25.6548C1069.71 28.8619 1069.71 40.0929 1069.71 48.9145V265.467C1069.71 273.888 1069.71 285.116 1075.74 288.727C1076.55 289.127 1076.14 289.931 1075.74 289.931ZM857.923 261.859V289.932H661.031C660.634 289.932 660.228 289.129 661.031 288.729C667.46 285.118 667.46 273.891 667.46 265.469V48.9138C667.46 40.0922 667.46 28.8645 661.031 25.2543C660.228 25.2543 660.634 24.4534 661.031 24.4534H847.874V52.5233L700.815 32.474V155.186C707.244 151.979 728.934 141.952 741.395 136.338C751.435 131.526 761.486 129.923 770.325 129.923C790.823 129.923 805.685 139.145 805.685 139.145L797.649 170.828C797.649 170.828 779.571 148.77 750.641 149.172C733.756 149.172 706.034 159.597 700.814 161.604V281.911L857.923 261.859ZM630.891 288.728C631.687 289.128 631.687 289.931 630.891 289.931H585.076C584.677 289.931 584.28 289.128 585.076 288.728C591.506 285.118 591.506 273.89 591.506 265.468V48.9151C591.506 40.0909 591.506 28.8638 585.076 25.6555C584.28 25.2556 584.677 24.4521 585.076 24.4521H630.891C631.687 24.4521 631.687 25.2556 630.891 25.6555C624.86 28.8632 624.86 40.0909 624.86 48.9151V265.468C624.86 273.889 624.86 285.117 630.891 288.728ZM565.356 289.931H531.602C531.602 234.991 492.622 178.847 432.748 175.238C417.885 174.034 415.474 155.188 429.938 151.577C452.846 145.964 511.909 133.932 511.909 91.4237C511.909 48.9157 487.801 28.8632 449.633 28.8632H389.351V265.468C389.351 273.889 389.351 285.118 395.781 288.728L395.382 289.931H349.982L349.576 288.728C356.005 285.118 356.005 273.89 356.005 265.468V48.9157C356.005 40.0941 356.005 28.8638 349.576 25.6561C349.576 24.8526 349.576 24.8526 349.982 24.4527H450.426C503.07 24.4527 546.068 34.4777 546.068 81.3988C546.068 143.957 444.404 140.75 444.404 162.806C444.404 181.255 565.356 184.862 565.356 289.931Z" fill="#FDFBF6"/>
</svg>
