<svg width="263" height="142" viewBox="0 0 263 142" fill="none" xmlns="http://www.w3.org/2000/svg">
<path d="M101.984 3.54688C108.016 5.32812 112.531 8.0625 115.531 11.75C118.562 15.4062 120.359 19.625 120.922 24.4062C121.516 29.1562 121.172 34.0781 119.891 39.1719C118.609 44.2344 116.688 49.0781 114.125 53.7031C110.344 60.6094 105.422 67.0469 99.3594 73.0156C93.2969 78.9531 86.5 84.0156 78.9688 88.2031C71.4688 92.3906 63.6406 95.25 55.4844 96.7812C47.3594 98.3125 39.3125 98.0938 31.3438 96.125C27.75 107.719 24 119.266 20.0938 130.766C19.125 133.578 18.1719 136.406 17.2344 139.25C17.0156 139.875 16.625 140.328 16.0625 140.609C15.5 140.891 14.9062 140.922 14.2812 140.703C13.5938 140.484 13.1094 140.062 12.8281 139.438C12.5781 138.812 12.5938 138.172 12.875 137.516C17.0312 128.453 20.6719 119.203 23.7969 109.766C25.3906 104.953 26.9219 100.125 28.3906 95.2812C26.1094 94.5312 23.875 93.625 21.6875 92.5625C13.3125 88.2812 6.78125 82.0469 2.09375 73.8594C-0.84375 68.5469 -2.79688 62.875 -3.76562 56.8438C-3.89062 55.8125 -3.625 55.0625 -2.96875 54.5938C-2.3125 54.0938 -1.59375 53.9375 -0.8125 54.125C0 54.3125 0.546875 54.9062 0.828125 55.9062C0.671875 60.1875 1.21875 64.4062 2.46875 68.5625C3.71875 72.5 5.59375 76.125 8.09375 79.4375C10.6875 82.875 13.7656 85.7812 17.3281 88.1562C20.9219 90.5625 24.7656 92.4062 28.8594 93.6875C32.0156 83.1562 34.7031 72.5312 36.9219 61.8125C37.7969 57.5312 38.5469 53.2188 39.1719 48.875C39.7969 44.5312 40.1562 40.1719 40.25 35.7969C40.3438 34.7656 40.7656 34.0781 41.5156 33.7344C42.2969 33.3906 43.0469 33.4062 43.7656 33.7812C44.5156 34.1562 44.9062 34.8906 44.9375 35.9844C44.375 42.7344 43.375 49.4219 41.9375 56.0469C39.1562 69.0156 35.7969 81.8438 31.8594 94.5312C32.6094 94.7188 33.375 94.8906 34.1562 95.0469C42.5312 96.4844 50.9531 95.9531 59.4219 93.4531C67.8906 90.9531 75.875 87.0156 83.375 81.6406C90.9062 76.2656 97.4219 70 102.922 62.8438C108.422 55.6875 112.375 48.1875 114.781 40.3438C117.094 32.25 117.359 25.6406 115.578 20.5156C113.828 15.3906 110.641 11.5469 106.016 8.98438C101.391 6.42187 95.9531 4.9375 89.7031 4.53125C83.4531 4.125 77.0156 4.57812 70.3906 5.89062C62.1406 7.48438 54.1719 9.96875 46.4844 13.3438C36.9531 17.5625 27.8281 22.5625 19.1094 28.3438C10.3906 34.125 2.39062 40.75 -4.89062 48.2188C-7.67188 51.0938 -10.375 54.3594 -13 58.0156C-15.625 61.6719 -17.7969 65.5312 -19.5156 69.5938C-21.2344 73.6562 -22.125 77.7656 -22.1875 81.9219C-22.25 86.0781 -21.0781 90.0938 -18.6719 93.9688C-16.8906 96.6875 -14.5469 98.6562 -11.6406 99.875C-8.73438 101.125 -5.6875 101.484 -2.5 100.953C-1.46875 100.859 -0.734375 101.156 -0.296875 101.844C0.171875 102.531 0.296875 103.266 0.078125 104.047C-0.140625 104.828 -0.75 105.344 -1.75 105.594C-8.125 106.375 -13.3906 105.156 -17.5469 101.938C-21.6719 98.75 -24.4531 94.4688 -25.8906 89.0938C-27.2969 83.75 -27.125 78.25 -25.375 72.5938C-22.9062 65.0625 -18.9688 58.0469 -13.5625 51.5469C-8.15625 45.0156 -2.03125 39.125 4.8125 33.875C11.6562 28.5937 18.4531 24.0469 25.2031 20.2344C35.5156 14.5781 46.3281 10.1562 57.6406 6.96875C64.8281 4.8125 72.1719 3.25 79.6719 2.28125C87.1719 1.3125 94.6094 1.73437 101.984 3.54688ZM152.591 66.3594C152.716 66.1406 152.887 66.0469 153.106 66.0781C153.325 66.1094 153.497 66.2188 153.622 66.4062C153.747 66.5625 153.747 66.75 153.622 66.9688C152.716 68.25 151.669 69.3906 150.481 70.3906C149.294 71.3594 148.059 72.2812 146.778 73.1562C146.559 73.3125 146.356 73.4531 146.169 73.5781C143.075 75.7031 140.091 77.3438 137.216 78.5C134.341 79.625 131.841 79.8438 129.716 79.1562C127.622 78.4375 126.153 76.3438 125.309 72.875C123.247 75.9375 121.028 78.8906 118.653 81.7344C117.403 82.9844 116.122 83.3438 114.809 82.8125C113.466 82.25 112.934 81.0625 113.216 79.25C114.497 73.5625 117.169 68.625 121.231 64.4375C122.544 63.0938 124.153 62.0156 126.059 61.2031C126.809 60.9219 127.419 61.0156 127.887 61.4844C128.387 61.9531 128.622 62.5312 128.591 63.2188C128.559 63.875 128.169 64.3594 127.419 64.6719C125.075 65.8594 123.106 67.5469 121.512 69.7344C119.95 71.8906 118.731 74.2344 117.856 76.7656C120.419 73.4531 122.809 70.0156 125.028 66.4531C125.372 65.9219 125.825 65.6406 126.387 65.6094C126.981 65.5781 127.481 65.75 127.887 66.125C128.325 66.5 128.528 67 128.497 67.625C127.872 69.5312 127.7 71.5 127.981 73.5312C128.294 75.5312 129.481 76.9375 131.544 77.75C134.637 77.7188 137.762 76.8438 140.919 75.125C144.075 73.4062 146.887 71.5938 149.356 69.6875C150.637 68.75 151.716 67.6406 152.591 66.3594ZM163.447 68.3281C163.666 68.4844 163.931 68.5781 164.244 68.6094C164.587 68.6406 164.947 68.6562 165.322 68.6562C165.728 68.625 166.072 68.6406 166.353 68.7031C166.666 68.7344 166.837 68.875 166.869 69.125C166.744 69.5 166.384 69.7656 165.791 69.9219C165.228 70.0469 164.619 70.0938 163.962 70.0625C163.306 70.0312 162.791 69.9375 162.416 69.7812C161.416 69.2812 160.712 68.5938 160.306 67.7188C159.9 66.8125 159.712 65.8281 159.744 64.7656C156.587 67.4844 153.853 70.6094 151.541 74.1406C149.259 77.6719 147.306 81.3438 145.681 85.1562C145.587 85.4062 145.431 85.5938 145.212 85.7188C144.962 85.8438 144.697 85.8438 144.416 85.7188C144.166 85.5938 144.009 85.3906 143.947 85.1094C143.853 84.8594 143.806 84.5938 143.806 84.3125C143.806 84.0312 143.775 83.7812 143.712 83.5625C143.337 77.4062 144.697 71.6719 147.791 66.3594C148.228 65.7344 148.759 65.4531 149.384 65.5156C150.009 65.5781 150.525 65.8594 150.931 66.3594C151.337 66.8594 151.384 67.4531 151.072 68.1406C150.259 69.7656 149.603 71.4219 149.103 73.1094C152.197 67.4219 156.337 62.6562 161.525 58.8125C162.087 58.4375 162.634 58.3594 163.166 58.5781C163.728 58.7969 164.119 59.1719 164.337 59.7031C164.587 60.2344 164.509 60.7812 164.103 61.3438C163.447 62.3438 162.916 63.5469 162.509 64.9531C162.103 66.3594 162.416 67.4844 163.447 68.3281ZM199.897 66.2656C200.241 66.5469 200.163 67.0625 199.663 67.8125C199.194 68.5625 198.522 69.375 197.647 70.25C196.803 71.125 195.975 71.9375 195.163 72.6875C194.35 73.4062 193.788 73.8906 193.475 74.1406C190.975 76.1406 188.256 77.7031 185.319 78.8281C182.35 79.9219 179.35 80.5625 176.319 80.75C173.288 80.9375 170.288 80.8125 167.319 80.375C167.163 80.375 167.038 80.3125 166.944 80.1875C166.631 80.875 166.334 81.5781 166.053 82.2969C165.741 83.4219 165.413 84.5469 165.069 85.6719C165.006 85.9844 164.85 86.2188 164.6 86.375C164.319 86.5312 164.038 86.5938 163.756 86.5625C163.194 86.3125 162.944 85.875 163.006 85.25C163.069 84.625 163.241 83.9688 163.522 83.2812C163.709 82.75 163.834 82.2812 163.897 81.875C163.991 81.5 164.1 81.125 164.225 80.75C167.35 68.4688 170.959 56.2969 175.053 44.2344C174.678 44.0156 174.428 43.7031 174.303 43.2969C174.209 42.8906 174.288 42.4375 174.538 41.9375L178.897 33.8281C179.303 33.1406 179.819 32.7812 180.444 32.75C181.1 32.7188 181.631 32.9375 182.038 33.4062C182.475 33.8438 182.553 34.4219 182.272 35.1406C177.366 46.8906 173.1 58.8281 169.475 70.9531C170.725 69.3594 172.069 67.875 173.506 66.5C174.819 65.2812 176.116 64.125 177.397 63.0312C177.897 62.5938 178.381 62.1719 178.85 61.7656C179.381 61.2969 179.913 61.125 180.444 61.25C181.006 61.375 181.428 61.6719 181.709 62.1406C181.991 62.6094 181.991 63.1562 181.709 63.7812C180.053 66.6562 178.131 69.3438 175.944 71.8438C173.756 74.3438 171.475 76.75 169.1 79.0625C174.756 79.7812 180.209 79.1094 185.459 77.0469C190.709 74.9844 195.147 71.4531 198.772 66.4531C198.928 66.2656 199.1 66.1562 199.288 66.125C199.506 66.0938 199.709 66.1406 199.897 66.2656ZM173.975 70.4844C171.788 72.6094 169.913 74.9688 168.35 77.5625C169.006 76.7812 169.678 75.9844 170.366 75.1719C171.616 73.6719 172.819 72.1094 173.975 70.4844ZM218.675 66.2656C219.456 66.1719 219.722 66.3438 219.472 66.7812C219.253 67.1875 218.706 67.75 217.831 68.4688C216.956 69.1875 215.988 69.9375 214.925 70.7188C213.894 71.4688 212.956 72.125 212.113 72.6875C211.269 73.2188 210.753 73.5312 210.566 73.625C208.222 75.0938 205.816 76.4688 203.347 77.75C200.878 79 198.284 79.9844 195.566 80.7031C193.347 81.3594 191.816 80.9844 190.972 79.5781C190.128 78.1719 189.878 76.4844 190.222 74.5156C190.566 71.4219 191.644 68.6094 193.456 66.0781C193.988 65.4844 194.566 65.2812 195.191 65.4688C195.847 65.625 196.331 66 196.644 66.5938C196.956 67.1562 196.878 67.7656 196.409 68.4219C195.378 69.8906 194.519 71.5312 193.831 73.3438C193.144 75.125 192.925 76.9062 193.175 78.6875C193.831 79.3125 194.738 79.5156 195.894 79.2969C197.05 79.0781 198.144 78.75 199.175 78.3125C199.675 78.125 200.113 77.9844 200.488 77.8906C203.831 76.5156 207.05 74.875 210.144 72.9688C213.269 71.0625 216.113 68.8281 218.675 66.2656ZM196.409 61.625C195.253 61.4688 194.644 60.9531 194.581 60.0781C194.55 59.2031 194.863 58.4375 195.519 57.7812C196.206 57.125 197.019 57.0781 197.956 57.6406C198.519 58.0469 198.769 58.5625 198.706 59.1875C198.644 59.7812 198.394 60.3281 197.956 60.8281C197.519 61.3281 197.003 61.5938 196.409 61.625ZM253.484 66.3125C253.641 66.125 253.812 66.0625 254 66.125C254.188 66.1562 254.328 66.25 254.422 66.4062C254.516 66.5625 254.5 66.7344 254.375 66.9219C254.062 67.2969 253.734 67.625 253.391 67.9062C251.484 69.375 249.031 71.0312 246.031 72.875C243.062 74.7188 240.031 76.0312 236.938 76.8125C233.875 77.5625 231.25 77.0469 229.062 75.2656C228.25 74.4219 227.703 73.0781 227.422 71.2344C227.172 69.3594 227.172 67.5469 227.422 65.7969C224.453 68.0469 221.594 70.625 218.844 73.5312C216.125 76.4062 213.984 79.3438 212.422 82.3438C212.016 82.8125 211.531 83.0312 210.969 83C210.406 82.9688 209.938 82.75 209.562 82.3438C209.188 81.9062 209.062 81.375 209.188 80.75C209.75 78.2188 210.453 75.7031 211.297 73.2031C211.609 72.2031 211.906 71.2031 212.188 70.2031C212.188 70.2031 212.188 70.1875 212.188 70.1562C212.531 69.0625 212.828 67.9531 213.078 66.8281C213.297 66.0469 213.734 65.5938 214.391 65.4688C215.047 65.3125 215.641 65.4375 216.172 65.8438C216.703 66.2188 216.891 66.8125 216.734 67.625C216.203 69.875 215.578 72.125 214.859 74.375C214.672 74.9062 214.5 75.4219 214.344 75.9219C216.469 73.9531 218.547 71.9219 220.578 69.8281C223.328 66.9531 226.188 64.2344 229.156 61.6719C229.531 61.3594 229.875 61.3125 230.188 61.5312C230.531 61.75 230.812 62.1094 231.031 62.6094C231.375 63.4531 231.453 64.3438 231.266 65.2812C231.109 66.2188 230.859 67.1562 230.516 68.0938C230.141 69.1562 229.859 70.2188 229.672 71.2812C229.516 72.3125 229.703 73.3125 230.234 74.2812C231.609 75.5625 233.219 76.1406 235.062 76.0156C236.938 75.8906 238.812 75.4219 240.688 74.6094C242.594 73.7969 244.25 72.9844 245.656 72.1719C245.875 72.0469 246.109 71.9062 246.359 71.75C249.047 70.2812 251.422 68.4688 253.484 66.3125ZM258.809 62.6562C259.184 62.0625 259.669 61.75 260.263 61.7188C260.888 61.6562 261.403 61.8281 261.809 62.2344C262.247 62.6094 262.388 63.1406 262.231 63.8281C260.044 73.3281 257.466 82.75 254.497 92.0938C254.997 92.0312 255.419 92.0469 255.763 92.1406C256.138 92.2344 256.341 92.5156 256.372 92.9844C256.309 93.1719 256.2 93.3281 256.044 93.4531C255.888 93.5781 255.716 93.625 255.528 93.5938C255.028 93.5 254.528 93.4688 254.028 93.5C252.153 99.1562 249.903 104.703 247.278 110.141C244.841 115.109 241.997 119.891 238.747 124.484C238.372 124.984 237.903 125.25 237.341 125.281C236.747 125.344 236.231 125.172 235.794 124.766C235.075 123.953 234.638 122.469 234.481 120.312C234.294 118.188 234.497 116.078 235.091 113.984C236.184 110.109 238.044 106.25 240.669 102.406C243.263 98.5625 246.419 95.6094 250.138 93.5469C252.419 86.8594 254.403 80.0938 256.091 73.25C254.934 75.0938 253.622 76.8125 252.153 78.4062C250.122 80.5625 248.153 81.4844 246.247 81.1719C244.309 80.8594 243.388 79.1719 243.481 76.1094C243.856 73.7031 244.653 71.4219 245.872 69.2656C247.091 67.1094 248.606 65.1562 250.419 63.4062C252.325 61.7188 253.934 60.75 255.247 60.5C256.559 60.25 257.513 60.3906 258.106 60.9219C258.7 61.4531 258.872 62.0781 258.622 62.7969C258.372 63.4844 257.653 63.9375 256.466 64.1562C255.028 64.4688 253.497 65.5469 251.872 67.3906C250.278 69.2031 249.013 71.2031 248.075 73.3906C247.106 75.5469 246.888 77.2812 247.419 78.5938L247.184 78.5C248.372 79 249.513 78.7188 250.606 77.6562C251.731 76.5938 252.747 75.2344 253.653 73.5781C254.591 71.9219 255.356 70.4375 255.95 69.125C256.169 68.6562 256.372 68.25 256.559 67.9062C256.966 66.9688 257.372 66.0156 257.778 65.0469C258.122 64.2656 258.466 63.4688 258.809 62.6562ZM236.919 120.828C242.263 112.766 246.481 104.234 249.575 95.2344C246.294 97.2969 243.544 100.094 241.325 103.625C239.075 107.188 237.544 110.719 236.731 114.219C236.7 114.25 236.684 114.297 236.684 114.359C236.528 115.328 236.419 116.422 236.356 117.641C236.294 118.859 236.481 119.922 236.919 120.828Z" fill="#A05428"/>
</svg>
