<svg width="20" height="20" viewBox="0 0 20 20" fill="none" xmlns="http://www.w3.org/2000/svg">
<path d="M15.0001 9.99996C15.0001 12.7614 12.7615 15 10.0001 15C7.23866 15 5.00008 12.7614 5.00008 9.99996C5.00008 7.23854 7.23866 4.99996 10.0001 4.99996C12.7615 4.99996 15.0001 7.23854 15.0001 9.99996Z" fill="#6D3018"/>
<path fill-rule="evenodd" clip-rule="evenodd" d="M10.0001 1.04163C10.3453 1.04163 10.6251 1.32145 10.6251 1.66663V2.49996C10.6251 2.84514 10.3453 3.12496 10.0001 3.12496C9.6549 3.12496 9.37508 2.84514 9.37508 2.49996V1.66663C9.37508 1.32145 9.6549 1.04163 10.0001 1.04163ZM3.66559 3.66547C3.90967 3.42139 4.3054 3.42139 4.54947 3.66547L4.87684 3.99283C5.12091 4.23691 5.12091 4.63264 4.87684 4.87672C4.63276 5.12079 4.23703 5.12079 3.99295 4.87672L3.66559 4.54935C3.42151 4.30527 3.42151 3.90955 3.66559 3.66547ZM16.3344 3.66568C16.5784 3.90976 16.5784 4.30549 16.3344 4.54957L16.007 4.87693C15.7629 5.12101 15.3672 5.12101 15.1231 4.87693C14.879 4.63285 14.879 4.23713 15.1231 3.99305L15.4505 3.66568C15.6946 3.42161 16.0903 3.42161 16.3344 3.66568ZM1.04175 9.99996C1.04175 9.65478 1.32157 9.37496 1.66675 9.37496H2.50008C2.84526 9.37496 3.12508 9.65478 3.12508 9.99996C3.12508 10.3451 2.84526 10.625 2.50008 10.625H1.66675C1.32157 10.625 1.04175 10.3451 1.04175 9.99996ZM16.8751 9.99996C16.8751 9.65478 17.1549 9.37496 17.5001 9.37496H18.3334C18.6786 9.37496 18.9584 9.65478 18.9584 9.99996C18.9584 10.3451 18.6786 10.625 18.3334 10.625H17.5001C17.1549 10.625 16.8751 10.3451 16.8751 9.99996ZM15.1231 15.123C15.3672 14.8789 15.7629 14.8789 16.007 15.123L16.3344 15.4504C16.5784 15.6944 16.5784 16.0902 16.3344 16.3342C16.0903 16.5783 15.6946 16.5783 15.4505 16.3342L15.1231 16.0069C14.879 15.7628 14.879 15.3671 15.1231 15.123ZM4.87684 15.1232C5.12091 15.3673 5.12092 15.763 4.87684 16.0071L4.54947 16.3345C4.3054 16.5785 3.90967 16.5785 3.66559 16.3345C3.42151 16.0904 3.42151 15.6946 3.66559 15.4506L3.99295 15.1232C4.23703 14.8791 4.63276 14.8791 4.87684 15.1232ZM10.0001 16.875C10.3453 16.875 10.6251 17.1548 10.6251 17.5V18.3333C10.6251 18.6785 10.3453 18.9583 10.0001 18.9583C9.6549 18.9583 9.37508 18.6785 9.37508 18.3333V17.5C9.37508 17.1548 9.6549 16.875 10.0001 16.875Z" fill="#6D3018"/>
</svg>
