<svg width="35.9312" height="40.0029" viewBox="0 0 35.9312 40.0029" fill="none" xmlns="http://www.w3.org/2000/svg">
<g id="Group">
<path id="Vector" d="M23.5093 0.408807C21.0174 0.113942 18.5092 -0.0216669 16 0.0028065C7.028 0.0028065 9.53674e-07 3.51681 9.53674e-07 8.00281V18.6695C9.53674e-07 22.2581 4.522 25.2808 11.1833 26.2995C9.23125 27.7071 7.26312 29.0923 5.27934 30.4548C5.10782 30.5725 4.96634 30.7289 4.86625 30.9112C4.76617 31.0936 4.71028 31.2969 4.70308 31.5048C4.69588 31.7127 4.73757 31.9194 4.82481 32.1082C4.91204 32.2971 5.04238 32.4628 5.20533 32.5921L14.1013 39.7101C14.3308 39.8932 14.614 39.9959 14.9075 40.0025C15.201 40.0091 15.4885 39.9193 15.726 39.7468C17.2116 38.6623 18.6654 37.5347 20.0853 36.3655C21.4522 35.2412 22.7861 34.0774 24.0853 32.8755C24.092 32.8681 24.1013 32.8661 24.1073 32.8588L24.112 32.8508C25.3568 31.7013 26.5671 30.515 27.7413 29.2935C27.7553 29.2801 27.774 29.2748 27.7867 29.2595C27.7993 29.2441 27.7973 29.2375 27.8047 29.2275C28.6452 28.3555 29.4652 27.4639 30.264 26.5535C32.4853 24.0055 35.2493 20.8355 35.776 16.9308C36.3133 12.9481 35.5713 7.04614 31.7133 3.51947C29.3033 1.30881 26.2147 0.754807 23.5093 0.408807ZM16 1.33614C23.95 1.33614 30.6667 4.38947 30.6667 8.00281C30.6667 12.3235 22.0667 14.6695 16 14.6695C8.05 14.6695 1.33333 11.6161 1.33333 8.00281C1.33333 4.38947 8.05 1.33614 16 1.33614ZM1.33333 18.6695V11.2521C3.78 14.0741 9.35534 16.0028 16 16.0028C19.505 16.0595 22.9882 15.4428 26.2607 14.1861C22.1693 17.9601 17.8522 21.4817 13.3333 24.7315V21.3361C13.3333 21.1593 13.2631 20.9898 13.1381 20.8647C13.013 20.7397 12.8435 20.6695 12.6667 20.6695C12.4899 20.6695 12.3203 20.7397 12.1953 20.8647C12.0702 20.9898 12 21.1593 12 21.3361V25.0695C10.8755 24.9225 9.7619 24.7012 8.66667 24.4068V20.6695C8.66667 20.4927 8.59643 20.3231 8.47141 20.1981C8.34638 20.073 8.17681 20.0028 8 20.0028C7.82319 20.0028 7.65362 20.073 7.5286 20.1981C7.40357 20.3231 7.33334 20.4927 7.33334 20.6695V24.0028C6.4112 23.694 5.51872 23.3029 4.66667 22.8341V18.6695C4.66667 18.4927 4.59643 18.3231 4.47141 18.1981C4.34638 18.073 4.17681 18.0028 4 18.0028C3.82319 18.0028 3.65362 18.073 3.5286 18.1981C3.40357 18.3231 3.33333 18.4927 3.33333 18.6695V21.9568C2.06667 20.9688 1.33333 19.8395 1.33333 18.6695ZM14.9333 38.6695L6.034 31.5541C7.11628 30.8103 8.1943 30.0603 9.268 29.3041C9.85434 29.68 10.5575 29.8295 11.246 29.7248C11.4592 29.6792 11.6796 29.6788 11.893 29.7236C12.1064 29.7683 12.308 29.8573 12.4849 29.9847C12.6618 30.1122 12.8101 30.2752 12.9202 30.4634C13.0303 30.6516 13.0997 30.8608 13.124 31.0775C13.2529 31.8215 13.6677 32.4855 14.2798 32.9278C14.8918 33.37 15.6525 33.5553 16.3993 33.4441C16.6129 33.4005 16.8332 33.4016 17.0462 33.4475C17.2593 33.4934 17.4605 33.5831 17.6371 33.7108C17.8137 33.8385 17.9619 34.0015 18.0722 34.1895C18.1825 34.3775 18.2526 34.5863 18.278 34.8028C18.3527 35.1561 18.4793 35.4961 18.654 35.8128C17.4375 36.7955 16.1969 37.7481 14.9333 38.6695ZM34.4607 16.7495C34.3064 17.8035 33.9883 18.827 33.518 19.7828L32.57 18.4495C32.4675 18.3054 32.3119 18.2079 32.1375 18.1785C31.963 18.1492 31.7841 18.1903 31.64 18.2928C31.4959 18.3954 31.3984 18.551 31.3691 18.7254C31.3397 18.8998 31.3808 19.0787 31.4833 19.2228L32.8107 21.0895C32.1682 22.1231 31.4516 23.1088 30.6667 24.0388L28.8113 21.9175C28.7539 21.851 28.6839 21.7966 28.6053 21.7573C28.5267 21.718 28.4412 21.6946 28.3536 21.6885C28.2659 21.6824 28.178 21.6936 28.0947 21.7216C28.0114 21.7496 27.9345 21.7937 27.8684 21.8515C27.8022 21.9093 27.7482 21.9796 27.7093 22.0584C27.6704 22.1372 27.6475 22.2228 27.6418 22.3105C27.6361 22.3981 27.6478 22.486 27.6762 22.5692C27.7046 22.6523 27.7492 22.729 27.8073 22.7948L29.792 25.0695C28.9635 26.0348 28.1106 26.9789 27.234 27.9008L24.434 25.5008C24.3681 25.44 24.2907 25.393 24.2063 25.3628C24.1219 25.3326 24.0322 25.3197 23.9427 25.3249C23.8532 25.3302 23.7657 25.3534 23.6853 25.3932C23.605 25.4331 23.5336 25.4887 23.4752 25.5568C23.4169 25.6249 23.3729 25.7041 23.3459 25.7896C23.3189 25.8751 23.3094 25.9652 23.318 26.0544C23.3266 26.1437 23.3531 26.2303 23.396 26.309C23.4388 26.3878 23.4971 26.4571 23.5673 26.5128L26.312 28.8681C25.4227 29.7753 24.5129 30.6622 23.5833 31.5281L20.4333 28.8295C20.3668 28.7726 20.2897 28.7293 20.2065 28.7022C20.1232 28.6751 20.0354 28.6647 19.9481 28.6715C19.8609 28.6783 19.7758 28.7022 19.6977 28.7419C19.6197 28.7816 19.5502 28.8363 19.4933 28.9028C19.4364 28.9693 19.3932 29.0464 19.3661 29.1297C19.339 29.2129 19.3285 29.3007 19.3353 29.388C19.3421 29.4753 19.3661 29.5604 19.4058 29.6384C19.4455 29.7164 19.5001 29.7859 19.5667 29.8428L22.6 32.4388C21.6667 33.2875 20.6953 34.1188 19.7107 34.9388C19.6547 34.7876 19.6081 34.6331 19.5713 34.4761C19.4427 33.7333 19.0285 33.0702 18.4172 32.6289C17.806 32.1876 17.0463 32.0031 16.3007 32.1148C16.0864 32.1583 15.8654 32.1568 15.6518 32.1105C15.4381 32.0642 15.2363 31.974 15.0593 31.8458C14.8822 31.7175 14.7337 31.5539 14.6231 31.3654C14.5125 31.1768 14.4422 30.9673 14.4167 30.7501C14.2899 30.0068 13.8758 29.3431 13.2639 28.9024C12.6519 28.4617 11.8912 28.2794 11.146 28.3948C10.946 28.4161 10.746 28.4175 10.546 28.3981C18.1327 22.9981 27.1947 16.0248 30.6127 11.3128C31.4458 10.4333 31.9378 9.28535 32 8.07547C32.0347 5.97947 30.5627 4.31681 28.8073 3.15081C29.5398 3.50316 30.2184 3.95794 30.8227 4.50147C34.0747 7.47614 34.9933 12.7961 34.4607 16.7495Z" fill="var(--fill-0, #6D3018)"/>
<path id="Vector_2" d="M15.9793 12.0028C18.7067 12.0028 23.2587 11.2201 24.4313 8.74947C25.2273 7.07214 23.8453 5.34947 22.288 4.29747C20.8184 3.36641 19.2001 2.69402 17.5033 2.30947C17.247 2.24446 16.9795 2.2365 16.7197 2.28615C16.46 2.33579 16.2143 2.44184 16 2.59681C15.7345 2.78809 15.5248 3.04677 15.3927 3.34614C10.7627 3.49747 7.33333 5.31481 7.33333 7.66947C7.33333 10.8128 12.584 12.0028 15.9793 12.0028ZM20.8747 9.86947L21.1133 5.13214C21.262 5.22081 21.4053 5.31214 21.5433 5.40481C24.0473 7.09281 23.9947 8.69947 20.8747 9.86947ZM16.5707 4.05814V4.04547C16.5763 3.97289 16.5977 3.90241 16.6334 3.83897C16.6691 3.77552 16.7182 3.72063 16.7773 3.67814C16.8333 3.63644 16.898 3.60785 16.9665 3.59446C17.0351 3.58108 17.1057 3.58325 17.1733 3.60081C18.0733 3.82414 18.956 4.11681 19.8113 4.47614L19.5193 10.2801C18.3967 10.5405 17.2478 10.6711 16.0953 10.6695L16.5707 4.05814ZM15.1893 4.68881L14.7633 10.6221C11.0893 10.3568 8.66667 8.93014 8.66667 7.66947C8.66667 6.35147 11.31 4.87614 15.1893 4.68881Z" fill="var(--fill-0, #6D3018)"/>
<path id="Vector_3" d="M18 6.66947C17.8232 6.66947 17.6536 6.73971 17.5286 6.86474C17.4036 6.98976 17.3333 7.15933 17.3333 7.33614V8.00281C17.3333 8.17962 17.4036 8.34919 17.5286 8.47421C17.6536 8.59924 17.8232 8.66947 18 8.66947C18.1768 8.66947 18.3464 8.59924 18.4714 8.47421C18.5964 8.34919 18.6667 8.17962 18.6667 8.00281V7.33614C18.6667 7.15933 18.5964 6.98976 18.4714 6.86474C18.3464 6.73971 18.1768 6.66947 18 6.66947ZM11.0833 32.1488C10.9452 32.0383 10.7689 31.9872 10.5931 32.0067C10.4173 32.0262 10.2565 32.1147 10.146 32.2528C10.0355 32.3909 9.98437 32.5672 10.0039 32.743C10.0234 32.9188 10.1119 33.0796 10.25 33.1901L13.5833 35.8568C13.7214 35.9673 13.8978 36.0184 14.0735 35.9989C14.2493 35.9794 14.4102 35.8909 14.5207 35.7528C14.6312 35.6147 14.6823 35.4384 14.6628 35.2626C14.6433 35.0868 14.5548 34.926 14.4167 34.8155L11.0833 32.1488Z" fill="var(--fill-0, #6D3018)"/>
</g>
</svg>
